<svg width="23" height="16" viewBox="0 0 23 16" fill="none" xmlns="http://www.w3.org/2000/svg">
<path d="M22.8596 7.32789L15.6721 0.140392C15.4849 -0.0467974 15.1817 -0.0467974 14.9946 0.140392C14.8074 0.327582 14.8074 0.630804 14.9946 0.817949L21.3641 7.18751H0.479182C0.214322 7.18751 0 7.40183 0 7.66669C0 7.93155 0.214322 8.14587 0.479182 8.14587H21.3641L14.9946 14.5154C14.8074 14.7026 14.8074 15.0058 14.9946 15.1929C15.0881 15.2865 15.2108 15.3333 15.3334 15.3333C15.456 15.3333 15.5785 15.2865 15.6722 15.1929L22.8597 8.00545C23.0468 7.8183 23.0468 7.51508 22.8596 7.32789Z" fill="#121212"/>
</svg>
