<svg width="17" height="17" viewBox="0 0 17 17" fill="none" xmlns="http://www.w3.org/2000/svg">
<path d="M0.590106 5.13814C0.91716 5.13814 1.18217 4.87305 1.18217 4.54608V2.0217L4.99542 5.83416C5.11107 5.94973 5.26256 6.00752 5.41405 6.00752C5.56562 6.00752 5.71718 5.94973 5.83275 5.83408C6.06397 5.60287 6.06397 5.22797 5.83267 4.99683L2.01926 1.18429H4.54419C4.87117 1.18429 5.13625 0.919202 5.13625 0.592227C5.13625 0.265253 4.87125 0.000167847 4.54419 0.000167847H0.590106C0.263053 0.000167847 -0.00195312 0.265253 -0.00195312 0.592227V4.54616C-0.00195312 4.87305 0.263053 5.13814 0.590106 5.13814Z" fill="black"/>
<path d="M16.4065 11.8619C16.0794 11.8619 15.8144 12.127 15.8144 12.4539V14.9784L11.8838 11.0478C11.6525 10.8165 11.2777 10.8165 11.0465 11.0478C10.8152 11.279 10.8152 11.6539 11.0465 11.885L14.977 15.8156H12.4527C12.1257 15.8156 11.8607 16.0807 11.8607 16.4076C11.8607 16.7346 12.1257 16.9997 12.4527 16.9997H16.4066C16.7336 16.9997 16.9986 16.7346 16.9986 16.4076V12.4539C16.9986 12.127 16.7335 11.8619 16.4065 11.8619Z" fill="black"/>
<path d="M5.11241 11.0478L1.18217 14.9783V12.4539C1.18217 12.127 0.91716 11.8619 0.590106 11.8619C0.263053 11.8619 -0.00195312 12.127 -0.00195312 12.4539V16.4078C-0.00195312 16.7348 0.263053 16.9998 0.590106 16.9998H4.5438C4.87078 16.9998 5.13586 16.7348 5.13586 16.4078C5.13586 16.0808 4.87085 15.8157 4.5438 15.8157H2.01942L5.94974 11.885C6.18096 11.6538 6.18096 11.2789 5.94967 11.0477C5.71861 10.8165 5.34371 10.8165 5.11241 11.0478Z" fill="black"/>
<path d="M16.4057 0.000167847H12.4519C12.1248 0.000167847 11.8598 0.265253 11.8598 0.592227C11.8598 0.919202 12.1248 1.18429 12.4519 1.18429H14.9763L11.1636 4.99723C10.9324 5.22845 10.9324 5.60334 11.1637 5.83456C11.2793 5.95013 11.4309 6.00791 11.5823 6.00791C11.7338 6.00791 11.8854 5.95005 12.001 5.83448L15.8138 2.02154V4.54608C15.8138 4.87305 16.0788 5.13814 16.4058 5.13814C16.7329 5.13814 16.9979 4.87305 16.9979 4.54608V0.592227C16.9978 0.265174 16.7327 0.000167847 16.4057 0.000167847Z" fill="black"/>
</svg>
