<svg width="185" height="48" viewBox="0 0 185 48" fill="none" xmlns="http://www.w3.org/2000/svg">
<g clip-path="url(#clip0_501_12640)">
<path d="M15.5918 1.24149C16.8396 1.91632 17.7637 2.7825 18.3622 3.83819C18.9606 4.89481 19.2603 5.97084 19.2603 7.06535C19.2603 8.15987 18.9606 9.2359 18.3622 10.2925C17.7628 11.3491 16.8461 12.2209 15.6103 12.9086C14.3745 13.5964 12.8399 13.9394 11.0056 13.9394H1.8722V25.3588H0V0.229248H11.0066C12.8149 0.229248 14.344 0.566662 15.5918 1.24149ZM15.515 2.48299C14.343 1.49016 12.7502 0.993746 10.7383 0.993746H1.8722V13.1758H10.7383C12.7002 13.1758 14.2413 12.6738 15.3624 11.6671C16.4835 10.6614 17.082 9.1148 17.1587 7.02653C17.2355 4.99002 16.687 3.4749 15.515 2.48207V2.48299Z" fill="#121212"/>
<path d="M24.4208 0.229248V25.3588H22.5098V0.229248H24.4208Z" fill="#121212"/>
<path d="M48.3814 0.229248V25.3588H47.6174L29.8851 3.24656V25.3597H29.1211V0.229248H29.8851L47.6174 22.3424V0.229248H48.3814Z" fill="#121212"/>
<path d="M62.4828 12.4889L71.9225 25.3597H69.5915L61.3368 14.1316L53.4262 25.3597H52.6621V0.229248H54.5732V22.4182L70.164 0.229248H71.1196L62.4828 12.4889Z" fill="#121212"/>
<path d="M82.8118 25.588C81.1042 25.588 79.4355 25.2256 77.8057 24.5C76.1749 23.7743 74.99 22.7242 74.2518 21.3495L74.7106 20.7385C75.3988 22.0623 76.519 23.0745 78.0739 23.7743C79.6279 24.475 81.2078 24.8244 82.8127 24.8244C84.5452 24.8244 85.9142 24.4177 86.9206 23.6024C87.927 22.7879 88.4302 21.6417 88.4302 20.1654C88.4302 19.02 87.9141 17.9948 86.8827 17.0907C85.8513 16.1876 84.2391 15.277 82.0487 14.36C80.1376 13.5456 78.641 12.8264 77.5587 12.2024C76.4755 11.5784 75.6477 10.8536 75.0751 10.0254C74.5016 9.19801 74.2148 8.1987 74.2148 7.02746C74.2148 5.55116 74.6024 4.28377 75.3803 3.22716C76.1573 2.17054 77.1961 1.36907 78.4948 0.820887C79.7944 0.273629 81.2078 0 82.7369 0C84.4694 0 86.1002 0.394729 87.6283 1.18419C89.1573 1.97364 90.2525 3.0432 90.9148 4.39193L90.4181 5.00298C89.7807 3.6792 88.7364 2.642 87.2842 1.89044C85.8319 1.13981 84.3417 0.763573 82.8127 0.763573C81.0293 0.763573 79.6279 1.1204 78.6086 1.83313C77.5892 2.54586 77.0805 3.58953 77.0805 4.96507C77.0805 5.75453 77.3154 6.43583 77.7872 7.00805C78.258 7.58119 78.8953 8.08408 79.6982 8.51671C80.5002 8.95026 81.7046 9.53542 83.3094 10.2731L84.4564 10.8074C86.9271 11.9278 88.7558 13.0353 89.9398 14.1298C91.1248 15.2252 91.7168 16.5869 91.7168 18.2167C91.7168 19.5913 91.3542 20.8393 90.628 21.9597C89.9019 23.0801 88.8696 23.9647 87.5321 24.6137C86.1945 25.2626 84.6211 25.588 82.8127 25.588H82.8118Z" fill="#121212"/>
<path d="M110.175 0.229248H114.493V25.3588H110.175V13.2146H99.5122V25.3597H95.1934V0.229248H99.5122V12.4501H110.175V0.229248Z" fill="#121212"/>
<path d="M135.282 25.3588L132.072 18.0641H121.448L118.085 25.3588H117.244L128.899 0L139.982 25.3588H135.281H135.282ZM121.791 17.3006H131.766L126.912 6.18716L121.791 17.3006Z" fill="#121212"/>
<path d="M161.88 25.3588H157.447L156.339 19.974C155.957 18.1409 155.326 16.6895 154.448 15.62C153.569 14.5504 152.53 13.9911 151.333 13.9394H146.824V25.3588H142.506V0.229248H153.512C155.321 0.229248 156.85 0.566662 158.098 1.24149C159.345 1.91632 160.27 2.7825 160.868 3.83819C161.467 4.89481 161.766 5.97084 161.766 7.06535C161.766 8.5167 161.263 9.88577 160.257 11.1707C159.25 12.4566 157.779 13.3034 155.843 13.7101C157.039 14.0919 158.059 14.7408 158.9 15.6579C159.74 16.5749 160.249 17.5039 160.429 18.4459L161.881 25.3588H161.88ZM146.823 13.1758H152.25C153.116 13.1758 153.95 12.9086 154.753 12.3734C155.556 11.8391 156.205 11.1005 156.702 10.1585C157.199 9.21648 157.447 8.17281 157.447 7.02653C157.447 5.88024 157.199 4.88187 156.702 3.9519C156.205 3.02285 155.556 2.29718 154.753 1.77488C153.951 1.25351 153.116 0.991897 152.25 0.991897H146.823V13.1758Z" fill="#121212"/>
<path d="M175.523 12.4889L185.001 25.3597H179.612L172.925 16.2319L166.504 25.3597H165.74V0.229248H170.058V18.9812L183.242 0.229248H184.16L175.523 12.4889Z" fill="#121212"/>
<path d="M80.8286 45H81.6052L81.5764 35.8972L85.5167 44.9856V45H86.2357L90.1903 35.7678V45H90.9525V35.1925H89.7301L85.8618 44.1659L82.0078 35.1925H80.843L80.8286 45ZM93.3437 45H100.39V44.3385H94.1346V40.7578H99.8868V40.1394H94.1346V35.854H100.174V35.1925H93.3437V45ZM102.278 45H103.069V41.0166H107.038L109.382 45H110.273L107.915 40.9879C109.281 40.7578 110.101 39.7224 110.101 38.1405C110.101 36.3142 109.066 35.1925 107.383 35.1925H102.278V45ZM103.069 40.427V35.7965H107.354C108.577 35.7965 109.324 36.6881 109.324 38.1405C109.324 39.5498 108.605 40.4126 107.412 40.4126C107.412 40.4126 105.686 40.427 103.069 40.427ZM120.761 42.6991C119.869 43.677 117.985 44.4392 116.447 44.4392C114.016 44.4392 112.133 42.8717 112.133 40.0963C112.133 37.3208 114.016 35.7534 116.447 35.7534C117.827 35.7534 119.697 36.4724 120.761 37.4071L121.149 36.7744C120.085 35.8253 118.043 35.1063 116.447 35.1063C113.527 35.1063 111.298 36.8319 111.284 40.0963C111.27 43.375 113.527 45.1007 116.447 45.1007C118.187 45.1007 120.229 44.3241 121.149 43.3175L120.761 42.6991ZM122.606 45H123.396V40.8297H130.285V45H131.076V35.1925H130.285V40.1826H123.396V35.1925H122.606V45ZM136.994 43.1881C137.771 44.0221 139.755 45.1007 141.021 45.1007C143.163 45.1007 144.457 43.8639 144.457 42.2677C144.457 40.7578 143.048 39.7368 140.733 39.5642C138.907 39.4348 137.799 38.7445 137.799 37.7523C137.799 36.6593 138.82 35.8109 140.158 35.8109C140.963 35.8109 142.66 36.5874 143.465 37.1627L143.882 36.5587C143.019 35.9403 141.121 35.1063 140.158 35.1063C138.375 35.1063 136.994 36.2998 136.994 37.8385C136.994 39.2478 138.331 40.1969 140.517 40.3551C142.487 40.4989 143.681 41.2323 143.681 42.2965C143.681 43.4757 142.674 44.396 141.021 44.396C140 44.396 138.216 43.3462 137.469 42.5409L136.994 43.1881ZM148.934 35.8253V45H149.725V35.8253H153.895V35.1925H144.764V35.8253H148.934ZM155.639 40.0963C155.639 37.7523 157.724 35.7246 160.14 35.7246C162.556 35.7246 164.641 37.7523 164.641 40.0963C164.641 42.5697 162.686 44.4679 160.14 44.4679C157.595 44.4679 155.639 42.5697 155.639 40.0963ZM154.791 40.0963C154.791 42.9292 157.12 45.1007 160.14 45.1007C163.16 45.1007 165.475 42.9292 165.475 40.0963C165.475 37.4215 163.002 35.1063 160.14 35.1063C157.264 35.1063 154.791 37.4215 154.791 40.0963ZM167.435 45H168.226V41.0166H172.195L174.539 45H175.431L173.072 40.9879C174.438 40.7578 175.258 39.7224 175.258 38.1405C175.258 36.3142 174.223 35.1925 172.54 35.1925H167.435V45ZM168.226 40.427V35.7965H172.511C173.734 35.7965 174.482 36.6881 174.482 38.1405C174.482 39.5498 173.763 40.4126 172.569 40.4126C172.569 40.4126 170.843 40.427 168.226 40.427ZM176.93 45H183.977V44.3385H177.721V40.7578H183.473V40.1394H177.721V35.854H183.761V35.1925H176.93V45Z" fill="#121212"/>
</g>
<defs>
<clipPath id="clip0_501_12640">
<rect width="185" height="48" fill="white"/>
</clipPath>
</defs>
</svg>
