<svg width="68" height="68" viewBox="0 0 68 68" fill="none" xmlns="http://www.w3.org/2000/svg">
<path d="M34.3683 24.1062H8.87047C8.32036 24.1062 7.87451 24.5522 7.87451 25.1022C7.87451 25.6523 8.32036 26.0981 8.87047 26.0981H34.3685C34.9186 26.0981 35.3644 25.6521 35.3644 25.1022C35.3644 24.5522 34.9186 24.1062 34.3683 24.1062Z" fill="#958677"/>
<path d="M34.3683 31.105H8.87047C8.32036 31.105 7.87451 31.551 7.87451 32.1009C7.87451 32.6509 8.32036 33.0969 8.87047 33.0969H34.3685C34.9186 33.0969 35.3644 32.6509 35.3644 32.1009C35.3644 31.551 34.9186 31.105 34.3683 31.105Z" fill="#958677"/>
<path d="M34.3683 38.1035H8.87047C8.32036 38.1035 7.87451 38.5495 7.87451 39.0995C7.87451 39.6495 8.32036 40.0954 8.87047 40.0954H34.3685C34.9186 40.0954 35.3644 39.6495 35.3644 39.0995C35.3644 38.5495 34.9186 38.1035 34.3683 38.1035Z" fill="#958677"/>
<path d="M35.3644 46.0983C35.3644 45.5481 34.9186 45.1023 34.3685 45.1023H8.87047C8.32036 45.1023 7.87451 45.5483 7.87451 46.0983C7.87451 46.6482 8.32036 47.0942 8.87047 47.0942H34.3685C34.9186 47.0942 35.3644 46.6484 35.3644 46.0983Z" fill="#958677"/>
<path d="M8.87047 55.3591C8.32036 55.3591 7.87451 55.8051 7.87451 56.3551C7.87451 56.9051 8.32036 57.3511 8.87047 57.3511H21.6521C22.2022 57.3511 22.648 56.9051 22.648 56.3551C22.648 55.8051 22.2022 55.3591 21.6521 55.3591H8.87047Z" fill="#958677"/>
<path d="M45.8464 12.3321V9.10028C45.8464 7.8691 44.8449 6.86743 43.6136 6.86743H23.1648C21.9337 6.86743 20.9321 7.8691 20.9321 9.10028V12.3321C20.9321 13.5633 21.9337 14.5648 23.1648 14.5648H24.8917C25.4418 14.5648 25.8876 14.1189 25.8876 13.5689C25.8876 13.0188 25.4418 12.5729 24.8917 12.5729H23.1648C23.0322 12.5729 22.9242 12.4649 22.9242 12.3323V9.10028C22.9242 8.9676 23.0322 8.85949 23.1648 8.85949H43.6136C43.7464 8.85949 43.8544 8.96746 43.8544 9.10028V12.3321C43.8544 12.4648 43.7464 12.5728 43.6136 12.5728H29.5481C28.998 12.5728 28.5521 13.0188 28.5521 13.5688C28.5521 14.1189 28.998 14.5647 29.5481 14.5647H43.6137C44.8449 14.565 45.8464 13.5633 45.8464 12.3321Z" fill="#958677"/>
<path d="M53.2934 60.7346C52.7433 60.7346 52.2975 61.1806 52.2975 61.7306V63.0719C52.2975 64.6907 50.9804 66.0079 49.3612 66.0079H5.2991C3.68025 66.0079 2.36302 64.6908 2.36302 63.0719V15.1975C2.36302 14.9819 2.38825 14.7705 2.43327 14.5648H11.5021C13.3955 14.5648 14.9358 13.0244 14.9358 11.131V2.06231C15.1416 2.01729 15.3529 1.99205 15.5684 1.99205H49.3611C50.9801 1.99205 52.2973 3.30916 52.2973 4.92814V18.1884C52.2973 18.7385 52.7432 19.1844 53.2933 19.1844C53.8434 19.1844 54.2892 18.7384 54.2892 18.1884V4.92801C54.2894 2.2108 52.0786 0 49.3612 0H15.5686C14.2523 0 13.0146 0.512656 12.0838 1.44341L1.81437 11.7129C0.883617 12.6436 0.371094 13.8812 0.371094 15.1976V63.072C0.371094 65.7893 2.58176 68 5.2991 68H49.3612C52.0786 68 54.2894 65.7892 54.2894 63.072V61.7307C54.2894 61.1806 53.8435 60.7346 53.2934 60.7346ZM12.9439 3.40053V11.131C12.9439 11.926 12.2971 12.5728 11.5021 12.5728H3.77163L12.9439 3.40053Z" fill="#958677"/>
<path d="M66.9347 35.5937C67.6338 34.5674 67.8147 33.3016 67.431 32.1206C67.0473 30.9396 66.1568 30.0219 64.988 29.6028C64.2127 29.3246 63.6954 28.6128 63.6707 27.7893C63.6331 26.5482 63.0353 25.4177 62.0306 24.6878C61.0261 23.958 59.766 23.739 58.5744 24.0867C57.7831 24.3175 56.9468 24.0455 56.4426 23.394C55.6828 22.4119 54.5348 21.8486 53.293 21.8486C52.0513 21.8486 50.9031 22.4119 50.1432 23.394C49.639 24.0456 48.8022 24.3172 48.0116 24.0867C46.8198 23.7387 45.5598 23.958 44.5551 24.6878C43.5505 25.4177 42.953 26.5481 42.9153 27.7892C42.8904 28.6126 42.3733 29.3244 41.5978 29.6026C40.429 30.0218 39.5385 30.9396 39.1549 32.1205C38.7713 33.3015 38.9521 34.5674 39.6513 35.5935C40.115 36.2745 40.115 37.1542 39.6513 37.835C38.9521 38.8613 38.7713 40.1271 39.1549 41.3081C39.5385 42.489 40.429 43.4068 41.5978 43.826C42.3733 44.1043 42.8906 44.816 42.9153 45.6395C42.9499 46.7811 43.4731 47.8539 44.351 48.5823C44.9302 49.0631 45.626 49.3639 46.3542 49.4645V58.5326C46.3542 59.2978 46.7692 60.005 47.4371 60.3781C48.1043 60.7509 48.9244 60.7343 49.5763 60.3328L53.2294 58.084C53.2889 58.0472 53.3243 58.0638 53.3571 58.084L57.0099 60.3328C57.6616 60.7339 58.4814 60.7511 59.1492 60.3779C59.8173 60.0047 60.2322 59.2975 60.2322 58.5325V49.4642C60.9601 49.3638 61.6559 49.063 62.2351 48.5823C63.1131 47.8539 63.6364 46.7813 63.6711 45.6393C63.6958 44.8159 64.2131 44.104 64.9884 43.8259C66.1573 43.4068 67.0478 42.4889 67.4314 41.3079C67.8151 40.127 67.6342 38.8611 66.9351 37.8349C66.4708 37.1543 66.4708 36.2746 66.9347 35.5937ZM58.0539 58.6365L54.401 56.3877C53.722 55.9698 52.8645 55.9691 52.1848 56.3877L48.5319 58.6364C48.4488 58.687 48.3461 58.6287 48.3461 58.5325V49.2753C49.0309 49.1961 49.7098 49.4747 50.1432 50.0348C50.9033 51.0168 52.0513 51.58 53.2931 51.58C54.5348 51.58 55.6828 51.0168 56.4426 50.0348C56.8761 49.4746 57.5552 49.1961 58.2398 49.2753V58.5325C58.2398 58.6293 58.1358 58.6871 58.0539 58.6365ZM65.2885 38.9569C65.638 39.4698 65.7283 40.1024 65.5366 40.6926C65.3448 41.2828 64.8997 41.7416 64.3155 41.9511C62.764 42.5076 61.7294 43.9318 61.6796 45.5793C61.6619 46.1585 61.4073 46.6806 60.9628 47.0495C60.463 47.4643 59.7862 47.6208 59.1325 47.43C57.5503 46.9684 55.8759 47.5124 54.8671 48.8158C54.4874 49.3066 53.9135 49.5881 53.2928 49.5881C52.6723 49.5881 52.0985 49.3067 51.7185 48.8158C50.9483 47.8203 49.79 47.2678 48.5811 47.2678C48.2068 47.2678 47.8275 47.3207 47.4535 47.4299C46.7934 47.6222 46.1186 47.461 45.6228 47.0494C45.1783 46.6805 44.9237 46.1584 44.9063 45.5793C44.8563 43.9318 43.8217 42.5076 42.2701 41.951C41.686 41.7414 41.241 41.2828 41.0491 40.6926C40.8573 40.1024 40.9477 39.4697 41.2972 38.9567C42.2252 37.5945 42.2252 35.8343 41.2972 34.4721C40.9477 33.9591 40.8573 33.3264 41.0491 32.7361C41.2409 32.1459 41.686 31.6871 42.2701 31.4777C43.8217 30.9211 44.8563 29.4969 44.9063 27.8494C44.925 27.229 45.2235 26.664 45.7257 26.2993C46.2276 25.9345 46.8571 25.825 47.4533 25.9988C49.0351 26.4605 50.7099 25.9164 51.7185 24.613C52.0983 24.1221 52.6721 23.8406 53.2928 23.8406C53.9135 23.8406 54.4872 24.122 54.8671 24.6129C55.8758 25.9164 57.5497 26.4604 59.1323 25.9988C59.7281 25.8248 60.3577 25.9343 60.8598 26.2992C61.362 26.6639 61.6608 27.229 61.6794 27.8492C61.7294 29.4968 62.764 30.9211 64.3155 31.4775C64.8997 31.687 65.3446 32.1457 65.5366 32.7359C65.7283 33.3262 65.638 33.959 65.2885 34.4718C64.3602 35.8342 64.3602 37.5946 65.2885 38.9569Z" fill="#958677"/>
<path d="M53.2936 28.3665C48.6906 28.3665 44.9458 32.1112 44.9458 36.7143C44.9458 41.3173 48.6906 45.062 53.2936 45.062C57.8965 45.062 61.6413 41.3173 61.6413 36.7143C61.6413 32.1112 57.8965 28.3665 53.2936 28.3665ZM53.2936 43.0701C49.7889 43.0701 46.9377 40.2189 46.9377 36.7144C46.9377 33.2099 49.7889 30.3585 53.2936 30.3585C56.7983 30.3585 59.6493 33.2097 59.6493 36.7144C59.6493 40.219 56.7981 43.0701 53.2936 43.0701Z" fill="#958677"/>
</svg>
