<svg width="68" height="68" viewBox="0 0 68 68" fill="none" xmlns="http://www.w3.org/2000/svg">
<g clip-path="url(#clip0_403_3562)">
<path d="M59.4767 42.0705C60.3338 39.4251 60.7691 36.6662 60.7691 33.8548C60.7691 31.0538 60.3369 28.3047 59.485 25.6676C61.3584 24.9641 63.0616 23.8378 64.4759 22.34C66.9199 19.7528 68.2097 16.3681 68.108 12.8107C67.8974 5.46607 61.7517 -0.336701 54.406 -0.127106C50.8481 -0.025421 47.5433 1.45575 45.0992 4.04352C43.865 5.35038 42.926 6.86061 42.3112 8.49379C39.6736 7.64244 36.9245 7.21028 34.1225 7.21028C31.3189 7.21028 28.5677 7.64347 25.9286 8.49586C24.0251 3.45884 19.1536 -0.132812 13.4582 -0.132812C6.11042 -0.132812 0.132812 5.8448 0.132812 13.192C0.132812 18.8869 3.72498 23.7579 8.762 25.6609C7.9091 28.3005 7.47642 31.0517 7.47642 33.8548C7.47642 36.6662 7.91169 39.4251 8.76875 42.0705C3.72809 43.9719 0.132812 48.845 0.132812 54.5424C0.132812 56.5481 0.567567 58.4765 1.42514 60.2736C1.66223 60.7701 2.25678 60.9807 2.75327 60.7436C3.24924 60.5065 3.45987 59.912 3.2233 59.4155C2.49439 57.8882 2.125 56.2488 2.125 54.5424C2.125 48.294 7.20924 43.2103 13.4582 43.2103C19.7076 43.2103 24.7919 48.294 24.7919 54.5424C24.7919 60.7914 19.7076 65.8751 13.4582 65.8751C10.6079 65.8751 7.88368 64.8131 5.78773 62.8847C5.38254 62.5122 4.7522 62.5387 4.38022 62.9434C4.00773 63.3485 4.03367 63.9784 4.43885 64.3509C6.90366 66.6185 10.1067 67.8673 13.4582 67.8673C19.1619 67.8673 24.0396 64.2647 25.9369 59.2163C28.5729 60.0671 31.3215 60.4993 34.1225 60.4993C36.924 60.4993 39.6731 60.0671 42.3091 59.2168C44.2064 64.2653 49.0841 67.8673 54.7878 67.8673C62.1356 67.8673 68.1132 61.8897 68.1132 54.5424C68.1132 48.845 64.5179 43.9714 59.4767 42.0705ZM46.5477 5.41108C48.626 3.21033 51.4374 1.95069 54.4636 1.86405C54.5736 1.86093 54.6825 1.85938 54.7925 1.85938C60.8925 1.85938 65.941 6.73142 66.1163 12.8673C66.203 15.8929 65.1062 18.7712 63.0279 20.9725C60.9496 23.1732 58.1382 24.4329 55.1121 24.5195C55.0021 24.5226 54.8926 24.5242 54.7831 24.5242C48.6831 24.5242 43.6347 19.6521 43.4593 13.5163C43.3722 10.4906 44.4694 7.61183 46.5477 5.41108ZM41.7504 57.3035C39.2959 58.1014 36.7346 58.5071 34.1225 58.5071C31.5114 58.5071 28.95 58.1014 26.4956 57.3035C26.6839 56.4122 26.7841 55.4887 26.7841 54.5424C26.7841 47.1952 20.8059 41.2181 13.4582 41.2181C12.5062 41.2181 11.5775 41.3193 10.6816 41.5097C9.8769 39.0464 9.46861 36.4758 9.46861 33.8548C9.46861 31.2421 9.87483 28.6798 10.6743 26.2227C11.5723 26.4147 12.5036 26.5164 13.4582 26.5164C15.7409 26.5164 17.993 25.9291 19.9722 24.8183C20.4516 24.5491 20.6223 23.9421 20.353 23.4622C20.0838 22.9823 19.4768 22.8121 18.9969 23.0814C17.3149 24.0251 15.3995 24.5242 13.4582 24.5242C7.20872 24.5242 2.125 19.4405 2.125 13.1915C2.125 6.94309 7.20924 1.85938 13.4582 1.85938C19.7076 1.85938 24.7919 6.94309 24.7919 13.192C24.7919 15.8063 23.8803 18.3567 22.2254 20.3743C21.8762 20.7992 21.9385 21.4269 22.3639 21.7761C22.7888 22.1247 23.4165 22.063 23.7657 21.6376C25.7117 19.2651 26.7841 16.2654 26.7841 13.1915C26.7841 12.2374 26.6819 11.3062 26.4904 10.4082C28.9469 9.60869 31.5098 9.20247 34.1225 9.20247C36.7346 9.20247 39.2965 9.60817 41.7519 10.4066C41.5346 11.4349 41.437 12.4958 41.4676 13.5734C41.6746 20.7883 47.6097 26.5169 54.7826 26.5164C54.9108 26.5164 55.04 26.5148 55.1691 26.5107C55.9857 26.4873 56.7888 26.3903 57.5717 26.2248C58.3706 28.6808 58.7769 31.2431 58.7769 33.8548C58.7769 36.4758 58.3681 39.0464 57.5639 41.5097C56.6679 41.3188 55.7393 41.2181 54.7878 41.2181C47.4401 41.2181 41.4625 47.1952 41.4625 54.5424C41.4625 55.4892 41.5621 56.4127 41.7504 57.3035ZM54.7878 65.8751C48.5384 65.8751 43.4546 60.7914 43.4546 54.5429C43.4546 48.294 48.5384 43.2103 54.7878 43.2103C61.0373 43.2103 66.121 48.294 66.121 54.5429C66.121 60.7914 61.0373 65.8751 54.7878 65.8751Z" fill="#958677"/>
<path d="M20.2409 7.31184C19.8974 7.07838 19.4456 7.08201 19.1063 7.3217C18.767 7.56086 18.4038 7.7606 18.022 7.91884C16.6534 6.84803 14.67 6.86049 13.3113 8.04179C12.6052 8.65605 12.1637 9.50533 12.061 10.4226C10.5995 10.2052 9.27864 9.40053 8.41225 8.16682C8.20576 7.87318 7.85713 7.71391 7.50071 7.74815C7.14326 7.78291 6.8325 8.00703 6.68672 8.33491C6.65818 8.39924 5.9879 9.93074 6.0735 11.8052C6.13887 13.2396 6.65196 15.0886 8.52327 16.5164C7.84935 16.7338 7.13756 16.8344 6.42836 16.8059C5.96662 16.7877 5.55418 17.0881 5.42967 17.5322C5.30516 17.9763 5.50178 18.4479 5.90489 18.672C7.46751 19.5399 9.14168 19.9747 10.7775 19.9747C12.3489 19.9747 13.8845 19.5731 15.2511 18.7695C16.9647 17.7615 18.2098 16.2181 18.8858 14.3333C18.907 14.2855 18.9247 14.2357 18.9387 14.1844C19.2863 13.1608 19.4684 12.0397 19.4684 10.8506C19.4684 10.7987 19.4668 10.7463 19.4648 10.6944C20.0334 10.0241 20.4391 9.22984 20.6487 8.37123C20.7462 7.9676 20.5843 7.5453 20.2409 7.31184ZM17.4456 10.5398C17.4653 10.6436 17.4757 10.751 17.4757 10.8537C17.4757 11.8301 17.3304 12.7343 17.0539 13.5514C17.0388 13.5888 17.0264 13.6277 17.016 13.6677C16.4988 15.1151 15.5572 16.2777 14.241 17.0523C13.0363 17.7615 11.6537 18.0634 10.2446 17.9612C10.5673 17.8014 10.8791 17.6199 11.1774 17.4175C11.4763 17.2142 11.6423 16.865 11.6101 16.5044C11.578 16.1439 11.3528 15.8295 11.0223 15.6827C9.16243 14.8562 8.16789 13.5416 8.06673 11.7761C8.04597 11.4145 8.06413 11.0674 8.10304 10.7494C9.47319 11.8944 11.2283 12.519 13.0602 12.4718C13.6002 12.4578 14.0308 12.0163 14.0308 11.4762V10.8718C14.0308 10.8677 14.0308 10.863 14.0308 10.8584C14.0241 10.3546 14.2378 9.87575 14.6186 9.54527C15.3304 8.92635 16.4127 9.00157 17.0316 9.71336C17.1561 9.85603 17.3148 9.9572 17.4881 10.0106C17.4274 10.1777 17.4113 10.3598 17.4456 10.5398Z" fill="#958677"/>
<path d="M51.5098 13.9775H52.9219V19.9172C52.9219 20.4671 53.3681 20.9133 53.918 20.9133C54.4685 20.9133 54.9141 20.4671 54.9141 19.9172V13.9775H56.4524C57.0023 13.9775 57.4485 13.5313 57.4485 12.9814C57.4485 12.4314 57.0023 11.9853 56.4524 11.9853H54.9141V9.19828C54.9141 8.24161 55.6928 7.46289 56.65 7.46289H57.9398C58.4897 7.46289 58.9359 7.01673 58.9359 6.4668C58.9359 5.91635 58.4897 5.4707 57.9398 5.4707H56.65C54.5945 5.4707 52.9219 7.14279 52.9219 9.19828V11.9853H51.5098C50.9598 11.9853 50.5137 12.4314 50.5137 12.9814C50.5137 13.5313 50.9598 13.9775 51.5098 13.9775Z" fill="#958677"/>
<path d="M11.1978 59.6941C11.4349 59.6941 11.672 59.6329 11.8832 59.5109L18.6633 55.5945C19.0862 55.3507 19.3487 54.8957 19.3487 54.4075C19.3487 53.9198 19.0862 53.4649 18.6633 53.221L11.8832 49.3046C11.4608 49.0602 10.9358 49.0602 10.513 49.3046C10.0902 49.5484 9.82715 50.0034 9.82715 50.4916V58.3239C9.82715 58.8121 10.0902 59.2671 10.513 59.5109C10.7242 59.6334 10.9607 59.6941 11.1978 59.6941ZM11.8193 51.5686L16.7355 54.408L11.8193 57.2474V51.5686Z" fill="#958677"/>
<path d="M59.1159 47.4878H50.4592C48.9558 47.4878 47.7324 48.7111 47.7324 50.2151V58.8703C47.7324 60.3743 48.9558 61.5976 50.4592 61.5976H59.1159C60.6194 61.5976 61.8427 60.3743 61.8427 58.8703V50.2151C61.8427 48.7111 60.6194 47.4878 59.1159 47.4878ZM59.8505 58.8703C59.8505 59.276 59.5211 59.6054 59.1159 59.6054H50.4592C50.054 59.6054 49.7246 59.276 49.7246 58.8703V50.2151C49.7246 49.8099 50.054 49.48 50.4592 49.48H59.1159C59.5211 49.48 59.8505 49.8099 59.8505 50.2151V58.8703Z" fill="#958677"/>
<path d="M54.7875 51.5317C53.1273 51.5317 51.7764 52.8827 51.7764 54.5429C51.7764 56.203 53.1273 57.5534 54.7875 57.5534C56.4476 57.5534 57.7986 56.203 57.7986 54.5429C57.7986 52.8827 56.4476 51.5317 54.7875 51.5317ZM54.7875 55.5613C54.2256 55.5613 53.7686 55.1042 53.7686 54.5429C53.7686 53.981 54.2256 53.5239 54.7875 53.5239C55.3493 53.5239 55.8064 53.981 55.8064 54.5429C55.8064 55.1042 55.3493 55.5613 54.7875 55.5613Z" fill="#958677"/>
<path d="M41.3316 23.5203C40.7811 23.5203 40.3355 23.9664 40.3355 24.5164V24.963C38.9316 25.7905 37.4556 26.5049 35.9381 27.0896C34.7231 27.5576 33.4681 27.9467 32.1986 28.2512C32.0035 28.1013 31.7608 28.0105 31.4962 28.0105H26.9354C25.8335 28.0105 24.9375 28.907 24.9375 30.0084V35.2394C24.9375 36.3414 25.8335 37.2373 26.9354 37.2373H27.8469L28.1924 43.879C28.2199 44.4108 28.6599 44.8232 29.1865 44.8232C29.2036 44.8232 29.2212 44.8227 29.2389 44.8217C29.7883 44.7931 30.2106 44.3246 30.182 43.7752L29.8417 37.2373H31.4962C31.7602 37.2373 32.0035 37.1471 32.1981 36.9971C33.0064 37.1922 33.8105 37.4215 34.5965 37.6825C35.1189 37.8552 35.6824 37.5725 35.8556 37.0506C36.0289 36.5281 35.7457 35.9642 35.2237 35.7914C34.3797 35.5113 33.5164 35.2648 32.6479 35.0558V30.1931C34.0082 29.8673 35.3524 29.4496 36.6541 28.9485C37.9127 28.4634 39.1453 27.8953 40.335 27.252V37.9984C39.8971 37.7618 39.4545 37.5362 39.0089 37.3219C38.5129 37.0832 37.9179 37.2918 37.6797 37.7878C37.4411 38.2837 37.6496 38.8788 38.1456 39.1175C38.8875 39.4744 39.6211 39.8676 40.335 40.2868V40.7314C40.335 41.2819 40.7811 41.7275 41.331 41.7275C41.881 41.7275 42.3271 41.2819 42.3271 40.7314V24.5164C42.3277 23.9664 41.8815 23.5203 41.3316 23.5203ZM30.6562 35.2446L26.9297 35.2394L26.9354 30.0027H30.6562V35.2446Z" fill="#958677"/>
</g>
<defs>
<clipPath id="clip0_403_3562">
<rect width="68" height="68" fill="white"/>
</clipPath>
</defs>
</svg>
