<svg width="72" height="72" viewBox="0 0 72 72" fill="none" xmlns="http://www.w3.org/2000/svg">
<path d="M26.8833 28.15C26.8833 28.0428 26.9044 27.9365 26.9454 27.8375C26.9865 27.7384 27.0466 27.6483 27.1225 27.5725C27.1983 27.4966 27.2883 27.4365 27.3874 27.3955C27.4865 27.3544 27.5927 27.3333 27.7 27.3333H41.5833C41.7999 27.3333 42.0076 27.4194 42.1608 27.5725C42.3139 27.7257 42.4 27.9334 42.4 28.15C42.4 28.3666 42.3139 28.5743 42.1608 28.7275C42.0076 28.8806 41.7999 28.9667 41.5833 28.9667H27.7C27.5927 28.9667 27.4865 28.9456 27.3874 28.9046C27.2883 28.8635 27.1983 28.8034 27.1225 28.7275C27.0466 28.6517 26.9865 28.5617 26.9454 28.4626C26.9044 28.3635 26.8833 28.2573 26.8833 28.15ZM27.7 19.1667H35.05C35.2666 19.1667 35.4743 19.0806 35.6275 18.9275C35.7806 18.7743 35.8667 18.5666 35.8667 18.35C35.8667 18.1334 35.7806 17.9257 35.6275 17.7725C35.4743 17.6194 35.2666 17.5333 35.05 17.5333H27.7C27.4834 17.5333 27.2757 17.6194 27.1225 17.7725C26.9694 17.9257 26.8833 18.1334 26.8833 18.35C26.8833 18.5666 26.9694 18.7743 27.1225 18.9275C27.2757 19.0806 27.4834 19.1667 27.7 19.1667ZM27.7 24.0667H32.6C32.8166 24.0667 33.0243 23.9806 33.1775 23.8275C33.3306 23.6743 33.4167 23.4666 33.4167 23.25C33.4167 23.0334 33.3306 22.8257 33.1775 22.6725C33.0243 22.5194 32.8166 22.4333 32.6 22.4333H27.7C27.4834 22.4333 27.2757 22.5194 27.1225 22.6725C26.9694 22.8257 26.8833 23.0334 26.8833 23.25C26.8833 23.4666 26.9694 23.6743 27.1225 23.8275C27.2757 23.9806 27.4834 24.0667 27.7 24.0667ZM41.5833 22.4333H35.8667C35.6501 22.4333 35.4423 22.5194 35.2892 22.6725C35.136 22.8257 35.05 23.0334 35.05 23.25C35.05 23.4666 35.136 23.6743 35.2892 23.8275C35.4423 23.9806 35.6501 24.0667 35.8667 24.0667H41.5833C41.7999 24.0667 42.0076 23.9806 42.1608 23.8275C42.3139 23.6743 42.4 23.4666 42.4 23.25C42.4 23.0334 42.3139 22.8257 42.1608 22.6725C42.0076 22.5194 41.7999 22.4333 41.5833 22.4333ZM30.9667 37.1333H18.7167C18.5001 37.1333 18.2923 37.2194 18.1392 37.3725C17.986 37.5257 17.9 37.7334 17.9 37.95C17.9 38.1666 17.986 38.3743 18.1392 38.5275C18.2923 38.6806 18.5001 38.7667 18.7167 38.7667H30.9667C31.1833 38.7667 31.391 38.6806 31.5441 38.5275C31.6973 38.3743 31.7833 38.1666 31.7833 37.95C31.7833 37.7334 31.6973 37.5257 31.5441 37.3725C31.391 37.2194 31.1833 37.1333 30.9667 37.1333ZM31.7833 32.2333H27.7C27.4834 32.2333 27.2757 32.3194 27.1225 32.4725C26.9694 32.6257 26.8833 32.8334 26.8833 33.05C26.8833 33.2666 26.9694 33.4743 27.1225 33.6275C27.2757 33.7806 27.4834 33.8667 27.7 33.8667H31.7833C31.9999 33.8667 32.2076 33.7806 32.3608 33.6275C32.514 33.4743 32.6 33.2666 32.6 33.05C32.6 32.8334 32.514 32.6257 32.3608 32.4725C32.2076 32.3194 31.9999 32.2333 31.7833 32.2333ZM18.7167 48.5667H30.9667C31.1833 48.5667 31.391 48.4806 31.5441 48.3275C31.6973 48.1743 31.7833 47.9666 31.7833 47.75C31.7833 47.5334 31.6973 47.3257 31.5441 47.1725C31.391 47.0194 31.1833 46.9333 30.9667 46.9333H18.7167C18.5001 46.9333 18.2923 47.0194 18.1392 47.1725C17.986 47.3257 17.9 47.5334 17.9 47.75C17.9 47.9666 17.986 48.1743 18.1392 48.3275C18.2923 48.4806 18.5001 48.5667 18.7167 48.5667ZM18.7167 43.6667H23.6167C23.8333 43.6667 24.041 43.5806 24.1941 43.4275C24.3473 43.2743 24.4333 43.0666 24.4333 42.85C24.4333 42.6334 24.3473 42.4257 24.1941 42.2725C24.041 42.1194 23.8333 42.0333 23.6167 42.0333H18.7167C18.5001 42.0333 18.2923 42.1194 18.1392 42.2725C17.986 42.4257 17.9 42.6334 17.9 42.85C17.9 43.0666 17.986 43.2743 18.1392 43.4275C18.2923 43.5806 18.5001 43.6667 18.7167 43.6667ZM30.9667 42.0333H26.8833C26.6667 42.0333 26.459 42.1194 26.3059 42.2725C26.1527 42.4257 26.0667 42.6334 26.0667 42.85C26.0667 43.0666 26.1527 43.2743 26.3059 43.4275C26.459 43.5806 26.6667 43.6667 26.8833 43.6667H30.9667C31.1833 43.6667 31.391 43.5806 31.5441 43.4275C31.6973 43.2743 31.7833 43.0666 31.7833 42.85C31.7833 42.6334 31.6973 42.4257 31.5441 42.2725C31.391 42.1194 31.1833 42.0333 30.9667 42.0333ZM21.9833 21.6167C22.4164 21.6172 22.8315 21.7894 23.1377 22.0956C23.4439 22.4018 23.6162 22.817 23.6167 23.25C23.6167 23.4666 23.7027 23.6743 23.8559 23.8275C24.009 23.9806 24.2167 24.0667 24.4333 24.0667C24.6499 24.0667 24.8576 23.9806 25.0108 23.8275C25.164 23.6743 25.25 23.4666 25.25 23.25C25.2479 22.5278 25.0062 21.8266 24.5628 21.2565C24.1194 20.6863 23.4995 20.2793 22.8 20.0993V18.35C22.8 18.1334 22.714 17.9257 22.5608 17.7725C22.4076 17.6194 22.1999 17.5333 21.9833 17.5333C21.7667 17.5333 21.559 17.6194 21.4059 17.7725C21.2527 17.9257 21.1667 18.1334 21.1667 18.35V20.0993C20.3971 20.2967 19.7262 20.7683 19.2798 21.4255C18.8335 22.0827 18.6425 22.8803 18.7428 23.6684C18.8431 24.4565 19.2278 25.1808 19.8245 25.7053C20.4212 26.2298 21.1889 26.5183 21.9833 26.5167C22.3064 26.5167 22.6222 26.6125 22.8908 26.7919C23.1594 26.9714 23.3687 27.2265 23.4923 27.525C23.616 27.8234 23.6483 28.1518 23.5853 28.4687C23.5223 28.7855 23.3667 29.0765 23.1383 29.305C22.9098 29.5334 22.6188 29.6889 22.302 29.752C21.9851 29.815 21.6567 29.7826 21.3583 29.659C21.0598 29.5354 20.8047 29.326 20.6253 29.0574C20.4458 28.7888 20.35 28.4731 20.35 28.15C20.35 27.9334 20.264 27.7257 20.1108 27.5725C19.9576 27.4194 19.7499 27.3333 19.5333 27.3333C19.3167 27.3333 19.109 27.4194 18.9559 27.5725C18.8027 27.7257 18.7167 27.9334 18.7167 28.15C18.7188 28.8723 18.9605 29.5734 19.4039 30.1436C19.8472 30.7137 20.4672 31.1207 21.1667 31.3007V33.05C21.1667 33.2666 21.2527 33.4743 21.4059 33.6275C21.559 33.7806 21.7667 33.8667 21.9833 33.8667C22.1999 33.8667 22.4076 33.7806 22.5608 33.6275C22.714 33.4743 22.8 33.2666 22.8 33.05V31.3007C23.5695 31.1033 24.2405 30.6317 24.6868 29.9745C25.1332 29.3173 25.3241 28.5197 25.2238 27.7316C25.1235 26.9435 24.7389 26.2192 24.1422 25.6947C23.5455 25.1702 22.7778 24.8817 21.9833 24.8833C21.5501 24.8833 21.1347 24.7113 20.8284 24.405C20.5221 24.0986 20.35 23.6832 20.35 23.25C20.35 22.8168 20.5221 22.4014 20.8284 22.0951C21.1347 21.7888 21.5501 21.6167 21.9833 21.6167ZM32.6 54.2833C32.6001 54.3906 32.579 54.4968 32.538 54.5959C32.4969 54.695 32.4368 54.7851 32.3609 54.8609C32.2851 54.9368 32.195 54.9969 32.0959 55.038C31.9968 55.079 31.8906 55.1001 31.7833 55.1H17.0833C16.0008 55.0987 14.9629 54.6681 14.1974 53.9026C13.4319 53.1371 13.0013 52.0992 13 51.0167V15.0833C13.0013 14.0008 13.4319 12.9629 14.1974 12.1974C14.9629 11.4319 16.0008 11.0013 17.0833 11H38.5966C39.1331 10.9985 39.6646 11.1034 40.1603 11.3087C40.656 11.514 41.1061 11.8155 41.4844 12.1959L46.1037 16.816C46.4841 17.1942 46.7856 17.6441 46.991 18.1397C47.1963 18.6352 47.3013 19.1666 47.3 19.703V29.7833C47.3 29.9999 47.2139 30.2077 47.0608 30.3608C46.9076 30.514 46.6999 30.6 46.4833 30.6C46.2667 30.6 46.059 30.514 45.9059 30.3608C45.7527 30.2077 45.6667 29.9999 45.6667 29.7833V19.703C45.6652 19.5224 45.6438 19.3426 45.6029 19.1667H41.5833C40.9338 19.166 40.311 18.9076 39.8517 18.4483C39.3924 17.989 39.134 17.3662 39.1333 16.7167V12.697C38.9573 12.6561 38.7773 12.6348 38.5966 12.6333H17.0833C16.4338 12.6341 15.811 12.8924 15.3517 13.3517C14.8924 13.811 14.634 14.4338 14.6333 15.0833V51.0167C14.634 51.6662 14.8924 52.289 15.3517 52.7483C15.811 53.2076 16.4338 53.466 17.0833 53.4667H31.7833C31.8906 53.4666 31.9968 53.4877 32.0959 53.5287C32.195 53.5697 32.2851 53.6299 32.3609 53.7057C32.4368 53.7816 32.4969 53.8716 32.538 53.9707C32.579 54.0699 32.6001 54.1761 32.6 54.2833ZM40.7667 13.7879V16.7167C40.7669 16.9332 40.853 17.1408 41.0061 17.2939C41.1592 17.447 41.3668 17.5331 41.5833 17.5333H44.5115L40.7667 13.7879ZM58.7333 36.3167V55.9167C58.732 56.9992 58.3014 58.0371 57.5359 58.8026C56.7704 59.5681 55.7326 59.9987 54.65 60H38.3167C37.2341 59.9987 36.1962 59.5681 35.4307 58.8026C34.6652 58.0371 34.2346 56.9992 34.2333 55.9167V36.3167C34.2346 35.2341 34.6652 34.1962 35.4307 33.4307C36.1962 32.6652 37.2341 32.2346 38.3167 32.2333H54.65C55.7326 32.2346 56.7704 32.6652 57.5359 33.4307C58.3014 34.1962 58.732 35.2341 58.7333 36.3167ZM57.1 36.3167C57.0993 35.6671 56.8409 35.0444 56.3816 34.585C55.9223 34.1257 55.2995 33.8674 54.65 33.8667H38.3167C37.6671 33.8674 37.0443 34.1257 36.585 34.585C36.1257 35.0444 35.8674 35.6671 35.8667 36.3167V55.9167C35.8674 56.5662 36.1257 57.189 36.585 57.6483C37.0443 58.1076 37.6671 58.366 38.3167 58.3667H54.65C55.2995 58.366 55.9223 58.1076 56.3816 57.6483C56.8409 57.189 57.0993 56.5662 57.1 55.9167V36.3167ZM55.4667 36.3167V42.85C55.4667 42.9573 55.4456 43.0635 55.4046 43.1626C55.3636 43.2617 55.3034 43.3518 55.2276 43.4276C55.1517 43.5035 55.0617 43.5636 54.9626 43.6046C54.8635 43.6456 54.7573 43.6667 54.65 43.6667H38.3167C38.2094 43.6667 38.1032 43.6456 38.0041 43.6046C37.905 43.5636 37.8149 43.5035 37.7391 43.4276C37.6632 43.3518 37.6031 43.2617 37.562 43.1626C37.521 43.0635 37.4999 42.9573 37.5 42.85V36.3167C37.5 36.2094 37.5211 36.1032 37.5621 36.0041C37.6031 35.905 37.6633 35.815 37.7391 35.7391C37.815 35.6633 37.905 35.6031 38.0041 35.5621C38.1032 35.5211 38.2094 35.5 38.3167 35.5H54.65C54.7572 35.5 54.8634 35.5211 54.9625 35.5621C55.0616 35.6031 55.1517 35.6633 55.2275 35.7391C55.3034 35.815 55.3635 35.905 55.4045 36.0041C55.4456 36.1032 55.4667 36.2094 55.4667 36.3167ZM53.8333 37.1333H39.1333V42.0333H53.8333V37.1333ZM48.9333 46.1167V49.3833C48.9334 49.4906 48.9123 49.5968 48.8713 49.6959C48.8303 49.795 48.7701 49.8851 48.6943 49.9609C48.6184 50.0368 48.5284 50.0969 48.4293 50.138C48.3301 50.179 48.2239 50.2001 48.1167 50.2H44.85C44.7427 50.2001 44.6365 50.179 44.5374 50.138C44.4383 50.0969 44.3482 50.0368 44.2724 49.9609C44.1965 49.8851 44.1364 49.795 44.0954 49.6959C44.0543 49.5968 44.0333 49.4906 44.0333 49.3833V46.1167C44.0333 46.0094 44.0543 45.9032 44.0954 45.8041C44.1364 45.705 44.1965 45.6149 44.2724 45.5391C44.3482 45.4632 44.4383 45.4031 44.5374 45.362C44.6365 45.321 44.7427 45.2999 44.85 45.3H48.1167C48.2239 45.2999 48.3301 45.321 48.4293 45.362C48.5284 45.4031 48.6184 45.4632 48.6943 45.5391C48.7701 45.6149 48.8303 45.705 48.8713 45.8041C48.9123 45.9032 48.9334 46.0094 48.9333 46.1167ZM47.3 46.9333H45.6667V48.5667H47.3V46.9333ZM42.4 46.1167V49.3833C42.4001 49.4906 42.379 49.5968 42.3379 49.6959C42.2969 49.795 42.2368 49.8851 42.1609 49.9609C42.0851 50.0368 41.995 50.0969 41.8959 50.138C41.7968 50.179 41.6906 50.2001 41.5833 50.2H38.3167C38.2094 50.2001 38.1032 50.179 38.0041 50.138C37.905 50.0969 37.8149 50.0368 37.7391 49.9609C37.6632 49.8851 37.6031 49.795 37.562 49.6959C37.521 49.5968 37.4999 49.4906 37.5 49.3833V46.1167C37.4999 46.0094 37.521 45.9032 37.562 45.8041C37.6031 45.705 37.6632 45.6149 37.7391 45.5391C37.8149 45.4632 37.905 45.4031 38.0041 45.362C38.1032 45.321 38.2094 45.2999 38.3167 45.3H41.5833C41.6906 45.2999 41.7968 45.321 41.8959 45.362C41.995 45.4031 42.0851 45.4632 42.1609 45.5391C42.2368 45.6149 42.2969 45.705 42.3379 45.8041C42.379 45.9032 42.4001 46.0094 42.4 46.1167ZM40.7667 46.9333H39.1333V48.5667H40.7667V46.9333ZM48.9333 52.65V55.9167C48.9334 56.0239 48.9123 56.1302 48.8713 56.2293C48.8303 56.3284 48.7701 56.4184 48.6943 56.4943C48.6184 56.5701 48.5284 56.6303 48.4293 56.6713C48.3301 56.7123 48.2239 56.7334 48.1167 56.7333H44.85C44.7427 56.7334 44.6365 56.7123 44.5374 56.6713C44.4383 56.6303 44.3482 56.5701 44.2724 56.4943C44.1965 56.4184 44.1364 56.3284 44.0954 56.2293C44.0543 56.1302 44.0333 56.0239 44.0333 55.9167V52.65C44.0333 52.5427 44.0543 52.4365 44.0954 52.3374C44.1364 52.2383 44.1965 52.1482 44.2724 52.0724C44.3482 51.9965 44.4383 51.9364 44.5374 51.8954C44.6365 51.8544 44.7427 51.8333 44.85 51.8333H48.1167C48.2239 51.8333 48.3301 51.8544 48.4293 51.8954C48.5284 51.9364 48.6184 51.9965 48.6943 52.0724C48.7701 52.1482 48.8303 52.2383 48.8713 52.3374C48.9123 52.4365 48.9334 52.5427 48.9333 52.65ZM47.3 53.4667H45.6667V55.1H47.3V53.4667ZM42.4 52.65V55.9167C42.4001 56.0239 42.379 56.1302 42.3379 56.2293C42.2969 56.3284 42.2368 56.4184 42.1609 56.4943C42.0851 56.5701 41.995 56.6303 41.8959 56.6713C41.7968 56.7123 41.6906 56.7334 41.5833 56.7333H38.3167C38.2094 56.7334 38.1032 56.7123 38.0041 56.6713C37.905 56.6303 37.8149 56.5701 37.7391 56.4943C37.6632 56.4184 37.6031 56.3284 37.562 56.2293C37.521 56.1302 37.4999 56.0239 37.5 55.9167V52.65C37.4999 52.5427 37.521 52.4365 37.562 52.3374C37.6031 52.2383 37.6632 52.1482 37.7391 52.0724C37.8149 51.9965 37.905 51.9364 38.0041 51.8954C38.1032 51.8544 38.2094 51.8333 38.3167 51.8333H41.5833C41.6906 51.8333 41.7968 51.8544 41.8959 51.8954C41.995 51.9364 42.0851 51.9965 42.1609 52.0724C42.2368 52.1482 42.2969 52.2383 42.3379 52.3374C42.379 52.4365 42.4001 52.5427 42.4 52.65ZM40.7667 53.4667H39.1333V55.1H40.7667V53.4667ZM55.4667 52.65V55.9167C55.4667 56.0239 55.4456 56.1302 55.4046 56.2293C55.3636 56.3284 55.3034 56.4184 55.2276 56.4943C55.1517 56.5701 55.0617 56.6303 54.9626 56.6713C54.8635 56.7123 54.7573 56.7334 54.65 56.7333H51.3833C51.2761 56.7334 51.1698 56.7123 51.0707 56.6713C50.9716 56.6303 50.8816 56.5701 50.8057 56.4943C50.7299 56.4184 50.6697 56.3284 50.6287 56.2293C50.5877 56.1302 50.5666 56.0239 50.5667 55.9167V52.65C50.5666 52.5427 50.5877 52.4365 50.6287 52.3374C50.6697 52.2383 50.7299 52.1482 50.8057 52.0724C50.8816 51.9965 50.9716 51.9364 51.0707 51.8954C51.1698 51.8544 51.2761 51.8333 51.3833 51.8333H54.65C54.7573 51.8333 54.8635 51.8544 54.9626 51.8954C55.0617 51.9364 55.1517 51.9965 55.2276 52.0724C55.3034 52.1482 55.3636 52.2383 55.4046 52.3374C55.4456 52.4365 55.4667 52.5427 55.4667 52.65ZM53.8333 53.4667H52.2V55.1H53.8333V53.4667ZM55.4667 46.1167V49.3833C55.4667 49.4906 55.4456 49.5968 55.4046 49.6959C55.3636 49.795 55.3034 49.8851 55.2276 49.9609C55.1517 50.0368 55.0617 50.0969 54.9626 50.138C54.8635 50.179 54.7573 50.2001 54.65 50.2H51.3833C51.2761 50.2001 51.1698 50.179 51.0707 50.138C50.9716 50.0969 50.8816 50.0368 50.8057 49.9609C50.7299 49.8851 50.6697 49.795 50.6287 49.6959C50.5877 49.5968 50.5666 49.4906 50.5667 49.3833V46.1167C50.5666 46.0094 50.5877 45.9032 50.6287 45.8041C50.6697 45.705 50.7299 45.6149 50.8057 45.5391C50.8816 45.4632 50.9716 45.4031 51.0707 45.362C51.1698 45.321 51.2761 45.2999 51.3833 45.3H54.65C54.7573 45.2999 54.8635 45.321 54.9626 45.362C55.0617 45.4031 55.1517 45.4632 55.2276 45.5391C55.3034 45.6149 55.3636 45.705 55.4046 45.8041C55.4456 45.9032 55.4667 46.0094 55.4667 46.1167ZM53.8333 46.9333H52.2V48.5667H53.8333V46.9333Z" fill="white"/>
</svg>
