<svg width="72" height="72" viewBox="0 0 72 72" fill="none" xmlns="http://www.w3.org/2000/svg">
<path d="M58.6213 33.3217C60.4369 32.0459 61.6391 29.9236 61.6391 27.5315C61.6391 23.6181 58.4741 20.4531 54.5607 20.4531C50.6474 20.4531 47.4824 23.6181 47.4824 27.5315C47.4824 29.9236 48.6723 32.0459 50.5002 33.3217C48.9422 33.8615 47.5192 34.6957 46.317 35.7752C44.6609 34.3645 42.7103 33.2849 40.5758 32.647C43.1642 31.0768 44.9062 28.2184 44.9062 24.9676C44.9062 20.0115 40.8947 16 35.9387 16C30.9826 16 26.9711 20.0237 26.9711 24.9676C26.9711 28.2184 28.7008 31.0768 31.3015 32.647C29.1915 33.2849 27.2655 34.3522 25.6217 35.7384C24.4195 34.6834 23.021 33.8615 21.4875 33.334C23.3031 32.0582 24.5053 29.9359 24.5053 27.5437C24.5053 23.6304 21.3403 20.4654 17.427 20.4654C13.5137 20.4654 10.3486 23.6304 10.3486 27.5437C10.3486 29.9359 11.5386 32.0582 13.3664 33.334C8.49624 35.0146 5 39.6395 5 45.074V45.8837C5 45.9082 5.02454 45.9327 5.04907 45.9327H20.0522C19.9664 46.6074 19.9173 47.3067 19.9173 48.0059V48.8401C19.9173 52.4468 22.837 55.3664 26.4436 55.3664H45.4583C49.0649 55.3664 51.9846 52.4468 51.9846 48.8401V48.0059C51.9846 47.3067 51.9355 46.6074 51.8496 45.9327H66.9509C66.9755 45.9327 67 45.9082 67 45.8837V45.074C66.9755 39.6272 63.4915 35.0024 58.6213 33.3217ZM49.4452 27.5192C49.4452 24.6977 51.7392 22.4036 54.5607 22.4036C57.3823 22.4036 59.6763 24.6977 59.6763 27.5192C59.6763 30.3039 57.4313 32.5734 54.6589 32.6347C54.6221 32.6347 54.5975 32.6347 54.5607 32.6347C54.5239 32.6347 54.4994 32.6347 54.4626 32.6347C51.6779 32.5857 49.4452 30.3162 49.4452 27.5192ZM28.9094 24.9676C28.9094 21.1033 32.0499 17.9628 35.9141 17.9628C39.7784 17.9628 42.9189 21.1033 42.9189 24.9676C42.9189 28.6969 39.9869 31.7515 36.319 31.96C36.184 31.96 36.0491 31.96 35.9141 31.96C35.7792 31.96 35.6442 31.96 35.5093 31.96C31.8413 31.7515 28.9094 28.6969 28.9094 24.9676ZM12.2746 27.5192C12.2746 24.6977 14.5687 22.4036 17.3902 22.4036C20.2117 22.4036 22.5057 24.6977 22.5057 27.5192C22.5057 30.3039 20.2608 32.5734 17.4883 32.6347C17.4515 32.6347 17.427 32.6347 17.3902 32.6347C17.3534 32.6347 17.3288 32.6347 17.292 32.6347C14.5196 32.5857 12.2746 30.3162 12.2746 27.5192ZM20.3957 43.9577H6.98734C7.53937 38.7317 11.9557 34.6343 17.3166 34.5975C17.3411 34.5975 17.3657 34.5975 17.3902 34.5975C17.4147 34.5975 17.4393 34.5975 17.4638 34.5975C20.0154 34.6098 22.3463 35.5544 24.1496 37.0879C22.3831 39.0016 21.0704 41.3569 20.3957 43.9577ZM49.9972 48.8401C49.9972 51.355 47.9486 53.4036 45.4337 53.4036H26.4191C23.9042 53.4036 21.8556 51.355 21.8556 48.8401V48.0059C21.8556 40.3878 27.9402 34.1559 35.5093 33.9351C35.6442 33.9474 35.7915 33.9474 35.9264 33.9474C36.0613 33.9474 36.2085 33.9474 36.3435 33.9351C43.9125 34.1559 49.9972 40.3878 49.9972 48.0059V48.8401ZM51.4571 43.9577C50.7824 41.3692 49.4943 39.0507 47.74 37.1369C49.5556 35.5667 51.911 34.6221 54.4871 34.5975C54.5117 34.5975 54.5362 34.5975 54.5607 34.5975C54.5853 34.5975 54.6098 34.5975 54.6343 34.5975C59.9953 34.6343 64.4116 38.7317 64.9636 43.9577H51.4571Z" fill="white"/>
</svg>
