<svg width="204" height="93" viewBox="0 0 204 93" fill="none" xmlns="http://www.w3.org/2000/svg">
<path d="M1.33066 92.9312C11.1898 74.9135 25.7452 59.8757 43.4646 49.4005C61.1842 38.9252 81.4125 33.4002 102.02 33.4072C122.628 33.4142 142.852 38.9528 160.565 49.4401C178.277 59.9274 192.822 74.9754 202.669 93L204 92.2792L203.999 92.277C203.68 91.6936 203.356 91.1133 203.028 90.5361C193.077 73.0458 178.711 58.4297 161.339 48.1436C143.392 37.5177 122.901 31.9059 102.021 31.8988C81.1407 31.8918 60.645 37.4897 42.6912 48.1035C25.3116 58.3778 10.9362 72.9841 0.973099 90.4677C0.644165 91.045 0.320038 91.6253 0.000762939 92.2088L-1.52588e-05 92.2102L1.33066 92.9312Z" fill="#958677"/>
<path d="M102.732 5.88681V31.8988H101.23V5.88681C99.935 5.55483 98.9779 4.38397 98.9779 2.99052C98.9779 1.3389 100.323 0 101.981 0C103.64 0 104.985 1.3389 104.985 2.99052C104.985 4.38397 104.028 5.55483 102.732 5.88681Z" fill="#958677"/>
</svg>
