<svg width="155" height="71" viewBox="0 0 155 71" fill="none" xmlns="http://www.w3.org/2000/svg">
<path d="M1.01105 70.9474C8.50208 57.192 19.5613 45.7115 33.0246 37.7144C46.488 29.7171 61.8576 25.4991 77.5153 25.5044C93.1729 25.5098 108.54 29.7382 121.998 37.7446C135.456 45.751 146.507 57.2393 153.989 71L155 70.4497L154.999 70.448C154.757 70.0026 154.511 69.5596 154.262 69.119C146.701 55.7661 135.786 44.6076 122.586 36.7548C108.95 28.6426 93.3803 24.3583 77.5156 24.3529C61.651 24.3475 46.0783 28.6212 32.4369 36.7242C19.2319 44.568 8.30934 55.7191 0.739365 69.0668C0.489441 69.5074 0.243164 69.9505 0.000579834 70.396L0 70.397L1.01105 70.9474Z" fill="#958677"/>
<path d="M78.0563 4.49423V24.3528H76.9153V4.49423C75.931 4.24078 75.2038 3.3469 75.2038 2.28308C75.2038 1.02217 76.2255 0 77.4858 0C78.7462 0 79.7679 1.02217 79.7679 2.28308C79.7679 3.3469 79.0406 4.24078 78.0563 4.49423Z" fill="#958677"/>
</svg>
