<svg width="28" height="50" viewBox="0 0 28 50" fill="none" xmlns="http://www.w3.org/2000/svg">
<g clip-path="url(#clip0_238_650)">
<path d="M21.9313 0.456543C16.5774 0.456543 11.2236 0.456543 5.86973 0.456543C5.28511 0.456543 4.68511 0.533466 4.13127 0.718081C1.80819 1.47193 0.469727 3.395 0.469727 5.995C0.469727 12.3642 0.469727 18.7181 0.469727 25.0719C0.469727 31.4258 0.469727 37.7796 0.469727 44.1335C0.469727 47.4873 2.68511 49.6719 6.00819 49.6719C11.3159 49.6719 16.6236 49.6719 21.9159 49.6719C25.039 49.6719 27.3005 47.395 27.3159 44.2873C27.3159 31.4719 27.3159 18.6565 27.3159 5.84116C27.3159 2.73347 25.039 0.456543 21.9313 0.456543ZM13.9005 45.195C12.6697 45.195 11.6543 44.1796 11.6543 42.9489C11.6543 41.7027 12.6543 40.7335 13.9159 40.7489C15.1774 40.7489 16.1159 41.7181 16.1005 43.0104C16.0851 44.2258 15.1005 45.195 13.9005 45.195ZM17.1159 7.17962C14.962 7.195 12.8236 7.21039 10.6697 7.17962C9.86973 7.17962 9.42357 6.7027 9.45434 6.01039C9.46973 5.33347 9.94665 4.94885 10.762 4.93347C11.8082 4.93347 12.8543 4.93347 13.9005 4.93347C14.9467 4.93347 15.9928 4.93347 17.039 4.93347C17.839 4.93347 18.3467 5.36424 18.362 6.01039C18.3774 6.64116 17.8697 7.16424 17.1005 7.17962H17.1159Z" fill="#F10A01"/>
</g>
<defs>
<clipPath id="clip0_238_650">
<rect width="26.8615" height="49.2308" fill="white" transform="translate(0.469727 0.456543)"/>
</clipPath>
</defs>
</svg>
