<svg width="32" height="26" viewBox="0 0 32 26" fill="none" xmlns="http://www.w3.org/2000/svg">
<g clip-path="url(#clip0_329_22314)">
<path d="M32.002 12.9819C31.9126 19.5101 27.1357 25.0248 20.6596 25.8743C16.9335 26.3662 13.5651 25.3899 10.6364 22.9977C9.86132 22.3643 9.73463 21.7756 10.2116 21.2017C10.6811 20.6428 11.322 20.6726 12.0597 21.2837C17.798 26.0681 26.6513 23.6014 29.0881 16.5366C31.2418 10.2991 27.4039 3.62932 20.9205 2.42205C17.6117 1.80351 14.6308 2.60836 12.0225 4.73971C11.6499 5.04525 11.24 5.35824 10.7779 5.12722C10.45 4.96327 10.07 4.61302 10.0104 4.29257C9.9433 3.97212 10.1445 3.46537 10.3979 3.2269C11.6722 2.03453 13.1776 1.19243 14.8394 0.655867C22.1575 -1.71395 29.7589 2.53384 31.5698 10.0234C31.8008 10.9922 31.8604 11.9982 32.002 12.9819Z" fill="#F2F0ED"/>
<path d="M24.0729 17.6694C23.8269 18.1315 23.4171 18.3401 22.9103 18.2358C22.6569 18.1836 22.3886 18.0271 22.2023 17.8408C20.6821 16.3429 19.1618 14.845 17.6863 13.3024C17.4105 13.0118 17.2466 12.5274 17.2093 12.1249C17.1423 11.2232 17.187 10.3066 17.187 9.39741C17.187 8.48823 17.187 7.50454 17.187 6.5581C17.187 6.08116 17.3584 5.62657 17.8279 5.48497C18.1632 5.3881 18.5954 5.42536 18.9159 5.55204C19.3258 5.71599 19.4152 6.14823 19.4152 6.58791C19.4077 8.20505 19.3928 9.81474 19.4226 11.4319C19.4226 11.7076 19.5642 12.0504 19.758 12.2442C21.0845 13.6154 22.4483 14.9568 23.7971 16.3131C24.1846 16.7081 24.3262 17.1552 24.0505 17.6769L24.0729 17.6694Z" fill="#F2F0ED"/>
<path d="M12.6113 13.0041C12.6113 13.6748 12.0971 14.107 11.2922 14.1145C9.86141 14.1145 8.43803 14.1145 7.00719 14.1145C5.57636 14.1145 4.19024 14.1145 2.78176 14.1145C1.98437 14.1145 1.47017 13.6673 1.47762 12.9966C1.47762 12.3185 1.98437 11.8937 2.79667 11.8862C5.63598 11.8862 8.47529 11.8862 11.3071 11.8862C12.1045 11.8862 12.6187 12.3334 12.6187 13.0041H12.6113Z" fill="#F2F0ED"/>
<path d="M10.7854 8.57025C10.532 8.76401 10.1519 8.88324 9.82403 8.8907C8.3932 8.9205 6.96982 8.9056 5.53898 8.9056C4.10815 8.9056 2.72203 8.9056 1.31355 8.9056C0.471445 8.89815 0.00195312 8.50318 0.00195312 7.80267C0.00195312 7.10961 0.471445 6.66992 1.29119 6.66992C4.14541 6.66992 6.99963 6.66992 9.85384 6.66992C10.3904 6.66992 10.8375 6.86368 11.0462 7.4077C11.2176 7.85483 11.1431 8.29451 10.7854 8.57025Z" fill="#F2F0ED"/>
<path d="M14.0793 18.161C14.0942 18.8541 13.6173 19.3161 12.8124 19.3161C9.9582 19.3236 7.10398 19.3236 4.24976 19.3161C3.45983 19.3161 2.93071 18.8317 2.94562 18.1685C2.96052 17.5127 3.45237 17.0953 4.23486 17.0879C5.6806 17.0879 7.12634 17.0879 8.57207 17.0879C10.0178 17.0879 11.389 17.0879 12.7975 17.0879C13.6023 17.0879 14.0569 17.4829 14.0793 18.1536V18.161Z" fill="#F2F0ED"/>
</g>
<defs>
<clipPath id="clip0_329_22314">
<rect width="32" height="26.0009" fill="white" transform="translate(0.00195312)"/>
</clipPath>
</defs>
</svg>
