<svg width="60" height="60" viewBox="0 0 60 60" fill="none" xmlns="http://www.w3.org/2000/svg">
<circle cx="30" cy="30" r="30" fill="#F10A01"/>
<path d="M45.6693 22.0615C45.3813 18.8732 43.792 16.442 40.816 15.0452C39.5253 14.4587 38.128 14.1494 36.7093 14.1494C32.944 14.0961 29.1787 14.0535 25.4133 14.0641C24.0373 14.0535 22.6613 14.1601 21.3067 14.384C18.064 14.9492 15.76 16.7726 14.6933 19.9395C14.3413 20.9845 14.1493 22.0721 14.1067 23.1811C14.0107 26.9558 14 30.7413 14 34.5267C14.0107 35.6889 14.0747 36.8406 14.2027 37.9922C14.608 42.0335 17.3813 45.0512 21.4027 45.627C23.3973 45.9149 25.4453 45.9469 27.4613 45.9469C30.9387 45.9469 34.416 45.9682 37.8827 45.7229C42.192 45.4137 45.3173 42.2254 45.6907 37.9069C45.904 35.2944 45.904 32.6713 46.0107 30.0162C45.904 27.3717 45.9147 24.7059 45.6693 22.0615ZM42.8427 37.3417C42.7787 39.8049 41.552 41.7136 39.088 42.524C38.128 42.8332 37.1147 42.9932 36.1013 43.0038C31.9947 43.0571 27.888 43.0678 23.7707 43.0038C22.672 42.9932 21.5733 42.8012 20.5387 42.428C18.2133 41.5856 17.1893 39.6876 17.0293 37.3417C16.8693 34.8892 16.8693 32.4154 16.7947 30.0055C16.8693 27.553 16.8693 25.1538 17.0187 22.7439C17.2213 19.4064 19.3333 17.1991 22.672 17.1031C27.5147 16.9752 32.336 16.9752 37.1573 17.1031C40.5707 17.1991 42.7467 19.3744 42.8427 22.8079C42.9813 27.649 42.96 32.5007 42.8427 37.3417Z" fill="white"/>
<path d="M40.3786 21.4216V21.4536C40.4 22.4986 39.5786 23.3623 38.5333 23.3836H38.5226V23.373C37.4666 23.405 36.592 22.5732 36.56 21.5176C36.528 20.4619 37.36 19.5876 38.416 19.5556C39.4613 19.5343 40.3466 20.366 40.3786 21.4216Z" fill="white"/>
<path d="M29.9787 21.8053C25.456 21.7839 21.7653 25.4414 21.744 29.9625C21.7227 34.4837 25.3813 38.1731 29.904 38.1945V38.2051H29.9573C34.48 38.2051 38.1387 34.537 38.1387 30.0159C38.1493 25.4947 34.4907 21.8266 29.9787 21.8053ZM29.9467 35.3261C27.0027 35.3261 24.624 32.9482 24.624 30.0052C24.624 27.0622 27.0027 24.6843 29.9467 24.6843H29.9573C32.8907 24.695 35.2693 27.0728 35.2693 30.0052C35.2693 32.9376 32.8907 35.3261 29.9467 35.3261Z" fill="white"/>
</svg>
