<svg width="24" height="24" viewBox="0 0 24 24" fill="none" xmlns="http://www.w3.org/2000/svg">
<path d="M20.7121 6.90652C19.9121 2.37652 15.4221 -0.723478 10.8921 0.146522C8.46212 0.616522 6.46212 2.02652 5.23212 3.96652C4.00212 5.90652 3.78212 8.09652 4.18212 10.2565C4.21212 10.4265 4.25212 10.6065 4.29212 10.7765C4.71212 12.5965 5.49212 14.2765 6.50212 15.8265C8.22212 18.4765 10.0321 21.0565 11.8121 23.6565C12.1421 24.1365 12.6921 24.0965 13.0421 23.5865C14.1821 21.9665 15.3221 20.3465 16.4521 18.7165C17.7121 16.8865 18.9021 15.0165 19.7721 12.9565C20.6021 11.0165 21.0621 9.02652 20.6921 6.90652H20.7121ZM18.5221 12.3365C17.6021 14.5465 16.2821 16.5365 14.9221 18.4965C14.1621 19.5865 13.3821 20.6765 12.6021 21.7665C12.5521 21.8465 12.4821 21.9165 12.3921 22.0265C11.8721 21.3065 11.3821 20.5965 10.8821 19.9065C9.45212 17.8865 8.01212 15.8665 6.90212 13.6565C6.18212 12.2365 5.58212 10.7765 5.42212 9.16652C5.21212 6.95652 5.87212 5.03652 7.45212 3.48652C9.45212 1.51652 11.8721 0.916522 14.5221 1.75652C17.2021 2.60652 18.8121 4.52652 19.3321 7.31652C19.6621 9.07652 19.1921 10.7265 18.5221 12.3465V12.3365Z" fill="#151112"/>
<path d="M12.22 4.19682C9.91 4.18682 8 6.07682 8 8.40682C8 10.7368 9.86 12.6468 12.18 12.6568C14.5 12.6668 16.4 10.7768 16.4 8.44682C16.4 6.10682 14.54 4.20682 12.22 4.19682ZM12.22 11.2368C10.67 11.2368 9.4 9.98682 9.4 8.43682C9.4 6.89682 10.65 5.61682 12.19 5.61682C13.73 5.61682 15 6.86682 15.01 8.40682C15.02 9.95682 13.77 11.2268 12.22 11.2368Z" fill="#151112"/>
</svg>
