<svg width="48" height="48" viewBox="0 0 48 48" fill="none" xmlns="http://www.w3.org/2000/svg">
<g clip-path="url(#clip0_250_838)">
<path d="M4.70099 46.5879H4.65794C4.44843 46.5647 4.29345 46.3903 4.29345 46.184V41.055C4.29345 40.8836 4.14996 40.7383 3.98063 40.7383C3.8113 40.7383 3.6678 40.8836 3.6678 41.055V42.9991C3.6678 43.3652 3.37794 43.6645 3.02206 43.6645H1.99462C1.76789 43.6645 1.54117 43.7285 1.34888 43.8447V41.7757C1.3374 41.2439 0.932735 40.7993 0.393184 40.7412H0.312825C0.140628 40.7412 0 40.8836 0 41.0579C0 41.2323 0.140628 41.3747 0.312825 41.3747H0.347265C0.556771 41.395 0.714619 41.5694 0.723229 41.7786V46.9075C0.723229 47.0877 0.858117 47.2243 1.03605 47.2243C1.21399 47.2243 1.34888 47.0819 1.34888 46.9075V44.9548C1.34888 44.5944 1.63874 44.3009 1.99462 44.3009H3.02206C3.24879 44.3009 3.46978 44.237 3.6678 44.1179V46.1869C3.6678 46.7303 4.0696 47.1778 4.61202 47.2243H4.70099C4.87605 47.2243 5.01381 47.0848 5.01381 46.9075C5.01381 46.7303 4.87031 46.5908 4.70099 46.5908V46.5879Z" fill="#151112"/>
<path d="M8.49504 46.5878H8.46921C8.34006 46.5762 8.23388 46.4599 8.23388 46.3321V44.6408C8.2224 44.4577 8.14778 44.2921 8.02437 44.1672C8.02437 44.1672 7.97845 44.1207 7.92679 44.08C7.79764 43.9695 7.59675 43.9841 7.48482 44.1148C7.37576 44.2456 7.39298 44.449 7.53361 44.5711C7.54222 44.5769 7.5537 44.5856 7.56231 44.5943C7.57092 44.603 7.57953 44.6088 7.59101 44.6176C7.60536 44.6408 7.60823 44.6524 7.60823 44.6524V45.6027C7.60823 45.6753 7.59962 45.7538 7.5824 45.8206C7.525 46.0792 7.37002 46.2972 7.14616 46.4396C6.92805 46.5791 6.66975 46.6227 6.41719 46.5616C6.16464 46.5093 5.94939 46.3553 5.80876 46.1228C5.52751 45.6869 5.6624 45.0738 6.1015 44.7832L7.43029 43.9289C7.72589 43.7225 7.9067 43.3738 7.9067 43.0164C7.9067 42.412 7.42455 41.918 6.83334 41.918C6.5406 41.918 6.27657 42.0284 6.07854 42.2347C6.0154 42.2899 5.98096 42.3655 5.97522 42.4498C5.97235 42.5369 6.00679 42.6241 6.06993 42.688C6.18186 42.8014 6.37701 42.8043 6.51477 42.6851C6.59513 42.598 6.70132 42.5515 6.83334 42.5515C7.08015 42.5515 7.28105 42.7607 7.28105 43.0164C7.28105 43.1675 7.20356 43.3128 7.08015 43.3942L5.76571 44.2456C5.02527 44.7251 4.81863 45.6753 5.28643 46.4599C5.58778 46.9423 6.07854 47.2184 6.63244 47.2184C7.03997 47.2184 7.43603 47.0556 7.72589 46.7767C7.86939 47.0208 8.12482 47.1893 8.42329 47.2184H8.49217C8.6615 47.2184 8.805 47.0731 8.805 46.9016C8.805 46.7302 8.6615 46.5849 8.49217 46.5849L8.49504 46.5878Z" fill="#151112"/>
<path d="M12.3667 46.6372V42.2202C12.3494 42.0458 12.2174 41.918 12.0538 41.918C11.8759 41.918 11.741 42.0545 11.741 42.2347V46.5849H10.263C10.1137 46.5849 10.0133 46.4483 10.0133 46.3204V42.8014C10.0018 42.3451 9.65743 41.9674 9.19823 41.918H9.12935C8.95142 41.918 8.81653 42.0545 8.81653 42.2347C8.81653 42.4149 8.95716 42.5515 9.12935 42.5515H9.15518C9.29007 42.5631 9.39052 42.6735 9.39052 42.8072V46.3233C9.39052 46.8086 9.79231 47.2213 10.2659 47.2213H12.0538C12.3007 47.2213 12.5016 47.4305 12.5016 47.6862C12.5016 47.8577 12.645 48.003 12.8144 48.003C12.9837 48.003 13.1272 47.8635 13.1272 47.6862C13.1272 47.198 12.8144 46.7767 12.3667 46.6401V46.6372Z" fill="#151112"/>
<path d="M13.7586 41.9209H13.6754C13.506 41.9209 13.3625 42.0662 13.3625 42.2376C13.3625 42.4091 13.506 42.5544 13.6754 42.5544H13.7012C13.8332 42.566 13.9365 42.6823 13.9365 42.8188V46.9046C13.9365 47.076 14.08 47.2213 14.2494 47.2213C14.4187 47.2213 14.5622 47.0789 14.5622 46.9046V42.8188C14.5622 42.3539 14.2178 41.9703 13.7615 41.9238L13.7586 41.9209Z" fill="#151112"/>
<path d="M14.2493 40.7383C14.0772 40.7383 13.9365 40.8807 13.9365 41.055V41.4648C13.9365 41.6362 14.08 41.7815 14.2493 41.7815C14.4187 41.7815 14.5622 41.642 14.5622 41.4648V41.055C14.5622 40.8749 14.4273 40.7383 14.2493 40.7383Z" fill="#151112"/>
<path d="M17.0447 41.918C16.7691 41.918 16.508 41.9906 16.287 42.1301L15.515 42.6154C15.4117 42.6706 15.2682 42.688 15.1735 42.6561C15.0127 42.6038 14.8405 42.6939 14.7803 42.8827C14.7458 43.0455 14.8348 43.2111 15.007 43.2663C15.317 43.339 15.5695 43.3099 15.8278 43.1675L16.6027 42.6706C16.7404 42.5921 16.8954 42.5486 17.0447 42.5486C17.5211 42.5486 17.9085 42.9379 17.9085 43.4145V45.7073C17.9085 46.1897 17.5211 46.582 17.0447 46.582C16.5683 46.582 16.1808 46.1897 16.1808 45.7073V43.6441C16.1808 43.4697 16.0402 43.3273 15.868 43.3273C15.6958 43.3273 15.5666 43.4697 15.5666 43.6441V45.7073C15.5666 46.5384 16.2296 47.2155 17.0447 47.2155C17.8597 47.2155 18.5342 46.5384 18.5342 45.7073V43.4145C18.5342 42.5892 17.8655 41.918 17.0447 41.918Z" fill="#151112"/>
<path d="M23.0256 46.5878H22.9998C22.8707 46.5762 22.7645 46.4599 22.7645 46.3321V42.2347C22.7645 42.0575 22.6267 41.918 22.4517 41.918C22.2766 41.918 22.1388 42.0545 22.1388 42.2347V43.7865C22.1388 44.0393 21.9293 44.2514 21.6796 44.2514H20.8588C20.701 44.2514 20.5489 44.2863 20.4111 44.3502V42.8014C20.3996 42.3451 20.0552 41.9674 19.596 41.918H19.4267C19.2545 41.918 19.1139 42.0604 19.1139 42.2347C19.1139 42.4091 19.2574 42.5515 19.4267 42.5515H19.553C19.6821 42.5631 19.7883 42.6764 19.7883 42.8072V46.9045C19.7883 47.0789 19.929 47.2213 20.1012 47.2213C20.2734 47.2213 20.414 47.076 20.414 46.9045V45.3528C20.414 45.097 20.6149 44.8878 20.8617 44.8878H21.6825C21.8375 44.8878 21.9925 44.853 22.1417 44.7803V46.3321C22.1417 46.7912 22.4861 47.1719 22.9596 47.2184H23.0285C23.1978 47.2184 23.3413 47.0731 23.3413 46.9016C23.3413 46.7302 23.1978 46.5849 23.0285 46.5849L23.0256 46.5878Z" fill="#151112"/>
<path d="M27.1182 46.5878H27.0924C26.9632 46.5762 26.857 46.4599 26.857 46.3321V44.6408C26.8456 44.4578 26.7709 44.2921 26.6475 44.1672C26.6475 44.1672 26.6016 44.1207 26.55 44.08C26.4868 44.0248 26.4065 43.9986 26.3204 44.0074C26.2371 44.0161 26.1625 44.0538 26.108 44.1178C25.9989 44.2485 26.0133 44.452 26.1568 44.574C26.1654 44.5798 26.1769 44.5885 26.1855 44.5973C26.1941 44.606 26.2056 44.6147 26.2142 44.6205C26.2285 44.6437 26.2314 44.6554 26.2314 44.6554V45.6056C26.2314 45.6783 26.2228 45.7567 26.2056 45.8236C26.1482 46.0822 25.9932 46.3001 25.7693 46.4425C25.5483 46.582 25.2929 46.6256 25.0404 46.5646C24.7878 46.5123 24.5726 46.3582 24.4319 46.1258C24.1507 45.6899 24.2856 45.0767 24.7247 44.7861L26.0535 43.9318C26.3491 43.7255 26.5299 43.3768 26.5299 43.0193C26.5299 42.4149 26.0477 41.9209 25.4565 41.9209C25.1638 41.9209 24.8997 42.0313 24.7017 42.2347C24.6386 42.29 24.6013 42.3655 24.5984 42.4498C24.5955 42.537 24.63 42.6241 24.6931 42.6881C24.805 42.8014 25.0002 42.8043 25.1379 42.6852C25.2154 42.598 25.3274 42.5515 25.4565 42.5515C25.7033 42.5515 25.9042 42.7607 25.9042 43.0164C25.9042 43.1675 25.8267 43.3128 25.7033 43.3942L24.3889 44.2456C23.6484 44.7251 23.4418 45.6754 23.9096 46.4599C24.2109 46.9423 24.7017 47.2184 25.2585 47.2184C25.666 47.2184 26.0621 47.0557 26.3519 46.7767C26.4954 47.0208 26.7509 47.1893 27.0493 47.2184H27.1182C27.2875 47.2184 27.431 47.0731 27.431 46.9016C27.431 46.7302 27.2875 46.5849 27.1182 46.5849V46.5878Z" fill="#151112"/>
<path d="M30.212 41.9179H30.014C29.5146 41.9179 29.0296 42.1155 28.6795 42.4584C28.3121 42.8072 28.1112 43.2721 28.1112 43.7661V46.3204C28.1112 46.4773 27.9821 46.5849 27.8587 46.5849C27.6836 46.5849 27.5372 46.7301 27.5372 46.9016C27.5372 47.073 27.6807 47.2183 27.8587 47.2183C28.3322 47.2183 28.734 46.8086 28.734 46.3204V43.7661C28.734 43.4465 28.866 43.1442 29.1042 42.9089C29.3396 42.6793 29.6696 42.5485 30.0111 42.5485H30.2034C30.3498 42.5543 30.4617 42.6677 30.4617 42.813V46.8987C30.4617 47.0701 30.6052 47.2154 30.7745 47.2154C30.9439 47.2154 31.0874 47.076 31.0874 46.8987V42.813C31.0874 42.3277 30.6856 41.915 30.212 41.915V41.9179Z" fill="#151112"/>
<path d="M33.7707 43.6005C33.455 43.6005 33.1566 43.6993 32.9069 43.8794V42.813C32.9069 42.3277 32.5022 41.915 32.0201 41.915C31.8421 41.915 31.7072 42.0516 31.7072 42.2318C31.7072 42.412 31.8479 42.5485 32.0201 42.5485C32.1578 42.5485 32.2812 42.6735 32.2812 42.813V45.4777C32.2812 45.6579 32.4161 45.7944 32.5941 45.7944C32.772 45.7944 32.9069 45.655 32.9069 45.4777V45.1057C32.9069 44.6234 33.2943 44.2311 33.7707 44.2311C34.2472 44.2311 34.6346 44.6234 34.6346 45.1057V45.7073C34.6346 46.1896 34.2472 46.5819 33.7707 46.5819C33.6158 46.5819 33.4723 46.5413 33.3345 46.4657L32.617 46.0008L32.5395 45.9543C32.2382 45.809 31.9598 45.7799 31.7101 45.8671C31.5437 45.9223 31.4547 46.0967 31.5063 46.2478C31.5236 46.332 31.5781 46.4047 31.6556 46.4483C31.7302 46.4919 31.8192 46.5006 31.9081 46.4715C32.0143 46.4308 32.1722 46.457 32.2898 46.5384L33.0073 47.0033C33.2455 47.1399 33.5096 47.2125 33.7707 47.2125C34.5916 47.2125 35.2603 46.5355 35.2603 45.7044V45.1028C35.2603 44.2717 34.5916 43.5947 33.7707 43.5947V43.6005Z" fill="#151112"/>
<path d="M39.4734 46.5878H39.4476C39.3184 46.5762 39.2122 46.4599 39.2122 46.3321V42.2347C39.2122 42.0575 39.0745 41.918 38.8994 41.918C38.7243 41.918 38.5866 42.0545 38.5866 42.2347V43.7865C38.5866 44.0393 38.3771 44.2514 38.1274 44.2514H37.3066C37.1487 44.2514 36.9966 44.2863 36.8589 44.3502V42.8014C36.8474 42.3451 36.503 41.9674 36.0438 41.918H35.8745C35.6994 41.918 35.5616 42.0575 35.5616 42.2347C35.5616 42.412 35.7051 42.5515 35.8745 42.5515H36.0007C36.1299 42.5631 36.2361 42.6764 36.2361 42.8072V46.9045C36.2361 47.0789 36.3767 47.2213 36.5489 47.2213C36.7211 47.2213 36.8617 47.076 36.8617 46.9045V45.3528C36.8617 45.097 37.0626 44.8878 37.3094 44.8878H38.1303C38.2852 44.8878 38.4402 44.853 38.5894 44.7803V46.3321C38.5894 46.7912 38.9338 47.1719 39.4045 47.2184H39.4734C39.6427 47.2184 39.7862 47.0731 39.7862 46.9016C39.7862 46.7302 39.6427 46.5849 39.4734 46.5849V46.5878Z" fill="#151112"/>
<path d="M43.0809 41.918C42.837 41.918 42.5156 42.0516 42.418 42.4294L41.4164 46.5268C41.3934 46.5849 41.3704 46.5849 41.3647 46.5849C41.3331 46.5849 41.3102 46.5762 41.3102 46.5209V42.8014C41.2987 42.3451 40.9543 41.9674 40.4951 41.918H40.4262C40.2483 41.918 40.1134 42.0545 40.1134 42.2347C40.1134 42.4149 40.254 42.5515 40.4262 42.5515H40.4521C40.5841 42.5631 40.6817 42.6706 40.6874 42.8072V46.5326C40.6874 46.9103 40.9859 47.2184 41.3561 47.2184C41.6 47.2184 41.9215 47.0847 42.0191 46.7069L43.0235 42.598C43.0436 42.5631 43.0551 42.5515 43.0752 42.5515C43.1068 42.5515 43.1297 42.5602 43.1297 42.6154V46.9016C43.1297 47.076 43.2704 47.2184 43.4425 47.2184C43.6147 47.2184 43.7554 47.076 43.7554 46.9016V42.6038C43.7554 42.226 43.4569 41.918 43.0867 41.918H43.0809Z" fill="#151112"/>
<path d="M46.057 41.6998H46.5421C46.9209 41.6998 47.2825 41.5516 47.5724 41.2668C47.6814 41.1389 47.6757 40.9413 47.5638 40.828C47.5006 40.7641 47.4174 40.7292 47.3284 40.7321C47.2452 40.735 47.1706 40.7728 47.1275 40.8251C46.964 40.982 46.7631 41.0663 46.5449 41.0663H46.0599C45.8418 41.0663 45.6409 40.982 45.4888 40.8367C45.4343 40.7728 45.3596 40.7379 45.2764 40.7321C45.1903 40.7321 45.1042 40.7641 45.0411 40.828C44.9292 40.9413 44.9263 41.1389 45.0411 41.2755C45.3195 41.5458 45.684 41.6969 46.0599 41.6969L46.057 41.6998Z" fill="#151112"/>
<path d="M47.3313 41.9209C47.0874 41.9209 46.7659 42.0546 46.6683 42.4323L45.6667 46.5297C45.6438 46.5878 45.6208 46.5878 45.6151 46.5878C45.5835 46.5878 45.5605 46.5791 45.5605 46.5239V42.8043C45.5491 42.3481 45.2047 41.9703 44.7455 41.9209H44.6766C44.4987 41.9209 44.3638 42.0575 44.3638 42.2376C44.3638 42.4178 44.5044 42.5544 44.6766 42.5544H44.7024C44.8344 42.566 44.932 42.6735 44.9378 42.8101V46.5355C44.9378 46.9133 45.2362 47.2213 45.6065 47.2213C45.8504 47.2213 46.1718 47.0876 46.2694 46.7099L47.2739 42.6009C47.294 42.566 47.3055 42.5544 47.3256 42.5544C47.3571 42.5544 47.3801 42.5631 47.3801 42.6183V46.9046C47.3801 47.0789 47.5207 47.2213 47.6929 47.2213C47.8651 47.2213 48.0057 47.0818 48.0057 46.9046V42.6067C48.0057 42.2289 47.7073 41.9209 47.337 41.9209H47.3313Z" fill="#151112"/>
<path d="M12.2748 31.9765H12.0366C11.4224 31.9765 10.8599 32.2003 10.4065 32.6275C9.97022 33.0488 9.72915 33.6126 9.72915 34.2141V37.4193C9.72915 37.5268 9.6861 37.6315 9.61722 37.7012C9.53399 37.7797 9.4278 37.8233 9.32735 37.8233C9.15228 37.8233 9.01453 37.9627 9.01453 38.14C9.01453 38.3173 9.14941 38.4567 9.32735 38.4567C9.59713 38.4567 9.86116 38.3463 10.0534 38.1545C10.2457 37.9598 10.3519 37.6983 10.3519 37.4193V34.2141C10.3519 33.7898 10.5241 33.3888 10.8427 33.0866C11.1613 32.7728 11.5745 32.6071 12.0366 32.6071H12.2748C12.381 32.6071 12.4843 32.6507 12.5589 32.7234C12.6536 32.8222 12.6737 32.9326 12.6737 33.011V38.14C12.6737 38.3144 12.8143 38.4567 12.9865 38.4567C13.1587 38.4567 13.2994 38.3202 13.2994 38.14V33.011C13.2994 32.7379 13.1903 32.4705 13.0009 32.2758C12.8115 32.0812 12.5503 31.9736 12.2748 31.9736V31.9765Z" fill="#151112"/>
<path d="M17.2714 36.9519V34.6591C17.2714 33.8339 16.6027 33.1626 15.7818 33.1626C15.5063 33.1626 15.2452 33.2352 15.0242 33.3747L14.2522 33.86C14.1488 33.9152 14.0053 33.9327 13.9106 33.9007C13.7499 33.8455 13.5777 33.9385 13.5175 34.1274C13.483 34.2901 13.572 34.4557 13.7442 34.5109C14.0541 34.5836 14.3067 34.5545 14.565 34.4121L15.3399 33.9152C15.4776 33.8368 15.6326 33.7932 15.7818 33.7932C16.2583 33.7932 16.6457 34.1826 16.6457 34.6591V36.9519C16.6457 37.4343 16.2583 37.8266 15.7818 37.8266C15.3054 37.8266 14.918 37.4343 14.918 36.9519V34.8887C14.918 34.7144 14.7774 34.572 14.6052 34.572C14.433 34.572 14.3038 34.7144 14.3038 34.8887V36.9519C14.3038 37.783 14.9668 38.4601 15.7818 38.4601C16.5969 38.4601 17.2714 37.783 17.2714 36.9519Z" fill="#151112"/>
<path d="M20.4198 38.46C20.5547 38.46 20.681 38.3641 20.7154 38.2334L21.9581 33.8367C21.9581 33.8367 21.9782 33.7902 22.0097 33.7902C22.0356 33.7902 22.0643 33.8047 22.0643 33.8338V37.5708C22.0643 38.0299 22.4087 38.4106 22.8822 38.4571H22.9511C23.1204 38.4571 23.2639 38.3118 23.2639 38.1404C23.2639 37.9689 23.1204 37.8236 22.9511 37.8236H22.9253C22.7961 37.812 22.6899 37.6958 22.6899 37.5679V33.8309C22.6899 33.4589 22.3857 33.1538 22.0069 33.1538C21.7027 33.1654 21.4501 33.3543 21.3611 33.6391L20.4227 36.9838L19.4756 33.6391C19.3895 33.3427 19.134 33.1538 18.8241 33.1538C18.4567 33.1538 18.1554 33.456 18.1554 33.8309V38.1375C18.1554 38.3118 18.296 38.4542 18.4682 38.4542C18.6404 38.4542 18.781 38.3089 18.781 38.1375V33.8309C18.781 33.8309 18.781 33.7873 18.8241 33.7873C18.8413 33.7873 18.8643 33.7989 18.8729 33.8222L20.1242 38.245C20.1787 38.3728 20.2935 38.4542 20.4255 38.4542L20.4198 38.46Z" fill="#151112"/>
<path d="M25.3503 38.4568C26.1712 38.4568 26.8399 37.7797 26.8399 36.9486V35.4375C26.8399 34.6064 26.1712 33.9293 25.3503 33.9293C25.1724 33.9293 24.9973 33.9642 24.8395 34.0281C24.6788 34.0834 24.5955 34.2635 24.6558 34.4466C24.6903 34.5251 24.7534 34.5861 24.8309 34.618C24.9084 34.65 24.9973 34.6471 25.0662 34.618C25.1609 34.5832 25.2528 34.5657 25.3532 34.5657C25.8296 34.5657 26.2171 34.958 26.2171 35.4404V36.9515C26.2171 37.4339 25.8296 37.8262 25.3532 37.8262C24.8768 37.8262 24.4894 37.4339 24.4894 36.9515V34.2461C24.4894 33.7695 24.8768 33.3801 25.3532 33.3801H25.7579C26.3548 33.3801 26.8399 32.8919 26.8399 32.2933C26.8399 32.119 26.6992 31.9766 26.527 31.9766C26.3548 31.9766 26.2142 32.119 26.2142 32.2933C26.2142 32.5432 26.0133 32.7495 25.7665 32.7495H25.3503C24.5295 32.7495 23.8608 33.4208 23.8608 34.2461V36.9515C23.8608 37.7826 24.5295 38.4597 25.3503 38.4597V38.4568Z" fill="#151112"/>
<path d="M30.7975 37.8266H30.7716C30.6425 37.8149 30.5363 37.6987 30.5363 37.5708V35.8796C30.5248 35.6965 30.4502 35.5309 30.3268 35.4059C30.3268 35.4059 30.2809 35.3594 30.2292 35.3187C30.1001 35.2083 29.8992 35.2228 29.7901 35.3536C29.6811 35.4844 29.6954 35.6878 29.8389 35.8098C29.8475 35.8157 29.859 35.8244 29.8676 35.8331C29.8762 35.8418 29.8877 35.8476 29.8963 35.8563C29.9107 35.8796 29.9135 35.8912 29.9135 35.8912V36.8414C29.9135 36.9141 29.9049 36.9926 29.8877 37.0594C29.8303 37.318 29.6753 37.536 29.4515 37.6784C29.2305 37.8178 28.9722 37.8614 28.7225 37.8004C28.4699 37.7481 28.2547 37.5941 28.1141 37.3616C27.8328 36.9257 27.9677 36.3126 28.4068 36.022L29.7356 35.1676C30.0312 34.9613 30.212 34.6126 30.212 34.2552C30.212 33.6507 29.7298 33.1567 29.1386 33.1567C28.8459 33.1567 28.5819 33.2672 28.3838 33.4706C28.3207 33.5258 28.2834 33.6013 28.2805 33.6856C28.2776 33.7728 28.3121 33.86 28.3752 33.9239C28.4872 34.0372 28.6823 34.043 28.8201 33.921C28.9004 33.8338 29.0066 33.7873 29.1386 33.7873C29.3855 33.7873 29.5863 33.9966 29.5863 34.2523C29.5863 34.4034 29.5089 34.5487 29.3855 34.63L28.071 35.4815C27.3306 35.961 27.1239 36.9112 27.5917 37.6958C27.8931 38.1782 28.3838 38.4542 28.9377 38.4542C29.3453 38.4542 29.7413 38.2915 30.0312 38.0125C30.1747 38.2566 30.4301 38.4252 30.7286 38.4542H30.7975C30.9668 38.4542 31.1103 38.3089 31.1103 38.1375C31.1103 37.966 30.9668 37.8207 30.7975 37.8207V37.8266Z" fill="#151112"/>
<path d="M31.6527 33.7902C31.7847 33.8018 31.888 33.918 31.888 34.0546V35.9464C31.888 36.2108 32.0315 36.3532 32.1578 36.4811L32.1951 36.5188C32.2582 36.5741 32.3386 36.6031 32.4218 36.5915C32.5051 36.5857 32.5825 36.545 32.6371 36.4811C32.6916 36.4171 32.7174 36.3358 32.7088 36.2486C32.7031 36.1643 32.6629 36.0888 32.5998 36.0336L32.5682 36.0074C32.5137 35.9609 32.5137 35.958 32.5137 35.9464V34.1825L32.9355 33.9093C33.0762 33.8309 33.2283 33.7873 33.3775 33.7873C33.8539 33.7873 34.2414 34.1796 34.2414 34.662V35.5221C34.2414 35.6267 34.1955 35.7139 34.1094 35.7604C33.7822 35.9754 32.9528 36.5043 32.7863 36.6089L32.7461 36.6322C32.2094 36.9809 31.888 37.5563 31.888 38.1781V39.7212C31.888 39.8926 32.0315 40.0379 32.2008 40.0379C32.3702 40.0379 32.5137 39.8984 32.5137 39.7212V38.1781C32.5137 37.7771 32.7289 37.3906 33.0877 37.164C33.1106 37.1465 33.2886 37.0361 33.5124 36.8937C33.8367 36.6874 34.2529 36.4229 34.4451 36.298C34.712 36.1353 34.8699 35.8447 34.8699 35.5221V34.662C34.8699 34.444 34.8211 34.2261 34.7293 34.011V34.0052C34.4767 33.488 33.9486 33.1538 33.3804 33.1538C33.1364 33.1538 32.8896 33.2206 32.66 33.3427L32.3529 33.5316C32.2095 33.3223 31.977 33.1828 31.6986 33.1509H31.6297C31.4604 33.1509 31.3169 33.2962 31.3169 33.4676C31.3169 33.6391 31.4604 33.7844 31.6297 33.7844H31.6555L31.6527 33.7902Z" fill="#151112"/>
<path d="M35.6965 38.9221C35.6965 38.6664 35.9031 38.4571 36.1557 38.4571H38.5091C38.7559 38.4571 38.9568 38.6664 38.9568 38.9221C38.9568 39.0935 39.1003 39.2388 39.2696 39.2388C39.4389 39.2388 39.5824 39.0993 39.5824 38.9221C39.5824 38.4252 39.2696 38.0038 38.8219 37.873V34.0547C38.8219 33.8164 38.7301 33.5897 38.5636 33.4212C38.3971 33.2526 38.1733 33.1567 37.9379 33.1567H37.7514C37.2348 33.1567 36.7699 33.3398 36.4054 33.6885C36.0409 34.0489 35.8486 34.5022 35.8486 35.0049V37.0884C35.8486 37.4662 36.1012 37.7655 36.4542 37.8033C36.5403 37.812 36.6235 37.7859 36.6895 37.7307C36.7527 37.6754 36.7928 37.5999 36.7986 37.5156C36.8158 37.3471 36.6924 37.1931 36.5231 37.1727C36.503 37.1727 36.4714 37.1669 36.4714 37.0884V35.0049C36.4714 34.6853 36.6034 34.383 36.8416 34.1477C37.0798 33.9152 37.4013 33.7873 37.7485 33.7873H37.9351C38.0068 33.7873 38.07 33.8135 38.1188 33.8658C38.1647 33.9123 38.1962 33.9878 38.1962 34.0518V37.8207H36.1557C35.5588 37.8207 35.0737 38.3118 35.0737 38.9192C35.0737 39.0906 35.2172 39.2359 35.3866 39.2359C35.5559 39.2359 35.6994 39.0964 35.6994 38.9192L35.6965 38.9221Z" fill="#151112"/>
<path d="M17.4838 12.0159L12.0997 6.55859H16.5195L21.9064 12.0159H17.4838Z" fill="#F10A01"/>
<path d="M17.8368 5.22461V0.746582L23.2208 6.2039V10.6819L17.8368 5.22461Z" fill="#F10A01"/>
<path d="M15.9741 1.50537H12.8488V4.67282H15.9741V1.50537Z" fill="#F10A01"/>
<path d="M26.4008 12.0159L31.7848 6.55859H36.2074L30.8205 12.0159H26.4008Z" fill="#F10A01"/>
<path d="M25.0834 6.2039L30.4703 0.746582V5.22461L25.0834 10.6819V6.2039Z" fill="#F10A01"/>
<path d="M35.4555 1.50537H32.3301V4.67282H35.4555V1.50537Z" fill="#F10A01"/>
<path d="M24.1517 10.7229L21.9421 12.9609L24.1525 15.1982L26.3621 12.9602L24.1517 10.7229Z" fill="#F10A01"/>
<path d="M24.1516 -0.000173043L21.9424 2.23828L24.1531 4.47517L26.3623 2.23672L24.1516 -0.000173043Z" fill="#F10A01"/>
<path d="M13.5727 10.722L11.3635 12.9604L13.5743 15.1973L15.7835 12.9589L13.5727 10.722Z" fill="#F10A01"/>
<path d="M34.7302 10.7263L32.5206 12.9644L34.731 15.2016L36.9406 12.9636L34.7302 10.7263Z" fill="#F10A01"/>
<path d="M24.1512 21.4403L21.942 23.6787L24.1528 25.9156L26.362 23.6771L24.1512 21.4403Z" fill="#F10A01"/>
<path d="M12.0997 19.3592L17.4838 13.9048H21.9064L16.5195 19.3592H12.0997Z" fill="#F10A01"/>
<path d="M17.8368 20.6932L23.2208 15.2358V19.7168L17.8368 25.1741V20.6932Z" fill="#F10A01"/>
<path d="M15.9741 21.248H12.8488V24.4155H15.9741V21.248Z" fill="#F10A01"/>
<path d="M31.7848 19.3592L26.4008 13.9048H30.8205L36.2074 19.3592H31.7848Z" fill="#F10A01"/>
<path d="M25.0834 19.7168V15.2358L30.4703 20.6932V25.1741L25.0834 19.7168Z" fill="#F10A01"/>
<path d="M35.4555 21.248H32.3301V24.4155H35.4555V21.248Z" fill="#F10A01"/>
</g>
<defs>
<clipPath id="clip0_250_838">
<rect width="48" height="48" fill="white"/>
</clipPath>
</defs>
</svg>
