<svg width="150" height="147" viewBox="0 0 150 147" fill="none" xmlns="http://www.w3.org/2000/svg">
<g opacity="0.2" clip-path="url(#clip0_251_20461)">
<path d="M69.5444 111.742L37.9639 142.666L37.9639 117.282L69.5444 86.3584L69.5444 111.742Z" fill="white"/>
<path d="M30.2435 109.725L4.31641 109.725L35.897 78.8006L61.824 78.8006L30.2435 109.725Z" fill="white"/>
<path d="M8.70801 120.414L8.70801 138.36L27.0363 138.36L27.0363 120.414L8.70801 120.414Z" fill="white"/>
<path d="M69.5444 60.5381L37.9639 29.6141L37.9639 4.2305L69.5444 35.1545L69.5444 60.5381Z" fill="white"/>
<path d="M35.897 68.0962L4.3164 37.1722L30.2435 37.1722L61.824 68.0962L35.897 68.0962Z" fill="white"/>
<path d="M8.70801 8.53627L8.70801 26.4824L27.0363 26.4824L27.0363 8.53627L8.70801 8.53627Z" fill="white"/>
<path d="M74.9997 86.1323L62.0361 73.4556L74.9997 60.7638L87.9632 73.4556L74.9997 86.1323Z" fill="white"/>
<path d="M12.9635 86.1323L-5.54118e-07 73.4556L12.9635 60.7638L25.9119 73.4556L12.9635 86.1323Z" fill="white"/>
<path d="M74.9997 146.896L62.0361 134.205L74.9997 121.513L87.9632 134.205L74.9997 146.896Z" fill="white"/>
<path d="M74.9997 25.3833L62.0361 12.6915L74.9997 -0.000282854L87.9632 12.6915L74.9997 25.3833Z" fill="white"/>
<path d="M137.036 86.1323L124.088 73.4556L137.036 60.7638L150 73.4556L137.036 86.1323Z" fill="white"/>
<path d="M112.037 142.666L80.4561 111.742L80.4561 86.3584L112.037 117.282L112.037 142.666Z" fill="white"/>
<path d="M119.757 109.725L88.1768 78.8006L114.104 78.8006L145.684 109.725L119.757 109.725Z" fill="white"/>
<path d="M122.964 120.414L122.964 138.36L141.292 138.36L141.292 120.414L122.964 120.414Z" fill="white"/>
<path d="M112.037 29.6141L80.4561 60.5381L80.4561 35.1545L112.037 4.2305L112.037 29.6141Z" fill="white"/>
<path d="M114.104 68.0962L88.1768 68.0962L119.757 37.1722L145.684 37.1722L114.104 68.0962Z" fill="white"/>
<path d="M122.964 8.53627L122.964 26.4824L141.292 26.4824L141.292 8.53627L122.964 8.53627Z" fill="white"/>
</g>
<defs>
<clipPath id="clip0_251_20461">
<rect width="146.897" height="150" fill="white" transform="translate(0 146.896) rotate(-90)"/>
</clipPath>
</defs>
</svg>
