<svg width="24" height="24" viewBox="0 0 24 24" fill="none" xmlns="http://www.w3.org/2000/svg">
<path d="M23.1961 17.2372C22.7342 16.8988 22.2695 16.5591 21.7742 16.2726C20.5779 15.5798 19.3882 14.867 18.1479 14.2582C17.2186 13.8012 16.7153 13.9677 16.0143 14.7245C15.6698 15.0949 15.3387 15.4799 15.0209 15.8743C14.8594 16.0741 14.7085 16.1034 14.4722 16.0115C11.3533 14.7978 9.1903 12.6367 7.9753 9.52448C7.8805 9.28067 7.93658 9.13944 8.12751 8.97956C8.59748 8.5852 9.06212 8.18418 9.50272 7.7605C9.96869 7.31018 10.0835 6.76527 9.84853 6.15107C9.06613 4.11797 7.86181 2.32868 6.55602 0.611339C6.04466 -0.0614764 5.26493 -0.251996 4.4438 0.412825C2.67204 1.84905 1.25678 3.58505 0.147258 5.56886C0.0324342 5.77403 -0.027648 6.06314 0.0124068 6.29097C0.148593 7.06104 0.286115 7.83778 0.523773 8.5812C1.37026 11.2325 2.83894 13.5374 4.6147 15.6558C7.06472 18.5815 9.93532 20.989 13.396 22.6517C14.8086 23.3299 16.28 23.8255 17.9636 24C18.0771 23.9614 18.3054 23.9214 18.495 23.8121C20.423 22.713 22.1173 21.3314 23.5499 19.6314C24.3938 18.6308 23.9211 17.7675 23.1961 17.2372ZM19.6539 21.1342C19.2107 21.5139 18.6913 21.8057 18.2373 22.1747C17.8742 22.4718 17.507 22.3453 17.1412 22.2667C15.037 21.8137 13.1477 20.8744 11.3893 19.6673C7.73097 17.1533 4.79495 13.9917 2.80957 9.99878C2.23812 8.85166 1.80953 7.65125 1.63329 6.37357C1.61727 6.251 1.62127 6.10178 1.67602 5.99519C2.21008 4.95999 4.38506 2.43793 5.39177 1.68251C6.53333 3.20001 7.47862 4.80012 8.2677 6.49348C8.30642 6.57741 8.22364 6.76927 8.13952 6.84787C7.61481 7.33949 7.08208 7.82312 6.53466 8.28943C6.15681 8.61318 6.1221 8.9729 6.26496 9.42855C7.2957 12.7154 9.3425 15.1721 12.368 16.7962C13.145 17.2132 14.0169 17.457 14.8434 17.7821C15.1304 17.894 15.3667 17.8061 15.563 17.5916C16.0584 17.052 16.559 16.5178 17.037 15.9635C17.2453 15.721 17.4122 15.6158 17.7326 15.809C19.1439 16.6643 20.5712 17.493 21.9891 18.335C22.112 18.4083 22.2188 18.5082 22.4217 18.6668C21.4778 19.5115 20.5805 20.3415 19.6539 21.1342Z" fill="#151112"/>
</svg>
