<svg width="31" height="32" viewBox="0 0 31 32" fill="none" xmlns="http://www.w3.org/2000/svg">
<g clip-path="url(#clip0_329_22326)">
<path d="M30.2018 18.2801C29.8518 17.7301 29.5018 17.1901 29.1418 16.6501C28.8518 16.2101 28.8618 15.7901 29.1418 15.3501C29.4818 14.8401 29.8118 14.3201 30.1518 13.8001C31.3218 11.9801 30.6418 9.88014 28.6318 9.10014C28.0618 8.88014 27.4918 8.64014 26.9118 8.44014C26.3918 8.26014 26.1418 7.91014 26.1318 7.36014C26.1318 6.78014 26.0918 6.19014 26.0518 5.61014C25.9018 3.30014 24.0918 2.04014 21.8718 2.67014C21.3818 2.81014 20.8718 2.93014 20.3818 3.08014C19.7618 3.27014 19.2918 3.12014 18.9018 2.59014C18.5618 2.12014 18.1818 1.68014 17.8118 1.23014C16.4718 -0.389863 14.2718 -0.389863 12.9318 1.23014C12.5518 1.69014 12.1618 2.15014 11.8018 2.63014C11.4418 3.12014 10.9918 3.27014 10.4018 3.10014C9.89176 2.95014 9.37176 2.83014 8.86176 2.68014C6.68176 2.05014 4.88176 3.26014 4.68176 5.51014C4.63176 6.14014 4.61176 6.77014 4.59176 7.41014C4.58176 7.94014 4.32176 8.27014 3.82176 8.45014C3.23176 8.66014 2.64176 8.90014 2.05176 9.12014C0.111756 9.87014 -0.578244 12.0001 0.541756 13.7601C0.881756 14.2901 1.22176 14.8301 1.57176 15.3501C1.88176 15.8001 1.87176 16.2401 1.57176 16.7001C1.22176 17.2201 0.881756 17.7601 0.531756 18.2901C-0.588244 20.0501 0.121756 22.1701 2.06176 22.9201C2.66176 23.1501 3.27176 23.3801 3.88176 23.6101C4.33176 23.7801 4.57176 24.1001 4.59176 24.5901C4.61176 25.1901 4.64176 25.7901 4.67176 26.3901C4.81176 28.7201 6.63176 30.0001 8.88176 29.3501C9.42176 29.1901 9.97176 29.0701 10.5218 28.9101C11.0418 28.7601 11.4318 28.9301 11.7518 29.3401C12.1518 29.8501 12.5518 30.3601 12.9718 30.8601C14.2718 32.4001 16.4518 32.4001 17.7618 30.8601C18.1218 30.4401 18.4518 30.0101 18.7918 29.5801C19.4318 28.7801 19.5818 28.7401 20.5918 29.0101C21.3718 29.2201 22.1618 29.4101 22.6618 29.5401C24.4918 29.5401 25.7718 28.4601 25.9818 26.9501C26.0818 26.1801 26.1018 25.3901 26.1418 24.6101C26.1618 24.1001 26.4118 23.7801 26.8918 23.6001C27.5118 23.3701 28.1418 23.1401 28.7518 22.8901C30.6418 22.1101 31.3018 20.0201 30.2118 18.3001L30.2018 18.2801ZM27.3618 17.7501C27.6918 18.2701 28.0318 18.7801 28.3618 19.3001C28.8518 20.0701 28.6618 20.6401 27.8018 20.9901C27.1818 21.2301 26.5518 21.4501 25.9418 21.7101C24.7618 22.2201 24.1318 23.1201 24.0518 24.4101C24.0118 25.0901 23.9818 25.7701 23.9418 26.4501C23.9018 27.0501 23.5118 27.4101 22.8018 27.4101C22.1818 27.2501 21.4318 27.0501 20.6718 26.8601C19.3818 26.5301 18.3118 26.8901 17.4518 27.8901C17.0518 28.3601 16.6818 28.8501 16.2818 29.3201C15.6318 30.1101 15.0818 30.1101 14.4518 29.3401C14.0718 28.8801 13.7018 28.4101 13.3218 27.9501C12.4518 26.9001 11.3518 26.5201 10.0218 26.8701C9.41176 27.0301 8.80176 27.1901 8.19176 27.3601C7.36176 27.5801 6.81176 27.1801 6.77176 26.3301C6.74176 25.6801 6.70176 25.0301 6.66176 24.3801C6.58176 23.1201 5.95176 22.2201 4.79176 21.7101C4.17176 21.4401 3.52176 21.2201 2.89176 20.9701C2.06176 20.6401 1.87176 20.0601 2.34176 19.3201C2.68176 18.7901 3.04176 18.2601 3.37176 17.7301C4.09176 16.5701 4.09176 15.4101 3.36176 14.2501C3.01176 13.7001 2.65176 13.1701 2.30176 12.6201C1.88176 11.9501 2.09176 11.3501 2.82176 11.0601C3.47176 10.8001 4.13176 10.5701 4.77176 10.3001C5.95176 9.79014 6.58176 8.89014 6.66176 7.60014C6.70176 6.95014 6.73176 6.30014 6.77176 5.66014C6.81176 4.84014 7.36176 4.43014 8.16176 4.64014C8.79176 4.80014 9.41176 4.98014 10.0418 5.14014C11.3318 5.47014 12.4118 5.11014 13.2718 4.11014C13.6818 3.63014 14.0718 3.13014 14.4718 2.64014C15.0818 1.89014 15.6518 1.90014 16.2718 2.65014C16.6518 3.11014 17.0218 3.58014 17.4018 4.05014C18.2718 5.10014 19.3618 5.48014 20.7018 5.13014C21.3118 4.97014 21.9218 4.81014 22.5318 4.64014C23.3618 4.42014 23.9118 4.82014 23.9518 5.67014C23.9818 6.32014 24.0218 6.97014 24.0618 7.61014C24.1418 8.87014 24.7718 9.77014 25.9218 10.2801C26.5018 10.5301 27.1018 10.7401 27.6818 10.9701C28.7018 11.3701 28.8818 11.9001 28.2918 12.8001C27.9718 13.2901 27.6518 13.7701 27.3418 14.2701C26.6218 15.4301 26.6218 16.5901 27.3518 17.7401L27.3618 17.7501Z" fill="#F2F0ED"/>
<path d="M20.512 12.2199C17.312 15.4299 14.112 18.6199 10.902 21.8299C10.562 22.1699 10.162 22.3299 9.68199 22.1199C9.27199 21.9399 9.07199 21.6299 9.04199 21.0299C9.12199 20.8899 9.21199 20.5899 9.40199 20.3899C12.602 17.1699 15.822 13.9499 19.032 10.7399C19.482 10.2899 20.142 10.2699 20.552 10.6599C20.982 11.0799 20.982 11.7399 20.502 12.2199H20.512Z" fill="#F2F0ED"/>
<path d="M13.242 12.4899C13.222 13.6099 12.272 14.5499 11.152 14.5599C10.002 14.5599 9.06201 13.6299 9.06201 12.4699C9.06201 11.2899 9.96201 10.3999 11.152 10.3999C12.312 10.3999 13.262 11.3599 13.242 12.4899Z" fill="#F2F0ED"/>
<path d="M20.8822 20.0902C20.8922 21.2502 19.9722 22.2002 18.8122 22.2002C17.6522 22.2002 16.7222 21.2702 16.7222 20.1102C16.7222 18.9702 17.6222 18.0502 18.7622 18.0202C19.9122 17.9902 20.8722 18.9302 20.8822 20.0802V20.0902Z" fill="#F2F0ED"/>
</g>
<defs>
<clipPath id="clip0_329_22326">
<rect width="30.72" height="32" fill="white" transform="translate(0.00195312)"/>
</clipPath>
</defs>
</svg>
