<svg width="34" height="51" viewBox="0 0 34 51" fill="none" xmlns="http://www.w3.org/2000/svg">
<g clip-path="url(#clip0_238_641)">
<path d="M7.64532 22.3068C7.61455 26.753 7.53763 31.2145 8.12225 35.6453C8.44532 38.0299 8.89148 40.3837 9.27609 42.753C9.5684 44.5683 9.66071 46.3683 8.90686 48.1068C8.33763 49.3991 7.62994 49.953 6.52225 49.9068C5.27609 49.8607 4.67609 49.0145 4.29148 47.9837C3.64532 46.276 3.66071 44.5068 4.04532 42.7683C5.53763 36.0299 5.79917 29.1837 5.66071 22.3222C5.62994 20.8914 5.12225 19.676 3.9684 18.7837C1.72225 17.0914 0.876093 14.7376 0.953016 12.0607C1.02994 9.15296 1.7684 6.38373 3.22994 3.86065C3.72225 2.98373 4.39917 2.18373 5.13763 1.5068C6.12225 0.614495 7.18378 0.62988 8.18378 1.52219C8.84532 2.1068 9.42994 2.8145 9.89148 3.56834C11.353 5.9068 12.2607 9.29142 12.3222 12.2607C12.3222 14.8607 11.4915 17.153 9.29148 18.8453C8.15302 19.7222 7.64532 20.9222 7.62994 22.3222L7.64532 22.3068Z" fill="#F10A01"/>
<path d="M29.0463 29.26C29.0463 32.7062 28.9233 36.1677 29.5079 39.5985C29.954 42.1677 30.2617 44.7524 30.5848 47.337C30.7694 48.7831 29.9079 49.8601 28.6156 49.9216C27.2002 49.9831 26.2617 49.0293 26.2617 47.5216C26.2617 39.9677 26.2617 32.4139 26.2617 24.86V2.73697C26.2617 2.53697 26.2002 2.3062 26.2617 2.12158C26.4156 1.72158 26.554 1.15235 26.8617 1.02928C27.1694 0.890815 27.7694 1.09081 28.0617 1.33697C29.3233 2.41389 30.0002 3.89082 30.6002 5.38312C31.631 8.01389 32.3079 10.7524 32.6002 13.5524C32.9848 17.137 33.2156 20.737 33.3694 24.337C33.4617 26.7062 32.431 27.7677 30.0771 28.137C29.4156 28.2293 29.0463 28.5985 29.0463 29.26Z" fill="#F10A01"/>
<path d="M20.7527 40.5683C20.9835 42.4144 21.2758 44.2606 21.2758 46.1221C21.2758 47.0606 20.8758 48.0914 20.3835 48.9221C19.4604 50.5067 17.5373 50.4452 16.5681 48.9067C15.7835 47.6606 15.5681 46.2452 15.7373 44.8452C15.9989 42.6914 16.3835 40.5529 16.7835 38.4144C17.7681 33.0606 17.5681 27.6606 17.445 22.2606C17.4143 20.5683 16.8143 18.9221 15.922 17.4914C14.8758 15.7991 14.5373 13.9529 14.645 12.0452C14.8297 8.62982 15.1373 5.21444 15.4297 1.79905C15.4604 1.46059 15.322 0.891361 15.9066 0.937515C16.522 0.983669 16.322 1.5529 16.322 1.92213C16.322 4.92213 16.322 7.90675 16.322 10.9067C16.322 11.3067 16.122 11.9375 16.7681 11.9529C17.4604 11.9529 17.2604 11.2914 17.2604 10.876C17.2604 7.93752 17.2604 4.98367 17.2604 2.04521C17.2604 1.86059 17.2143 1.67598 17.2604 1.50675C17.3373 1.29136 17.4912 1.12213 17.6143 0.92213C17.7527 1.12213 18.0143 1.32213 18.0297 1.52213C18.0604 3.18367 18.045 4.84521 18.045 6.50675V11.1837C18.045 11.5529 18.045 11.9991 18.5373 11.9221C18.722 11.8914 18.9527 11.4452 18.9527 11.1837C18.9835 8.10675 18.9681 5.04521 18.9681 1.96828C18.9681 1.78367 18.922 1.58367 18.9681 1.42982C19.0604 1.22982 19.2297 1.07598 19.3835 0.891361C19.5066 1.06059 19.6758 1.19905 19.7527 1.38367C19.8143 1.56828 19.7681 1.78367 19.7681 1.99905C19.7681 4.96828 19.7681 7.93752 19.7681 10.9067C19.7681 11.1375 19.7373 11.3837 19.8143 11.5837C19.8758 11.7375 20.0912 11.9067 20.245 11.9067C20.3835 11.9067 20.5835 11.7067 20.6297 11.5375C20.7066 11.3375 20.6758 11.0914 20.6758 10.8606C20.6758 7.93752 20.6758 5.01444 20.6758 2.10675C20.6758 1.92213 20.6297 1.72213 20.6758 1.56828C20.7835 1.32213 20.9527 1.10675 21.1066 0.875977C21.2604 1.09136 21.5373 1.30675 21.5527 1.53752C21.7681 3.79905 21.9835 6.07598 22.122 8.33752C22.2297 9.96828 22.2912 11.5991 22.3066 13.2452C22.3066 14.676 21.922 15.9991 21.1373 17.2298C19.8912 19.2144 19.4604 21.4298 19.4758 23.7529C19.4912 26.676 19.3835 29.5991 19.5835 32.5067C19.7681 35.1991 20.322 37.876 20.6604 40.5529L20.7527 40.5683Z" fill="#F10A01"/>
</g>
<defs>
<clipPath id="clip0_238_641">
<rect width="32.4308" height="49.2308" fill="white" transform="translate(0.953125 0.845215)"/>
</clipPath>
</defs>
</svg>
