<svg width="32" height="33" viewBox="0 0 32 33" fill="none" xmlns="http://www.w3.org/2000/svg">
<g clip-path="url(#clip0_329_22346)">
<path d="M31.7618 19.1499C31.4118 18.2366 31.0018 17.3333 30.6618 16.41C30.5818 16.1892 30.5918 15.8881 30.6618 15.6673C30.9918 14.774 31.3818 13.9109 31.7318 13.0276C32.3118 11.5623 31.8618 10.2174 30.5218 9.39442C29.6318 8.84241 28.7318 8.30043 27.8218 7.77853C27.4918 7.58784 27.3118 7.357 27.2318 6.97561C27.0518 6.11247 26.8418 5.24933 26.6018 4.40626C26.2118 3.01118 25.1518 2.23836 23.7118 2.29858C22.6018 2.34877 21.4918 2.47924 20.3718 2.53946C20.1418 2.5495 19.8518 2.45917 19.6718 2.31866C19.0618 1.82686 18.4918 1.28489 17.9018 0.773028C16.7118 -0.260735 15.2418 -0.250699 14.0518 0.773028C13.4518 1.29493 12.8618 1.84694 12.2418 2.3588C12.0818 2.48928 11.8318 2.55953 11.6218 2.5495C10.5118 2.48928 9.4018 2.37887 8.3818 2.29858C6.8218 2.2484 5.8018 2.96099 5.3518 4.35607C5.0418 5.33965 4.7418 6.33327 4.4018 7.30682C4.3318 7.51758 4.1618 7.73839 3.9718 7.85883C3.1018 8.41084 2.1918 8.91266 1.3218 9.45464C0.121796 10.2074 -0.328204 11.5723 0.181796 12.8972C0.541796 13.8306 0.951796 14.7439 1.3018 15.6773C1.3818 15.878 1.3818 16.1691 1.3018 16.3798C0.961796 17.2831 0.561796 18.1664 0.211796 19.0696C-0.358204 20.535 0.0917964 21.8698 1.4418 22.6928C2.3518 23.2448 3.2818 23.7667 4.1718 24.3489C4.3918 24.4894 4.5918 24.7704 4.6618 25.0213C4.8918 25.8242 5.0618 26.6372 5.2618 27.4502C5.6618 29.0861 6.9018 29.9493 8.5418 29.7786C9.5518 29.6783 10.5618 29.5879 11.5718 29.5277C11.7718 29.5177 12.0318 29.608 12.1918 29.7385C12.8118 30.2403 13.4018 30.7923 14.0018 31.3142C15.2118 32.3681 16.6818 32.3781 17.8918 31.3243C18.5018 30.8024 19.0818 30.2503 19.7018 29.7485C19.8718 29.608 20.1418 29.5177 20.3618 29.5277C21.3718 29.5879 22.3818 29.6783 23.3918 29.7786C24.9518 29.9392 26.1618 29.1363 26.5918 27.6107C26.8318 26.7476 27.0018 25.8543 27.2418 24.9912C27.3018 24.7604 27.4818 24.5094 27.6818 24.389C28.6218 23.7868 29.5918 23.2348 30.5418 22.6527C31.8018 21.8698 32.2618 20.5149 31.7218 19.1399L31.7618 19.1499ZM28.7118 16.6007C29.0718 17.6244 29.5118 18.608 29.9218 19.6116C30.2318 20.3744 30.1218 20.7457 29.4218 21.1572C28.3718 21.7895 27.3118 22.4319 26.2518 23.0541C25.8618 23.285 25.6518 23.5961 25.5618 24.0377C25.3518 25.0313 25.1018 26.0149 24.8618 27.0085C24.7018 27.691 24.3918 27.9219 23.6818 27.8918C23.4318 27.8918 23.1818 27.8617 22.9318 27.8516C21.9318 27.7713 20.9418 27.6509 19.9418 27.6308C19.5918 27.6308 19.1818 27.7613 18.9018 27.9721C18.1718 28.5441 17.4918 29.1965 16.7918 29.8087C16.1618 30.3708 15.7818 30.3607 15.1318 29.8087C14.4918 29.2467 13.8418 28.7047 13.2218 28.1126C12.7918 27.691 12.3218 27.5606 11.7318 27.6308C10.5918 27.7512 9.4418 27.8215 8.2918 27.8918C7.5618 27.9419 7.2418 27.691 7.0818 26.9985C6.8418 25.9949 6.6018 24.9912 6.3718 23.9775C6.2818 23.566 6.0618 23.2649 5.6918 23.0441C4.6218 22.4218 3.5718 21.7895 2.5118 21.1472C1.8418 20.7457 1.7118 20.3644 2.0118 19.6417C2.4218 18.618 2.8718 17.6143 3.2418 16.5806C3.3618 16.2494 3.3518 15.8178 3.2418 15.4866C2.8918 14.4829 2.4518 13.5094 2.0518 12.5158C1.7118 11.6727 1.8118 11.3515 2.6118 10.8698C3.5218 10.3278 4.4418 9.7758 5.3618 9.23383C5.7318 9.02306 5.9518 8.732 6.0718 8.32051C6.3918 7.21649 6.7418 6.1225 7.0918 5.01848C7.3118 4.31593 7.6018 4.12523 8.3518 4.18545C9.6118 4.27578 10.8718 4.39622 12.1418 4.4464C12.4518 4.45644 12.8318 4.30589 13.0818 4.10516C13.8218 3.513 14.5118 2.85059 15.2218 2.22833C15.7718 1.75661 16.1818 1.75661 16.7218 2.22833C17.4218 2.84056 18.1318 3.46282 18.8118 4.09512C19.1418 4.39622 19.5018 4.50662 19.9518 4.46648C21.2118 4.34604 22.4718 4.26574 23.7418 4.18545C24.3518 4.14531 24.6818 4.40626 24.8418 5.03856C25.0918 6.04221 25.3318 7.04587 25.5518 8.05956C25.6418 8.50116 25.8618 8.80226 26.2518 9.0331C27.3118 9.65537 28.3718 10.2977 29.4218 10.94C30.1018 11.3515 30.2218 11.7129 29.9218 12.4455C29.5118 13.4693 29.0518 14.4729 28.6918 15.5067C28.5818 15.8278 28.5818 16.2694 28.6918 16.6007H28.7118Z" fill="#F2F0ED"/>
<path d="M15.9621 5.72072C10.2821 5.72072 5.70215 10.3476 5.70215 16.0584C5.70215 21.7691 10.2921 26.3759 15.9721 26.386C21.6821 26.386 26.2922 21.7792 26.2822 16.0483C26.2822 10.3175 21.6821 5.71068 15.9621 5.72072ZM15.9621 24.4991C11.3121 24.4991 7.57215 20.7354 7.57215 16.0584C7.57215 11.3813 11.3121 7.60759 16.0021 7.60759C20.6521 7.60759 24.3921 11.3713 24.3921 16.0483C24.3921 20.7454 20.6421 24.4991 15.9521 24.4991H15.9621Z" fill="#F2F0ED"/>
<path d="M21.2219 14.021C19.4319 15.8176 17.6519 17.6141 15.8619 19.4107C15.3119 19.9627 14.8219 19.9627 14.2619 19.4107C13.0919 18.2464 11.9319 17.0822 10.7719 15.9079C10.3019 15.4261 10.2619 14.844 10.6619 14.4526C11.0919 14.0411 11.5919 14.0812 12.1019 14.5931C12.9519 15.4362 13.8019 16.2893 14.6419 17.1424C14.7719 17.2729 14.8519 17.4435 15.0119 17.6844C15.6519 17.0119 16.1719 16.4499 16.7019 15.9079C17.7519 14.844 18.8119 13.7802 19.8719 12.7163C20.3619 12.2345 20.9119 12.1743 21.3219 12.5758C21.7219 12.9672 21.6819 13.5593 21.2119 14.0311L21.2219 14.021Z" fill="#F2F0ED"/>
</g>
<defs>
<clipPath id="clip0_329_22346">
<rect width="31.98" height="32.1169" fill="white" transform="translate(0.00195312)"/>
</clipPath>
</defs>
</svg>
