<svg width="60" height="60" viewBox="0 0 60 60" fill="none" xmlns="http://www.w3.org/2000/svg">
<circle cx="30" cy="30" r="30" fill="#F10A01"/>
<path d="M44.7998 26.1605C44.7766 25.1473 44.6363 24.1401 44.3816 23.1591C43.771 20.9607 42.4971 19.0041 40.7336 17.5563C38.9701 16.1085 36.8029 15.24 34.5276 15.0692C33.1682 14.9731 31.7954 15.0529 30.4283 15.0529V15C30.1678 15 29.9072 15 29.6467 15C28.1383 15.0288 26.6299 14.9317 25.1331 15.2086C20.0378 16.144 16.1318 20.699 16.0337 25.8731C16.001 27.618 15.978 29.3648 16.0337 31.1078C16.1683 35.5301 18.2141 38.8054 22.0702 40.9512C22.3336 41.0993 22.4345 41.2396 22.4307 41.5482C22.4153 43.1508 22.4307 44.7525 22.422 46.3551C22.422 46.6742 22.5018 46.9675 22.8402 46.9982C23.0325 47.0165 23.294 46.8906 23.4411 46.7454C24.844 45.3668 26.2354 43.977 27.6153 42.5759C27.7249 42.4515 27.861 42.3532 28.0135 42.2883C28.1661 42.2234 28.3313 42.1936 28.4969 42.201C30.0351 42.2241 31.5733 42.2298 33.1115 42.201C33.9439 42.2011 34.7753 42.1426 35.5995 42.026C40.6563 41.2223 44.6989 36.5856 44.8104 31.4721C44.8412 29.709 44.8652 27.9295 44.7998 26.1605ZM35.9966 25.9192C35.5668 23.9484 33.8537 22.6121 31.7665 22.6121C31.6887 22.6189 31.5589 22.6352 31.4301 22.6429C31.0801 22.664 30.8225 22.4679 30.7907 22.1622C30.759 21.8565 30.9753 21.5998 31.3272 21.5642C32.1449 21.4771 32.9716 21.5842 33.7402 21.8767C34.7671 22.2704 35.6479 22.9705 36.2631 23.8821C36.8783 24.7936 37.1981 25.8724 37.179 26.9719C37.1797 27.1157 37.17 27.2593 37.1502 27.4017C37.0954 27.7497 36.8368 27.9698 36.5455 27.9285C36.2542 27.8872 36.0648 27.6218 36.0648 27.2738C36.0542 26.8248 36.0927 26.3538 35.9966 25.9192ZM35.0535 26.8306C35.0467 27.1738 34.8448 27.4199 34.5516 27.4074C34.2324 27.393 34.0632 27.2007 34.0219 26.8864C33.8508 25.5405 33.2384 24.931 31.9069 24.7656C31.5771 24.7252 31.356 24.483 31.3906 24.1984C31.4281 23.8821 31.679 23.7283 32.1299 23.7408C33.7008 23.7879 35.0852 25.2501 35.0515 26.8306H35.0535ZM37.8011 36.03C37.2694 36.5847 36.7128 37.1163 36.1533 37.6412C35.6726 38.0959 35.0688 38.2344 34.4228 38.218C33.1124 38.1738 31.9319 37.6989 30.8244 37.0509C27.2029 34.9282 24.3601 32.0403 22.4162 28.3025C21.8308 27.1757 21.4212 25.9817 21.5029 24.6762C21.5271 24.0712 21.7848 23.4992 22.2221 23.0803C22.6883 22.6275 23.1421 22.1584 23.6045 21.7007C24.3044 21.0105 25.2773 20.9701 25.98 21.6565C26.7991 22.4545 27.598 23.2793 28.3671 24.1282C29.1362 24.9771 28.7959 26.2105 27.748 26.6278C26.7616 27.0219 26.3742 27.7526 26.753 28.7428C27.4961 30.6857 28.868 32.0605 30.7907 32.8546C31.6223 33.1978 32.4866 32.7767 32.8586 31.9528C33.4028 30.7453 34.6458 30.5252 35.5764 31.4779C36.3128 32.2326 37.0435 32.992 37.7761 33.7506C38.4144 34.4283 38.4394 35.3618 37.7991 36.03H37.8011ZM39.1691 28.4813C39.1037 28.8822 38.8211 29.085 38.4961 29.0081C38.1712 28.9312 38.05 28.6841 38.1337 28.2736C38.946 24.2628 36.0437 20.6106 31.9463 20.4865C31.7636 20.4817 31.581 20.4865 31.3993 20.4798C31.0897 20.4692 30.8628 20.3404 30.8311 20.0087C30.8013 19.7049 31.0445 19.4694 31.3964 19.4473C33.8191 19.2944 35.8399 20.1539 37.453 21.9372C38.7095 23.3226 39.3181 24.9819 39.3517 27.1161C39.3123 27.4017 39.2537 27.942 39.1691 28.4813Z" fill="white"/>
</svg>
