<svg width="20" height="20" viewBox="0 0 20 20" fill="none" xmlns="http://www.w3.org/2000/svg">
<g clip-path="url(#clip0_501_12681)">
<path d="M18.6597 19.2035L17.6249 5.5721C17.6005 5.24635 17.3286 4.99438 17.0016 4.99438H2.98506C2.65806 4.99438 2.38609 5.24635 2.3617 5.57273L1.31818 19.3279C1.30505 19.5011 1.36508 19.6724 1.48325 19.7999C1.60142 19.9275 1.76773 20 1.94154 20H18.0457C18.0495 20 18.0538 20 18.0582 20C18.4033 20 18.6834 19.7199 18.6834 19.3742C18.6834 19.3154 18.6753 19.2579 18.6597 19.2035ZM2.61555 18.7495L3.56465 6.24485H16.422L17.3711 18.7495H2.61555Z" fill="#121212"/>
<path d="M9.99211 0C7.2342 0 4.99023 2.24459 4.99023 5.00313V7.49531C4.99023 7.84044 5.27034 8.12054 5.61547 8.12054C5.9606 8.12054 6.2407 7.84044 6.2407 7.49531V5.00313C6.2407 2.9336 7.92321 1.25047 9.99211 1.25047C12.061 1.25047 13.7435 2.9336 13.7435 5.00313V7.49531C13.7435 7.84044 14.0236 8.12054 14.3688 8.12054C14.7139 8.12054 14.994 7.84044 14.994 7.49531V5.00313C14.994 2.24459 12.75 0 9.99211 0Z" fill="#121212"/>
</g>
<defs>
<clipPath id="clip0_501_12681">
<rect width="20" height="20" fill="white"/>
</clipPath>
</defs>
</svg>
