<svg xmlns="http://www.w3.org/2000/svg" width="32" height="32" viewBox="0 0 32 32" fill="none">
<path d="M31.6693 8.06123C31.3813 4.87296 29.792 2.44177 26.816 1.04491C25.5253 0.458436 24.128 0.149206 22.7093 0.149206C18.944 0.0958901 15.1787 0.0532377 11.4133 0.0639008C10.0373 0.0532377 8.66133 0.159869 7.30667 0.383794C4.064 0.948939 1.76 2.77233 0.693333 5.93928C0.341333 6.98426 0.149333 8.0719 0.106667 9.18086C0.0106667 12.9556 0 16.741 0 20.5264C0.0106667 21.6887 0.0746667 22.8403 0.202667 23.9919C0.608 28.0332 3.38133 31.0509 7.40267 31.6267C9.39733 31.9146 11.4453 31.9466 13.4613 31.9466C16.9387 31.9466 20.416 31.9679 23.8827 31.7227C28.192 31.4135 31.3173 28.2252 31.6907 23.9066C31.904 21.2942 31.904 18.671 32.0107 16.0159C31.904 13.3715 31.9147 10.7057 31.6693 8.06123ZM28.8427 23.3415C28.7787 25.8047 27.552 27.7134 25.088 28.5237C24.128 28.833 23.1147 28.9929 22.1013 29.0036C17.9947 29.0569 13.888 29.0676 9.77067 29.0036C8.672 28.9929 7.57333 28.801 6.53867 28.4278C4.21333 27.5854 3.18933 25.6874 3.02933 23.3415C2.86933 20.889 2.86933 18.4151 2.79467 16.0053C2.86933 13.5527 2.86933 11.1535 3.01867 8.74367C3.22133 5.40612 5.33333 3.19886 8.672 3.10289C13.5147 2.97493 18.336 2.97493 23.1573 3.10289C26.5707 3.19886 28.7467 5.37413 28.8427 8.80765C28.9813 13.6487 28.96 18.5004 28.8427 23.3415Z" fill="white"/>
<path d="M26.3786 7.42138V7.45337C26.4 8.49835 25.5786 9.36206 24.5333 9.38339H24.5226V9.37273C23.4666 9.40472 22.592 8.57299 22.56 7.51735C22.528 6.4617 23.36 5.58732 24.416 5.55533C25.4613 5.53401 26.3466 6.36573 26.3786 7.42138Z" fill="white"/>
<path d="M15.9787 7.80527C11.456 7.78394 7.76532 11.4414 7.74399 15.9625C7.72266 20.4837 11.3813 24.1731 15.904 24.1945V24.2051H15.9573C20.48 24.2051 24.1387 20.537 24.1387 16.0159C24.1493 11.4947 20.4907 7.82659 15.9787 7.80527ZM15.9467 21.3261C13.0027 21.3261 10.624 18.9482 10.624 16.0052C10.624 13.0622 13.0027 10.6843 15.9467 10.6843H15.9573C18.8907 10.695 21.2693 13.0728 21.2693 16.0052C21.2693 18.9376 18.8907 21.3261 15.9467 21.3261Z" fill="white"/>
</svg>