<svg width="116" height="28" viewBox="0 0 116 28" fill="none" xmlns="http://www.w3.org/2000/svg">
<path d="M17.2331 2.38298C17.3183 2.24113 17.3466 2.15603 17.3183 2.12766C17.3183 2.07092 17.219 2.04255 17.0204 2.04255C12.5665 2.04255 9.43173 2.14184 7.61612 2.34043C5.80052 2.51064 4.46719 2.92199 3.61612 3.57447C2.79343 4.22695 2.05584 5.37589 1.40336 7.02128C1.34662 7.07801 1.28988 7.10638 1.23314 7.10638C1.14804 7.10638 1.06293 7.0922 0.977825 7.06383C0.892719 7.00709 0.86435 6.96454 0.892718 6.93617L2.59485 0.0425529C2.59485 0.0141845 2.65158 0 2.76506 0C3.04875 0 3.16222 0.0425528 3.10548 0.127658C3.07712 0.212765 3.06293 0.32624 3.06293 0.468084C3.06293 0.80851 3.21896 1.03546 3.53102 1.14894C3.87144 1.26241 4.53811 1.31915 5.53102 1.31915H21.0629C21.2048 1.31915 21.3041 1.39007 21.3608 1.53192C21.4459 1.67376 21.4459 1.78723 21.3608 1.87234L5.3608 26.766C5.24733 26.9078 5.20477 27.0071 5.23314 27.0638C5.26151 27.0922 5.3608 27.1064 5.53102 27.1064H15.6587C17.4459 27.1064 18.8927 26.6667 19.9991 25.7872C21.1055 24.8794 21.8147 23.5887 22.1268 21.9149C22.1551 21.8582 22.2402 21.8298 22.3821 21.8298C22.5239 21.8298 22.5948 21.8582 22.5948 21.9149L21.9991 27.5745C21.9991 27.6596 21.9565 27.7589 21.8714 27.8723C21.8147 27.9574 21.7296 28 21.6161 28C17.3892 27.9433 10.5948 27.9149 1.23314 27.9149C1.11967 27.9149 1.03456 27.8582 0.977825 27.7447C0.921087 27.6028 0.935272 27.4752 1.02038 27.3617L17.2331 2.38298Z" fill="#121212"/>
<path d="M54.8781 27.4043C54.9632 27.4043 55.0058 27.4894 55.0058 27.6596C55.0058 27.8298 54.9632 27.9149 54.8781 27.9149C53.9703 27.9149 53.2469 27.9007 52.7079 27.8723L49.6441 27.8298L46.2823 27.8723C45.8001 27.9007 45.1334 27.9149 44.2823 27.9149C44.1972 27.9149 44.1547 27.8298 44.1547 27.6596C44.1547 27.4894 44.1972 27.4043 44.2823 27.4043C45.3604 27.4043 46.1547 27.3333 46.6653 27.1915C47.176 27.0496 47.5164 26.7801 47.6866 26.383C47.8568 25.9574 47.9419 25.3192 47.9419 24.4681V14.5532H32.4526V24.4681C32.4526 25.3192 32.5377 25.9574 32.7079 26.383C32.8781 26.7801 33.2185 27.0496 33.7292 27.1915C34.2398 27.3333 35.0341 27.4043 36.1121 27.4043C36.1689 27.4043 36.1972 27.4894 36.1972 27.6596C36.1972 27.8298 36.1689 27.9149 36.1121 27.9149C35.2043 27.9149 34.4809 27.9007 33.9419 27.8723L30.6653 27.8298L27.644 27.8723C27.105 27.9007 26.3675 27.9149 25.4313 27.9149C25.3745 27.9149 25.3462 27.8298 25.3462 27.6596C25.3462 27.4894 25.3745 27.4043 25.4313 27.4043C26.4809 27.4043 27.2469 27.3333 27.7292 27.1915C28.2398 27.0496 28.5802 26.7801 28.7504 26.383C28.949 25.9574 29.0483 25.3192 29.0483 24.4681V4.76596C29.0483 3.91489 28.9632 3.29078 28.793 2.89362C28.6228 2.49645 28.2965 2.22695 27.8143 2.0851C27.332 1.91489 26.566 1.82979 25.5164 1.82979C25.4313 1.82979 25.3887 1.74468 25.3887 1.57447C25.3887 1.40426 25.4313 1.31915 25.5164 1.31915L27.6866 1.3617C28.8781 1.41844 29.871 1.44681 30.6653 1.44681C31.5731 1.44681 32.6795 1.41844 33.9845 1.3617L36.1121 1.31915C36.1689 1.31915 36.1972 1.40426 36.1972 1.57447C36.1972 1.74468 36.1689 1.82979 36.1121 1.82979C35.0625 1.82979 34.2823 1.91489 33.7717 2.0851C33.2611 2.25532 32.9065 2.55319 32.7079 2.97872C32.5377 3.37589 32.4526 4 32.4526 4.85106V13.5745H47.9419V4.85106C47.9419 4 47.8426 3.37589 47.6441 2.97872C47.4738 2.55319 47.1334 2.25532 46.6228 2.0851C46.1405 1.91489 45.3604 1.82979 44.2823 1.82979C44.1972 1.82979 44.1547 1.74468 44.1547 1.57447C44.1547 1.40426 44.1972 1.31915 44.2823 1.31915L46.2823 1.3617C47.5873 1.41844 48.7079 1.44681 49.6441 1.44681C50.4384 1.44681 51.4597 1.41844 52.7079 1.3617L54.8781 1.31915C54.9632 1.31915 55.0058 1.40426 55.0058 1.57447C55.0058 1.74468 54.9632 1.82979 54.8781 1.82979C53.8284 1.82979 53.0625 1.91489 52.5802 2.0851C52.098 2.22695 51.7575 2.49645 51.5589 2.89362C51.3887 3.29078 51.3036 3.91489 51.3036 4.76596V24.4681C51.3036 25.3192 51.3887 25.9574 51.5589 26.383C51.7575 26.7801 52.098 27.0496 52.5802 27.1915C53.0625 27.3333 53.8284 27.4043 54.8781 27.4043Z" fill="#121212"/>
<path d="M86.399 27.4043C86.5125 27.4043 86.5692 27.4894 86.5692 27.6596C86.5692 27.8298 86.5125 27.9149 86.399 27.9149C85.86 27.9149 84.9948 27.8865 83.8033 27.8298C82.6685 27.773 81.8316 27.7447 81.2926 27.7447C80.6402 27.7447 79.8317 27.773 78.8671 27.8298C77.9026 27.8865 77.1792 27.9149 76.6969 27.9149C76.5834 27.9149 76.5267 27.8298 76.5267 27.6596C76.5267 27.4894 76.5834 27.4043 76.6969 27.4043C77.6614 27.4043 78.3565 27.3191 78.782 27.1489C79.2075 26.9504 79.4203 26.6099 79.4203 26.1277C79.4203 25.6454 79.2075 24.9787 78.782 24.1277L74.0161 14.2553H66.1863L62.6969 22.2979C62.2997 23.234 62.1012 24.0142 62.1012 24.6383C62.1012 26.4823 63.4771 27.4043 66.2288 27.4043C66.3707 27.4043 66.4416 27.4894 66.4416 27.6596C66.4416 27.8298 66.3707 27.9149 66.2288 27.9149C65.7182 27.9149 64.9806 27.8865 64.0161 27.8298C62.938 27.773 62.0019 27.7447 61.2076 27.7447C60.47 27.7447 59.5905 27.773 58.5692 27.8298C57.6614 27.8865 56.9239 27.9149 56.3565 27.9149C56.243 27.9149 56.1863 27.8298 56.1863 27.6596C56.1863 27.4894 56.243 27.4043 56.3565 27.4043C57.1508 27.4043 57.8175 27.2482 58.3565 26.9362C58.9239 26.6241 59.4629 26.0851 59.9735 25.3191C60.4841 24.5532 61.0657 23.4184 61.7182 21.9149L70.782 1.02128C70.8104 0.936169 70.9097 0.893615 71.0799 0.893615C71.2501 0.865247 71.3494 0.907801 71.3778 1.02128L81.6331 22.0851C82.5976 24.156 83.4203 25.5603 84.1012 26.2979C84.782 27.0355 85.548 27.4043 86.399 27.4043ZM66.5693 13.2766H73.548L69.8884 5.61702L66.5693 13.2766Z" fill="#121212"/>
<path d="M115.848 27.4043C115.905 27.4043 115.933 27.4894 115.933 27.6596C115.933 27.8298 115.905 27.9149 115.848 27.9149H109.678C108.997 27.9149 107.706 26.7092 105.806 24.2979C103.933 21.8582 101.692 18.5248 99.0822 14.2979C98.4297 14.4397 97.8056 14.5106 97.2099 14.5106C96.6709 14.5106 95.9758 14.4823 95.1248 14.4255V24.4681C95.1248 25.3192 95.2099 25.9574 95.3801 26.383C95.5503 26.7801 95.8624 27.0496 96.3163 27.1915C96.7985 27.3333 97.5503 27.4043 98.5716 27.4043C98.6567 27.4043 98.6992 27.4894 98.6992 27.6596C98.6992 27.8298 98.6567 27.9149 98.5716 27.9149C97.6921 27.9149 96.9971 27.9007 96.4865 27.8723L93.4226 27.8298L90.4439 27.8723C89.9049 27.9007 89.1815 27.9149 88.2737 27.9149C88.1886 27.9149 88.146 27.8298 88.146 27.6596C88.146 27.4894 88.1886 27.4043 88.2737 27.4043C89.295 27.4043 90.0468 27.3333 90.529 27.1915C91.0113 27.0496 91.3375 26.7801 91.5077 26.383C91.678 25.9574 91.7631 25.3192 91.7631 24.4681V4.76596C91.7631 3.91489 91.678 3.29078 91.5077 2.89362C91.3375 2.49645 91.0113 2.22695 90.529 2.0851C90.0751 1.91489 89.3375 1.82979 88.3163 1.82979C88.2595 1.82979 88.2311 1.74468 88.2311 1.57447C88.2311 1.40426 88.2595 1.31915 88.3163 1.31915L90.4439 1.3617C91.6921 1.41844 92.685 1.44681 93.4226 1.44681C93.9333 1.44681 94.4155 1.43262 94.8694 1.40425C95.3233 1.37589 95.7205 1.34752 96.0609 1.31915C96.9971 1.23404 97.8765 1.19149 98.6992 1.19149C101.111 1.19149 102.969 1.67376 104.274 2.6383C105.579 3.57447 106.231 4.87943 106.231 6.55319C106.231 7.88652 105.834 9.14894 105.04 10.3404C104.245 11.5319 103.21 12.4965 101.933 13.234C104.316 16.8369 106.302 19.6596 107.891 21.7021C109.508 23.7163 110.94 25.1773 112.189 26.0851C113.437 26.9645 114.657 27.4043 115.848 27.4043ZM95.1248 13.3191C96.2028 13.4326 97.0397 13.4894 97.6354 13.4894C99.451 13.4894 100.742 13.0922 101.508 12.2979C102.302 11.4752 102.699 10.0709 102.699 8.08511C102.699 5.84397 102.274 4.25532 101.423 3.31915C100.572 2.38298 99.3943 1.91489 97.8907 1.91489C97.1531 1.91489 96.5858 1.98582 96.1886 2.12766C95.8198 2.2695 95.5503 2.55319 95.3801 2.97872C95.2099 3.37589 95.1248 4 95.1248 4.85106V13.3191Z" fill="#121212"/>
</svg>
