<svg width="68" height="68" viewBox="0 0 68 68" fill="none" xmlns="http://www.w3.org/2000/svg">
<g clip-path="url(#clip0_403_3475)">
<path d="M64.9803 52.2996L54.2905 29.4749C54.0573 28.9767 53.4641 28.7623 52.9658 28.9953C52.4676 29.2287 52.2529 29.8218 52.4862 30.32L63.1758 53.1441C63.654 54.1666 63.2114 55.3881 62.1893 55.8671L41.6941 65.4652C40.6721 65.944 39.4509 65.5019 38.9718 64.4797L35.14 56.2956L45.1134 32.2325C45.5444 31.1925 45.5202 30.0103 45.0474 28.9888L39.5921 17.2047L46.6634 19.4418C47.2076 19.6137 47.6581 20.0084 47.8998 20.5258L50.5191 26.1165C50.6885 26.478 51.0473 26.6902 51.4219 26.6902C51.5633 26.6902 51.7072 26.6598 51.8438 26.5959C52.342 26.3626 52.5566 25.7693 52.3231 25.2711L49.7042 19.6814C49.2277 18.6611 48.338 17.8814 47.2638 17.5422L38.7358 14.8442C40.494 12.2759 42.3461 8.84146 42.9833 7.30388C44.6544 3.2722 43.3057 1.03005 41.4864 0.275932C39.667 -0.477916 37.1277 0.152814 35.4567 4.18449C34.738 5.9185 34.0786 9.69492 33.6096 12.9346C33.0515 12.9693 32.4905 13.0862 31.9441 13.2951L19.0417 18.2248C18.0095 18.6193 17.1748 19.4311 16.7516 20.4517L2.95167 53.7487C2.53849 54.7456 2.53822 55.8435 2.95101 56.8406C3.36366 57.8376 4.13995 58.6142 5.13671 59.0272L9.17291 60.7C9.68119 60.9106 10.2641 60.6694 10.4746 60.1612C10.6853 59.6529 10.4441 59.0701 9.93579 58.8595L5.89959 57.1866C5.39451 56.9772 5.00098 56.5837 4.7918 56.0784C4.58262 55.573 4.58275 55.0166 4.7922 54.5114L18.5926 21.2141C18.8071 20.6968 19.2301 20.2853 19.7532 20.0854L32.6556 15.1557C32.8773 15.0709 33.1027 15.0096 33.3291 14.9696C33.206 15.9053 33.1061 16.7235 33.0339 17.3369C32.6114 17.361 32.1929 17.4653 31.798 17.6502C30.9839 18.0313 30.367 18.7068 30.061 19.5521C29.7549 20.3974 29.7963 21.3112 30.1775 22.1253C30.749 23.3459 31.9642 24.0633 33.2306 24.0633C33.7078 24.0633 34.1925 23.9613 34.6526 23.7459C35.4668 23.3647 36.0837 22.6891 36.3898 21.844C36.6958 20.9987 36.6545 20.0849 36.2733 19.2708C35.9894 18.6646 35.5421 18.1681 34.9832 17.8275C35.0573 17.1932 35.1703 16.2577 35.3137 15.1688C36.176 15.5048 36.9131 16.1597 37.3275 17.055L43.2393 29.8254C43.479 30.343 43.4911 30.9424 43.2726 31.4694L29.4815 64.7443C29.2722 65.2494 28.8787 65.6429 28.3733 65.8521C27.8681 66.0614 27.3116 66.0611 26.8064 65.8518L14.4815 60.7437C13.9734 60.5328 13.3904 60.7742 13.1798 61.2825C12.9692 61.7908 13.2103 62.3736 13.7186 62.5842L26.0435 67.6923C26.5475 67.9013 27.0704 68.0001 27.5849 68.0001C29.1706 68.0001 30.6782 67.0607 31.3219 65.507L34.1069 58.7879L37.1674 65.3247C37.8537 66.7893 39.3124 67.6505 40.8319 67.6505C41.4048 67.6505 41.9868 67.5281 42.5391 67.2692L63.0343 57.6712C65.0508 56.7263 65.9238 54.317 64.9803 52.2996ZM34.5165 21.1656C34.3916 21.5104 34.1399 21.786 33.8076 21.9416C33.1221 22.2628 32.3029 21.9661 31.9817 21.2805C31.8262 20.9484 31.8093 20.5755 31.9342 20.2306C32.059 19.8858 32.3107 19.6102 32.6429 19.4546C32.828 19.3678 33.0258 19.3243 33.2243 19.3243C33.382 19.3243 33.54 19.3518 33.6926 19.407C34.0374 19.5319 34.313 19.7835 34.4687 20.1157C34.6245 20.448 34.6414 20.8207 34.5165 21.1656ZM37.0265 13.8148C36.58 13.5318 36.0963 13.312 35.5907 13.1612C36.0398 10.0524 36.656 6.49584 37.2977 4.94711C37.7497 3.85631 38.9884 1.39741 40.7239 2.11633C42.4592 2.83564 41.5953 5.4502 41.1431 6.54087C40.5305 8.01881 38.7244 11.3588 37.0265 13.8148Z" fill="#958677"/>
<path d="M20.5086 33.5875C22.6668 32.4388 25.1432 32.1991 27.4818 32.9132C31.3634 34.0982 33.9688 37.6183 33.9651 41.6725C33.9646 42.2226 34.4101 42.6692 34.9604 42.6697C34.9607 42.6697 34.9609 42.6697 34.9613 42.6697C35.511 42.6697 35.957 42.2242 35.9576 41.6744C35.9597 39.3352 35.1988 37.0004 33.8151 35.1001C32.3838 33.1346 30.3949 31.7194 28.0634 31.0075C22.1852 29.2132 15.9434 32.5354 14.1492 38.4133C13.28 41.2608 13.5716 44.2762 14.9705 46.9043C16.3693 49.5324 18.7076 51.4585 21.555 52.3277C22.6192 52.6526 23.7162 52.8138 24.8111 52.8138C26.368 52.8138 27.9198 52.4874 29.3624 51.8411C31.7952 50.7512 33.7575 48.8294 34.888 46.4296C35.1226 45.932 34.9091 45.3383 34.4115 45.1039C33.9138 44.8692 33.3201 45.0828 33.0857 45.5804C31.1642 49.6595 26.4576 51.7412 22.137 50.422C19.7986 49.7083 17.8782 48.1265 16.7294 45.9682C15.5807 43.81 15.3411 41.3335 16.0551 38.995C16.7686 36.6567 18.3505 34.7362 20.5086 33.5875Z" fill="#958677"/>
<path d="M28.6407 38.9563C28.4023 38.5081 28.0036 38.1796 27.5179 38.0315L27.0654 37.8933L27.3729 36.8861C27.5335 36.3599 27.2372 35.803 26.7111 35.6424C26.1846 35.4821 25.6281 35.7782 25.4674 36.3042L25.1531 37.3343C23.8258 37.1052 22.5004 37.8936 22.0973 39.2146C21.8856 39.908 21.9566 40.6424 22.2973 41.2823C22.6378 41.9222 23.2075 42.3915 23.9008 42.603L25.1548 42.9858C25.3393 43.0421 25.4907 43.1668 25.5812 43.3371C25.6718 43.5072 25.6907 43.7026 25.6344 43.8871C25.5781 44.0714 25.4533 44.2228 25.2831 44.3134C25.1129 44.4041 24.9177 44.423 24.7332 44.3665L24.1063 44.1751L22.7849 43.7718C22.8886 43.2733 22.5967 42.7688 22.1001 42.6173C21.5736 42.4569 21.017 42.753 20.8564 43.2792C20.5505 44.2814 21.1169 45.3456 22.1192 45.6518L22.5718 45.7899L22.2644 46.7971C22.1038 47.3234 22.4001 47.8802 22.9262 48.0408C23.0231 48.0704 23.121 48.0845 23.2173 48.0845C23.6439 48.0845 24.0387 47.8083 24.1698 47.3789L24.4839 46.3498C24.638 46.3767 24.7929 46.3917 24.9475 46.3917C25.3861 46.3917 25.8211 46.2841 26.2193 46.0721C26.8592 45.7316 27.3284 45.162 27.54 44.4687C27.9769 43.0372 27.168 41.5172 25.7365 41.0802L24.4825 40.6974C24.2981 40.6411 24.1467 40.5164 24.0561 40.3461C23.9656 40.176 23.9466 39.9806 24.003 39.7962C24.1191 39.4155 24.5231 39.2001 24.9043 39.3166L25.5308 39.5078C25.5309 39.5078 25.531 39.508 25.5312 39.508C25.5313 39.508 25.5314 39.508 25.5314 39.508L26.8525 39.9113C26.7488 40.4096 27.0407 40.9142 27.5373 41.0657C28.0635 41.2263 28.6204 40.93 28.781 40.4038C28.9291 39.9185 28.8793 39.4044 28.6407 38.9563Z" fill="#958677"/>
<path d="M58.3816 52.2469L52.0061 38.6988C51.7717 38.2009 51.178 37.9872 50.6806 38.2216C50.1828 38.4559 49.9692 39.0494 50.2034 39.5471L56.579 53.0952C56.7488 53.4559 57.107 53.6675 57.481 53.6675C57.6231 53.6675 57.7675 53.637 57.9044 53.5724C58.4022 53.3381 58.6158 52.7447 58.3816 52.2469Z" fill="#958677"/>
<path d="M53.9286 54.6292L47.553 41.0811C47.3187 40.5831 46.7249 40.3696 46.2275 40.6039C45.7297 40.8382 45.516 41.4317 45.7503 41.9293L52.1259 55.4775C52.2956 55.8382 52.654 56.0498 53.028 56.0498C53.1701 56.0498 53.3144 56.0192 53.4514 55.9547C53.9492 55.7204 54.1627 55.1269 53.9286 54.6292Z" fill="#958677"/>
</g>
<defs>
<clipPath id="clip0_403_3475">
<rect width="68" height="68" fill="white"/>
</clipPath>
</defs>
</svg>
