<svg width="68" height="68" viewBox="0 0 68 68" fill="none" xmlns="http://www.w3.org/2000/svg">
<g clip-path="url(#clip0_403_3506)">
<path d="M41.6521 22.7075H30.835C30.2849 22.7075 29.8389 22.2617 29.8389 21.7114C29.8389 21.1612 30.2849 20.7153 30.835 20.7153H41.6521C42.2023 20.7153 42.6482 21.1612 42.6482 21.7114C42.6482 22.2617 42.2024 22.7075 41.6521 22.7075Z" fill="#958677"/>
<path d="M52.4695 17.5947H30.835C30.2849 17.5947 29.8389 17.1489 29.8389 16.5986C29.8389 16.0484 30.2849 15.6025 30.835 15.6025H52.4695C53.0196 15.6025 53.4655 16.0484 53.4655 16.5986C53.4655 17.1489 53.0196 17.5947 52.4695 17.5947Z" fill="#958677"/>
<path d="M41.6521 39.4006H30.835C30.2849 39.4006 29.8389 38.9548 29.8389 38.4045C29.8389 37.8543 30.2849 37.4084 30.835 37.4084H41.6521C42.2023 37.4084 42.6482 37.8543 42.6482 38.4045C42.6482 38.9548 42.2024 39.4006 41.6521 39.4006Z" fill="#958677"/>
<path d="M52.4695 34.2876H30.835C30.2849 34.2876 29.8389 33.8417 29.8389 33.2915C29.8389 32.7413 30.2849 32.2954 30.835 32.2954H52.4695C53.0196 32.2954 53.4655 32.7413 53.4655 33.2915C53.4655 33.8417 53.0196 34.2876 52.4695 34.2876Z" fill="#958677"/>
<path d="M41.6521 56.0933H30.835C30.2849 56.0933 29.8389 55.6474 29.8389 55.0972C29.8389 54.5469 30.2849 54.1011 30.835 54.1011H41.6521C42.2023 54.1011 42.6482 54.5469 42.6482 55.0972C42.6482 55.6474 42.2024 56.0933 41.6521 56.0933Z" fill="#958677"/>
<path d="M52.4695 50.9802H30.835C30.2849 50.9802 29.8389 50.5344 29.8389 49.9841C29.8389 49.4339 30.2849 48.988 30.835 48.988H52.4695C53.0196 48.988 53.4655 49.4339 53.4655 49.9841C53.4655 50.5344 53.0196 50.9802 52.4695 50.9802Z" fill="#958677"/>
<path d="M42.6137 9.38334H25.3874C23.7501 9.38334 22.418 8.05136 22.418 6.41405V2.96942C22.4181 1.33211 23.7501 0 25.3874 0H42.6136C44.2509 0 45.583 1.33211 45.583 2.96942V6.41405C45.583 8.05136 44.251 9.38334 42.6137 9.38334ZM25.3874 1.99219C24.8486 1.99219 24.4102 2.4306 24.4102 2.96942V6.41405C24.4102 6.95287 24.8486 7.39115 25.3874 7.39115H42.6136C43.1524 7.39115 43.5908 6.95273 43.5908 6.41405V2.96942C43.5908 2.43047 43.1524 1.99219 42.6136 1.99219H25.3874Z" fill="#958677"/>
<path d="M21.6385 24.0426H17.2114C15.7368 24.0426 14.5371 22.8429 14.5371 21.3683V16.9414C14.5371 15.4668 15.7368 14.2671 17.2114 14.2671H21.6385C23.1131 14.2671 24.3128 15.4668 24.3128 16.9414V21.3684C24.3128 22.8429 23.1131 24.0426 21.6385 24.0426ZM17.2114 16.2593C16.8353 16.2593 16.5293 16.5653 16.5293 16.9414V21.3684C16.5293 21.7446 16.8353 22.0506 17.2114 22.0506H21.6385C22.0146 22.0506 22.3206 21.7446 22.3206 21.3684V16.9414C22.3206 16.5653 22.0146 16.2593 21.6385 16.2593H17.2114Z" fill="#958677"/>
<path d="M21.6385 40.7354H17.2114C15.7368 40.7354 14.5371 39.5357 14.5371 38.0611V33.634C14.5371 32.1594 15.7368 30.9597 17.2114 30.9597H21.6385C23.1131 30.9597 24.3128 32.1594 24.3128 33.634V38.0611C24.3128 39.5357 23.1131 40.7354 21.6385 40.7354ZM17.2114 32.9519C16.8353 32.9519 16.5293 33.2579 16.5293 33.634V38.0611C16.5293 38.4372 16.8353 38.7432 17.2114 38.7432H21.6385C22.0146 38.7432 22.3206 38.4372 22.3206 38.0611V33.634C22.3206 33.2579 22.0146 32.9519 21.6385 32.9519H17.2114Z" fill="#958677"/>
<path d="M21.6385 57.4281H17.2114C15.7368 57.4281 14.5371 56.2284 14.5371 54.7537V50.3268C14.5371 48.852 15.7368 47.6523 17.2114 47.6523H21.6385C23.1131 47.6523 24.3128 48.852 24.3128 50.3268V54.7537C24.3128 56.2284 23.1131 57.4281 21.6385 57.4281ZM17.2114 49.6447C16.8353 49.6447 16.5293 49.9508 16.5293 50.3269V54.7538C16.5293 55.13 16.8353 55.4361 17.2114 55.4361H21.6385C22.0146 55.4361 22.3206 55.13 22.3206 54.7538V50.3269C22.3206 49.9508 22.0146 49.6447 21.6385 49.6447H17.2114Z" fill="#958677"/>
<path d="M55.1911 67.9999H12.8103C10.4309 67.9999 8.49512 66.0642 8.49512 63.6847V8.01063C8.49512 5.6313 10.431 3.69556 12.8103 3.69556H18.7796C19.3297 3.69556 19.7757 4.14141 19.7757 4.69165C19.7757 5.24189 19.3297 5.68774 18.7796 5.68774H12.8103C11.5294 5.68774 10.4873 6.72979 10.4873 8.01063V63.6846C10.4873 64.9655 11.5295 66.0076 12.8103 66.0076H55.1911C56.472 66.0076 57.5141 64.9654 57.5141 63.6846V8.01063C57.5141 6.72966 56.4719 5.68774 55.1911 5.68774H49.2218C48.6717 5.68774 48.2257 5.24189 48.2257 4.69165C48.2257 4.14141 48.6717 3.69556 49.2218 3.69556H55.1911C57.5705 3.69556 59.5063 5.6313 59.5063 8.01063V63.6846C59.5063 66.0642 57.5704 67.9999 55.1911 67.9999Z" fill="#958677"/>
</g>
<defs>
<clipPath id="clip0_403_3506">
<rect width="68" height="68" fill="white"/>
</clipPath>
</defs>
</svg>
