<svg width="68" height="68" viewBox="0 0 68 68" fill="none" xmlns="http://www.w3.org/2000/svg">
<g clip-path="url(#clip0_403_3536)">
<path d="M58.4426 0H55.519C54.2339 0 54.2339 1.99248 55.519 1.99248H58.4426C61.4619 1.99248 63.9184 4.44003 63.9184 7.4484V30.5043C63.9184 33.5128 61.462 35.9603 58.4426 35.9603H55.1268C54.908 35.9603 54.6953 36.0323 54.5214 36.1653L48.437 40.8194V36.9566C48.437 36.4064 47.991 35.9603 47.4407 35.9603H35.3158C34.3229 35.9603 33.3687 35.6983 32.527 35.2V24.0166C32.527 21.9219 31.4601 20.0711 29.84 18.9762V7.4484C29.84 4.44003 32.2964 1.99248 35.3158 1.99248H49.2759C50.5609 1.99248 50.5609 0 49.2759 0H35.3158C31.1978 0 27.8475 3.34138 27.8475 7.4484V18.1006C27.3914 17.9917 26.9161 17.9323 26.427 17.9323H8.18974C4.82631 17.9323 2.08984 20.6617 2.08984 24.0166V26.1678C2.08984 27.4529 4.08232 27.4529 4.08232 26.1678V24.0166C4.08232 21.7604 5.92483 19.9248 8.18974 19.9248H26.4271C28.692 19.9248 30.5347 21.7604 30.5347 24.0166V35.5966C30.5227 35.6846 30.5233 35.7732 30.5347 35.8604V42.1981C30.5347 42.3234 30.5271 42.4481 30.5158 42.5722H28.4613C26.1975 42.5722 24.3102 44.2061 23.9189 46.3536C23.8283 46.3877 23.7413 46.4354 23.6607 46.4976L19.2048 49.9381V47.2862C19.2048 46.736 18.7589 46.29 18.2086 46.29H8.18974C5.92483 46.29 4.08232 44.4544 4.08232 42.1981V32.1453C4.08232 30.8603 2.08984 30.8603 2.08984 32.1453V42.1982C2.08984 45.5532 4.82631 48.2826 8.18974 48.2826H17.2125V51.966C17.2125 52.7651 18.1828 53.2445 18.8176 52.7546L23.8433 48.8742V60.0819C23.8433 62.6223 25.9151 64.6889 28.4615 64.6889H34.575V67.0136C34.575 67.8124 35.5454 68.2924 36.18 67.8022L40.2123 64.6889H41.4035C43.9499 64.6889 46.0217 62.6222 46.0217 60.0819V58.3131C46.0217 57.0281 44.0292 57.0281 44.0292 58.3131V60.0819C44.0292 61.5237 42.8514 62.6964 41.4035 62.6964H39.8724C39.652 62.6964 39.4379 62.7695 39.2636 62.904L36.5674 64.9856V63.6925C36.5674 63.1423 36.1215 62.6963 35.5711 62.6963H28.4613C27.0136 62.6963 25.8356 61.5234 25.8356 60.0818V47.1793C25.8356 45.7375 27.0135 44.5648 28.4613 44.5648H41.4035C42.8512 44.5648 44.0292 45.7377 44.0292 47.1793V52.07C44.0292 53.355 46.0217 53.355 46.0217 52.07V47.1794C46.0217 44.639 43.9499 42.5724 41.4035 42.5724H32.5157C32.5233 42.448 32.5272 37.4162 32.5272 37.4162C33.4056 37.7694 34.3474 37.9529 35.316 37.9529H46.4446V42.8358C46.4446 43.633 47.4108 44.1129 48.0462 43.6271L55.4643 37.9529H58.4428C62.5607 37.9529 65.911 34.6116 65.911 30.5044V7.4484C65.9108 3.34138 62.5606 0 58.4426 0V0Z" fill="#958677"/>
<path d="M49.3678 7.36043C48.1029 7.03752 46.8139 8.03694 46.8139 9.34401C46.8139 10.7721 46.2934 12.1484 45.3491 13.2186L42.6043 16.3246C42.4266 16.0519 42.1195 15.8714 41.7697 15.8714H36.4113C35.861 15.8714 35.415 16.3174 35.415 16.8676V28.9241C35.415 29.4743 35.861 29.9203 36.4113 29.9203H41.7697C42.1723 29.9203 42.5182 29.6811 42.6754 29.3376C43.7602 30.0004 45.0173 30.3588 46.2963 30.3588H55.7662C57.2133 30.3588 58.407 29.1031 58.3391 27.6598C58.309 27.0206 58.3419 18.4379 58.3419 18.2473C58.3419 16.8271 57.1864 15.6714 55.7691 15.6714L50.8446 15.6567L51.0485 15.1739C51.9803 12.9671 51.8269 10.4083 50.6386 8.32851C50.3613 7.84261 49.9098 7.49897 49.3678 7.36043C49.9098 7.49897 48.8256 7.22202 49.3678 7.36043C49.9098 7.49897 48.103 7.03752 49.3678 7.36043ZM40.7735 27.9278H37.4075V17.8638H40.7735V27.9278ZM55.7662 17.6638C56.0879 17.6638 56.3496 17.9255 56.3496 18.2472C56.3496 18.4367 56.3476 18.9512 56.3449 19.6487C56.3302 23.4997 56.3204 27.147 56.3488 27.7533C56.3591 27.9721 56.2527 28.1179 56.1885 28.1854C56.0771 28.302 55.9272 28.3662 55.7662 28.3662H46.2963C45.1675 28.3662 44.0628 27.975 43.1853 27.2647L42.7659 26.9252V19.1504L46.8427 14.5373C48.109 13.1022 48.8063 11.2578 48.8063 9.34387C48.8063 9.28755 48.8832 9.27294 48.9088 9.31678C49.791 10.8607 49.9047 12.7603 49.2131 14.3985L48.4268 16.2607C48.2971 16.5679 48.3297 16.9195 48.5134 17.1977C48.6974 17.4758 49.0082 17.6435 49.3415 17.6445L55.7662 17.6638Z" fill="#958677"/>
<path d="M10.6203 34.6025C10.0699 34.6025 9.62402 35.0485 9.62402 35.5987C9.62402 36.1489 10.0699 36.595 10.6203 36.595H13.5569L13.0083 39.913C12.9185 40.4557 13.2859 40.9686 13.8287 41.0584C13.8838 41.0675 13.9384 41.0719 13.9923 41.0719C14.4711 41.0719 14.8933 40.7259 14.9741 40.238L15.5763 36.5951H17.9797L17.4311 39.9131C17.3413 40.4559 17.7087 40.9687 18.2514 41.0585C18.3066 41.0677 18.3612 41.0721 18.4151 41.0721C18.8938 41.0721 19.3161 40.726 19.3969 40.2381L19.9991 36.5952H23.9964C24.5467 36.5952 24.9927 36.1492 24.9927 35.599C24.9927 35.0488 24.5467 34.6028 23.9964 34.6028H20.3285L20.7303 32.1725H23.9964C24.5467 32.1725 24.9927 31.7264 24.9927 31.1762C24.9927 30.626 24.5467 30.18 23.9964 30.18H21.0598L21.6084 26.862C21.6982 26.3192 21.3307 25.8064 20.788 25.7166C20.2446 25.6265 19.7324 25.9942 19.6426 26.537L19.0403 30.1799H16.637L17.1856 26.8619C17.2754 26.3191 16.908 25.8062 16.3652 25.7165C15.8212 25.6264 15.3098 25.9941 15.2198 26.5368L14.6176 30.1797H10.6203C10.0699 30.1797 9.62402 30.6258 9.62402 31.176C9.62402 31.7262 10.0699 32.1722 10.6203 32.1722H14.2881L13.8863 34.6025H10.6203ZM16.3077 32.1722H18.711L18.3092 34.6025H15.9059L16.3077 32.1722Z" fill="#958677"/>
<path d="M34.9202 49.705C34.1157 49.0427 33.0455 48.7814 31.972 49.0424C30.5962 49.3765 29.208 50.6626 29.208 52.7824C29.208 54.1019 29.6895 55.2471 30.68 56.2838C31.4891 57.1306 32.6567 57.9358 34.4656 58.8948C34.6116 58.9723 34.7719 59.0109 34.9323 59.0109C35.0926 59.0109 35.2529 58.9723 35.3989 58.8948C38.5547 57.2218 40.6564 55.5422 40.6564 52.7824C40.6564 50.651 39.2189 49.3781 37.7941 49.0621C36.7238 48.8246 35.6861 49.0767 34.9202 49.705ZM38.6638 52.7824C38.6638 54.271 37.6764 55.3717 34.9321 56.8824C32.1878 55.3716 31.2004 54.2708 31.2004 52.7824C31.2004 51.6749 31.8417 51.1244 32.4419 50.9786C32.5526 50.9518 32.6711 50.9366 32.7929 50.9366C33.2444 50.9366 33.7408 51.1452 34.0468 51.7385C34.2212 52.0762 34.5737 52.2855 34.9519 52.2777C35.3317 52.2701 35.6743 52.0472 35.8348 51.7029C36.1572 51.0119 36.8352 50.8904 37.3623 51.0074C37.9916 51.1468 38.6638 51.6865 38.6638 52.7824Z" fill="#958677"/>
</g>
<defs>
<clipPath id="clip0_403_3536">
<rect width="68" height="68" fill="white"/>
</clipPath>
</defs>
</svg>
