<svg width="68" height="68" viewBox="0 0 68 68" fill="none" xmlns="http://www.w3.org/2000/svg">
<g clip-path="url(#clip0_403_3541)">
<path d="M57.0856 37.6263H47.051C46.282 37.6263 45.6563 38.252 45.6563 39.021V40.9671C45.6563 42.1187 44.7193 43.0557 43.5677 43.0557C42.4161 43.0557 41.4791 42.1187 41.4791 40.9671V39.021C41.4791 38.252 40.8534 37.6263 40.0844 37.6263H30.3737V29.0069H31.648C33.8604 29.0069 35.7232 27.2425 35.8004 25.0737C35.8401 23.955 35.4346 22.8961 34.6588 22.0921C33.8825 21.2876 32.8395 20.8447 31.7219 20.8447H30.3736V10.9144C30.3736 10.4635 30.1959 10.0416 29.8731 9.72628C29.5501 9.41099 29.1247 9.24351 28.6726 9.2536C20.9743 9.43489 13.7654 12.5705 8.37409 18.0826C2.97394 23.6037 0 30.8983 0 38.6226C0 44.7228 1.85247 50.5728 5.35739 55.5401C8.78409 60.3968 13.5251 64.062 19.0679 66.1396C19.5827 66.3327 20.1571 66.0716 20.3503 65.5564C20.5434 65.0414 20.2823 64.4671 19.7672 64.274C9.44695 60.4058 2.414 50.5799 2.01078 39.6188H11.7036C12.4726 39.6188 13.0982 38.9931 13.0982 38.2241V36.278C13.0982 35.7061 13.3251 35.1722 13.7368 34.7749C14.1483 34.3779 14.6924 34.171 15.264 34.1907C16.3733 34.2302 17.2756 35.1997 17.2756 36.352V38.2241C17.2756 38.9931 17.9013 39.6188 18.6703 39.6188H28.3812V48.7317H27.0329C24.7827 48.7317 22.9519 50.5625 22.9519 52.8128C22.9519 55.0632 24.7827 56.894 27.0329 56.894H28.3812V65.9896C26.6249 65.9266 24.8806 65.6967 23.1826 65.3041C22.6468 65.1802 22.1114 65.514 21.9875 66.0502C21.8635 66.5862 22.1976 67.1213 22.7337 67.2453C24.8993 67.746 27.1345 67.9999 29.3773 67.9999C37.1016 67.9999 44.396 65.026 49.9172 59.6258C55.4293 54.2345 58.5649 47.0257 58.7463 39.3271C58.7569 38.876 58.589 38.4496 58.2736 38.1268C57.9585 37.804 57.5364 37.6263 57.0856 37.6263ZM28.3811 28.4093V37.6262H19.2679V36.3519C19.2679 34.1393 17.5034 32.2765 15.3347 32.1995C14.2157 32.16 13.1571 32.5653 12.353 33.3411C11.5486 34.1174 11.1056 35.1604 11.1056 36.278V37.6263H2.01277C2.53406 23.4376 14.1319 11.7696 28.3811 11.2555V21.4426C28.3811 22.2116 29.0068 22.8373 29.7758 22.8373H31.7219C32.2938 22.8373 32.8277 23.0641 33.225 23.4758C33.622 23.8871 33.8295 24.4297 33.8092 25.003C33.7697 26.1122 32.8002 27.0146 31.6479 27.0146H29.7758C29.0068 27.0146 28.3811 27.6403 28.3811 28.4093ZM30.3736 65.987V56.2961C30.3736 55.5271 29.7479 54.9014 28.9789 54.9014H27.0328C25.8812 54.9014 24.9442 53.9644 24.9442 52.8126C24.9442 51.661 25.8812 50.724 27.0328 50.724H28.9789C29.7479 50.724 30.3736 50.0984 30.3736 49.3294V39.6188H39.4865V40.9671C39.4865 43.2174 41.3173 45.0482 43.5676 45.0482C45.8178 45.0482 47.6486 43.2174 47.6486 40.9671V39.6188H56.7444C56.2303 53.8681 44.5623 65.4658 30.3736 65.987Z" fill="#958677"/>
<path d="M63.8849 14.3522C61.3843 10.1557 57.8443 6.61585 53.6478 4.11526C53.175 3.83357 52.5637 3.98856 52.2821 4.4611C52.0006 4.93378 52.1553 5.54525 52.628 5.82682C60.6861 10.6284 65.6656 19.0375 65.9982 28.3733H55.9064C55.3562 28.3733 54.9102 28.8193 54.9102 29.3696V31.6401C54.9102 32.7924 54.0079 33.7619 52.8986 33.8014C52.326 33.8216 51.7828 33.6144 51.3713 33.2173C50.9596 32.8199 50.7329 32.2861 50.7329 31.7141V29.3696C50.7329 28.8193 50.2869 28.3733 49.7366 28.3733H39.6272V19.7529H40.9755C43.2259 19.7529 45.0567 17.922 45.0567 15.6717C45.0567 13.4214 43.2259 11.5906 40.9755 11.5906H39.6272V2.00235C43.1186 2.12666 46.4979 2.90029 49.6773 4.30346C50.1804 4.52552 50.7686 4.29774 50.9909 3.79439C51.2131 3.29103 50.9852 2.70293 50.4818 2.48074C46.9601 0.9263 43.2101 0.0918387 39.3364 0.000463674C38.884 -0.0100285 38.4582 0.157847 38.1352 0.473409C37.8125 0.788573 37.6348 1.21052 37.6348 1.66128V12.1885C37.6348 12.9575 38.2604 13.5832 39.0294 13.5832H40.9755C42.1273 13.5832 43.0643 14.5202 43.0643 15.6718C43.0643 16.8236 42.1273 17.7606 40.9755 17.7606H39.0294C38.2604 17.7606 37.6348 18.3862 37.6348 19.1552V28.7055C37.6348 29.621 38.3796 30.3658 39.2951 30.3658H48.7403V31.7141C48.7403 32.8316 49.1832 33.8746 49.9875 34.6508C50.7556 35.3921 51.7561 35.7952 52.8191 35.7952C52.869 35.7952 52.9191 35.7942 52.9692 35.7924C55.138 35.7153 56.9024 33.8525 56.9024 31.64V30.3657H66.3389C66.7898 30.3657 67.2117 30.1879 67.527 29.8652C67.8424 29.5423 68.0103 29.116 67.9997 28.6649C67.8808 23.6197 66.4579 18.6704 63.8849 14.3522Z" fill="#958677"/>
</g>
<defs>
<clipPath id="clip0_403_3541">
<rect width="68" height="68" fill="white"/>
</clipPath>
</defs>
</svg>
