<svg width="72" height="72" viewBox="0 0 72 72" fill="none" xmlns="http://www.w3.org/2000/svg">
<path d="M16.5666 51.5169C16.5666 51.6329 16.5894 51.7477 16.6338 51.8549C16.6782 51.9621 16.7432 52.0595 16.8253 52.1415C16.9073 52.2236 17.0047 52.2886 17.1119 52.333C17.2191 52.3774 17.334 52.4002 17.45 52.4002H22.75C22.866 52.4002 22.9809 52.3774 23.0881 52.333C23.1952 52.2886 23.2926 52.2236 23.3747 52.1415C23.4567 52.0595 23.5218 51.9621 23.5661 51.8549C23.6105 51.7477 23.6333 51.6329 23.6333 51.5169V40.0335C23.6333 39.9175 23.6105 39.8026 23.5661 39.6954C23.5218 39.5882 23.4567 39.4908 23.3747 39.4088C23.2926 39.3268 23.1952 39.2617 23.0881 39.2173C22.9809 39.1729 22.866 39.1501 22.75 39.1501H17.45C17.334 39.1501 17.2191 39.1729 17.1119 39.2173C17.0047 39.2617 16.9073 39.3268 16.8253 39.4088C16.7432 39.4908 16.6782 39.5882 16.6338 39.6954C16.5894 39.8026 16.5666 39.9175 16.5666 40.0335V51.5169ZM18.3333 40.9168H21.8666V50.6335H18.3333V40.9168ZM38.65 23.6158L30.4412 31.8247C30.3592 31.9067 30.2618 31.9718 30.1547 32.0162C30.0475 32.0606 29.9326 32.0835 29.8167 32.0835C29.7007 32.0835 29.5858 32.0606 29.4786 32.0162C29.3715 31.9718 29.2741 31.9067 29.1921 31.8247L26.2833 28.9158L19.8412 35.358C19.6752 35.5219 19.4511 35.6135 19.2178 35.6128C18.9845 35.612 18.761 35.519 18.596 35.3541C18.4311 35.1891 18.3381 34.9656 18.3373 34.7323C18.3366 34.499 18.4282 34.2749 18.5921 34.1089L25.6588 27.0422C25.7408 26.9602 25.8382 26.8951 25.9453 26.8507C26.0525 26.8063 26.1674 26.7834 26.2834 26.7834C26.3994 26.7834 26.5142 26.8063 26.6214 26.8507C26.7285 26.8951 26.8259 26.9602 26.9079 27.0422L29.8167 29.951L37.401 22.3667H35.1167C34.8824 22.3667 34.6577 22.2737 34.4921 22.108C34.3264 21.9424 34.2334 21.7177 34.2334 21.4834C34.2334 21.2491 34.3264 21.0244 34.4921 20.8588C34.6577 20.6931 34.8824 20.6001 35.1167 20.6001H39.5334C39.6494 20.6 39.7643 20.6229 39.8715 20.6672C39.9786 20.7116 40.076 20.7767 40.1581 20.8587C40.2401 20.9407 40.3052 21.0381 40.3495 21.1453C40.3939 21.2525 40.4167 21.3674 40.4167 21.4834V25.9001C40.4167 26.1344 40.3237 26.359 40.158 26.5247C39.9923 26.6904 39.7677 26.7834 39.5334 26.7834C39.2991 26.7834 39.0744 26.6904 38.9088 26.5247C38.7431 26.359 38.65 26.1344 38.65 25.9001V23.6158ZM16.5666 16.1834C16.5666 16.0674 16.5894 15.9525 16.6338 15.8453C16.6782 15.7381 16.7432 15.6407 16.8253 15.5587C16.9073 15.4767 17.0047 15.4116 17.1119 15.3672C17.2191 15.3228 17.334 15.3 17.45 15.3H33.35C33.5843 15.3 33.809 15.3931 33.9746 15.5588C34.1403 15.7244 34.2334 15.9491 34.2334 16.1834C34.2334 16.4177 34.1403 16.6423 33.9746 16.808C33.809 16.9736 33.5843 17.0667 33.35 17.0667H17.45C17.334 17.0667 17.2191 17.0439 17.1119 16.9995C17.0047 16.9552 16.9073 16.8901 16.8253 16.8081C16.7432 16.726 16.6782 16.6286 16.6338 16.5215C16.5894 16.4143 16.5666 16.2994 16.5666 16.1834ZM16.5666 21.4834C16.5666 21.3674 16.5894 21.2525 16.6338 21.1453C16.6782 21.0381 16.7432 20.9407 16.8253 20.8587C16.9073 20.7767 17.0047 20.7116 17.1119 20.6672C17.2191 20.6229 17.334 20.6 17.45 20.6001H26.2833C26.5176 20.6001 26.7423 20.6931 26.9079 20.8588C27.0736 21.0244 27.1667 21.2491 27.1667 21.4834C27.1667 21.7177 27.0736 21.9424 26.9079 22.108C26.7423 22.2737 26.5176 22.3667 26.2833 22.3667H17.45C17.334 22.3668 17.2191 22.3439 17.1119 22.2996C17.0047 22.2552 16.9073 22.1901 16.8253 22.1081C16.7432 22.026 16.6782 21.9287 16.6338 21.8215C16.5894 21.7143 16.5666 21.5994 16.5666 21.4834ZM28.05 35.6168V50.6335H29.8167C30.051 50.6335 30.2756 50.7266 30.4413 50.8922C30.6069 51.0579 30.7 51.2826 30.7 51.5169C30.7 51.7511 30.6069 51.9758 30.4413 52.1415C30.2756 52.3071 30.051 52.4002 29.8167 52.4002H27.1667C27.0507 52.4002 26.9358 52.3774 26.8286 52.333C26.7214 52.2886 26.624 52.2236 26.542 52.1415C26.46 52.0595 26.3949 51.9621 26.3505 51.8549C26.3061 51.7477 26.2833 51.6329 26.2833 51.5169V34.7335C26.2833 34.6174 26.3061 34.5026 26.3505 34.3954C26.3949 34.2882 26.46 34.1908 26.542 34.1088C26.624 34.0267 26.7214 33.9617 26.8286 33.9173C26.9358 33.8729 27.0507 33.8501 27.1667 33.8501H32.4667C32.701 33.8501 32.9256 33.9432 33.0913 34.1088C33.257 34.2745 33.35 34.4992 33.35 34.7335C33.35 34.9677 33.257 35.1924 33.0913 35.3581C32.9256 35.5237 32.701 35.6168 32.4667 35.6168H28.05ZM36 32.0834V29.4334C36 29.3174 36.0228 29.2025 36.0672 29.0954C36.1116 28.9882 36.1767 28.8908 36.2587 28.8087C36.3407 28.7267 36.4381 28.6617 36.5453 28.6173C36.6525 28.5729 36.7674 28.5501 36.8834 28.5501H42.1834C42.2994 28.5501 42.4143 28.5729 42.5215 28.6173C42.6287 28.6617 42.726 28.7267 42.8081 28.8087C42.8901 28.8908 42.9552 28.9882 42.9996 29.0954C43.0439 29.2025 43.0668 29.3174 43.0667 29.4334V30.3168C43.0667 30.551 42.9737 30.7757 42.808 30.9414C42.6423 31.107 42.4177 31.2001 42.1834 31.2001C41.9491 31.2001 41.7244 31.107 41.5588 30.9414C41.3931 30.7757 41.3001 30.551 41.3001 30.3168H37.7667V32.0834C37.7667 32.3177 37.6736 32.5424 37.508 32.7081C37.3423 32.8737 37.1176 32.9668 36.8834 32.9668C36.6491 32.9668 36.4244 32.8737 36.2588 32.7081C36.0931 32.5424 36 32.3177 36 32.0834ZM33.35 55.9335H15.6833C14.9807 55.9328 14.3071 55.6533 13.8103 55.1565C13.3135 54.6597 13.034 53.9861 13.0333 53.2835V14.4167C13.034 13.7141 13.3135 13.0405 13.8103 12.5437C14.3071 12.0469 14.9807 11.7675 15.6833 11.7667H38.9528C39.1483 11.7683 39.343 11.7914 39.5334 11.8355V16.1834C39.5341 16.886 39.8136 17.5596 40.3104 18.0564C40.8072 18.5532 41.4808 18.8326 42.1834 18.8334H46.5291C46.5743 19.0235 46.5982 19.2181 46.6001 19.4135V31.2001C46.6001 31.4344 46.6931 31.6591 46.8588 31.8247C47.0245 31.9904 47.2491 32.0834 47.4834 32.0834C47.7177 32.0834 47.9424 31.9904 48.108 31.8247C48.2737 31.6591 48.3668 31.4344 48.3668 31.2001V19.4135C48.3682 18.8333 48.2546 18.2586 48.0325 17.7226C47.8104 17.1865 47.4842 16.6999 47.0728 16.2908L42.0764 11.2935C41.6672 10.8821 41.1804 10.5559 40.6442 10.3339C40.108 10.1119 39.5331 9.99839 38.9528 10H15.6833C14.5123 10.0014 13.3897 10.4672 12.5617 11.2952C11.7337 12.1231 11.268 13.2457 11.2666 14.4167V53.2835C11.268 54.4545 11.7337 55.5771 12.5617 56.4051C13.3897 57.2331 14.5123 57.6988 15.6833 57.7002H33.35C33.5843 57.7002 33.809 57.6071 33.9746 57.4415C34.1403 57.2758 34.2334 57.0512 34.2334 56.8169C34.2334 56.5826 34.1403 56.3579 33.9746 56.1923C33.809 56.0266 33.5843 55.9335 33.35 55.9335ZM45.3507 17.0667H42.1834C41.9492 17.0665 41.7246 16.9733 41.559 16.8077C41.3934 16.6421 41.3003 16.4176 41.3001 16.1834V13.0155L45.3507 17.0667ZM59.7432 57.2271L53.8633 51.3473C55.3203 48.736 55.7837 45.6859 55.1681 42.7597C54.5525 39.8335 52.8993 37.2287 50.5137 35.4259C48.1281 33.623 45.1709 32.7438 42.1879 32.9503C39.2048 33.1569 36.397 34.4353 34.2827 36.5498C32.1683 38.6643 30.89 41.4721 30.6835 44.4552C30.4771 47.4383 31.3565 50.3954 33.1595 52.7809C34.9624 55.1665 37.5673 56.8195 40.4935 57.4349C43.4197 58.0504 46.4698 57.5869 49.081 56.1298L54.9607 62.0095C55.2747 62.3235 55.6475 62.5726 56.0578 62.7426C56.4681 62.9125 56.9078 63 57.3519 63C57.796 63 58.2358 62.9125 58.6461 62.7426C59.0563 62.5726 59.4291 62.3235 59.7432 62.0095C60.0572 61.6955 60.3063 61.3227 60.4762 60.9124C60.6462 60.5021 60.7336 60.0624 60.7336 59.6183C60.7336 59.1742 60.6462 58.7345 60.4762 58.3242C60.3063 57.9139 60.0572 57.5411 59.7432 57.2271V57.2271ZM32.4667 45.3335C32.4667 43.237 33.0884 41.1876 34.2531 39.4444C35.4179 37.7013 37.0734 36.3426 39.0103 35.5403C40.9472 34.738 43.0785 34.5281 45.1347 34.9371C47.1909 35.3461 49.0797 36.3557 50.5621 37.8381C52.0445 39.3206 53.0541 41.2093 53.4631 43.2655C53.8721 45.3217 53.6622 47.4531 52.8599 49.39C52.0576 51.3269 50.699 52.9824 48.9558 54.1471C47.2126 55.3119 45.1632 55.9335 43.0667 55.9335C40.2564 55.9304 37.562 54.8126 35.5748 52.8254C33.5876 50.8382 32.4698 48.1438 32.4667 45.3335ZM58.4941 60.7604C58.1865 61.0544 57.7774 61.2185 57.3519 61.2185C56.9265 61.2185 56.5174 61.0544 56.2098 60.7604L50.5817 55.1323C51.4391 54.4733 52.2069 53.7054 52.8659 52.848L58.4941 58.4762C58.7965 58.7793 58.9664 59.1901 58.9664 59.6183C58.9664 60.0465 58.7965 60.4572 58.4941 60.7604ZM43.0667 36.5001C41.3197 36.5001 39.6118 37.0182 38.1592 37.9888C36.7065 38.9594 35.5743 40.339 34.9058 41.9531C34.2372 43.5672 34.0623 45.3433 34.4031 47.0568C34.7439 48.7703 35.5852 50.3443 36.8206 51.5796C38.056 52.815 39.6299 53.6563 41.3434 53.9971C43.0569 54.338 44.833 54.163 46.4471 53.4945C48.0612 52.8259 49.4408 51.6937 50.4114 50.2411C51.382 48.7884 51.9001 47.0806 51.9001 45.3335C51.8974 42.9916 50.9659 40.7463 49.3099 39.0903C47.6539 37.4343 45.4087 36.5028 43.0667 36.5001ZM43.0667 52.4002C41.6691 52.4002 40.3028 51.9857 39.1407 51.2092C37.9786 50.4327 37.0728 49.3291 36.538 48.0378C36.0031 46.7465 35.8631 45.3257 36.1358 43.9549C36.4085 42.584 37.0815 41.3249 38.0698 40.3366C39.0581 39.3483 40.3173 38.6753 41.6881 38.4026C43.0589 38.1299 44.4798 38.2699 45.771 38.8047C47.0623 39.3396 48.166 40.2453 48.9425 41.4074C49.719 42.5696 50.1334 43.9358 50.1334 45.3335C50.1313 47.207 49.3861 49.0032 48.0613 50.328C46.7365 51.6528 44.9403 52.398 43.0667 52.4002Z" fill="white"/>
</svg>
