<svg width="72" height="72" viewBox="0 0 72 72" fill="none" xmlns="http://www.w3.org/2000/svg">
<path d="M33.0199 43.875H15.75C15.1279 43.875 14.625 43.371 14.625 42.75C14.625 42.129 15.1279 41.625 15.75 41.625H33.0199C33.642 41.625 34.1449 42.129 34.1449 42.75C34.1449 43.371 33.6409 43.875 33.0199 43.875Z" fill="white"/>
<path d="M33.0199 30.375H15.75C15.1279 30.375 14.625 29.871 14.625 29.25C14.625 28.629 15.1279 28.125 15.75 28.125H33.0199C33.642 28.125 34.1449 28.629 34.1449 29.25C34.1449 29.871 33.6409 30.375 33.0199 30.375Z" fill="white"/>
<path d="M31.5 37.125H9C8.37788 37.125 7.875 36.621 7.875 36C7.875 35.379 8.37788 34.875 9 34.875H31.5C32.1221 34.875 32.625 35.379 32.625 36C32.625 36.621 32.1221 37.125 31.5 37.125Z" fill="white"/>
<path d="M42.75 40.3897C40.5146 40.3897 38.25 38.8822 38.25 36C38.25 33.1177 40.5146 31.6102 42.75 31.6102C44.9854 31.6102 47.25 33.1177 47.25 36C47.25 38.8822 44.9854 40.3897 42.75 40.3897ZM42.75 33.8602C41.7116 33.8602 40.5 34.4205 40.5 36C40.5 37.5795 41.7116 38.1397 42.75 38.1397C43.7884 38.1397 45 37.5795 45 36C45 34.4205 43.7884 33.8602 42.75 33.8602Z" fill="white"/>
<path d="M45.136 34.7389C44.848 34.7389 44.56 34.6287 44.3406 34.4093C43.9008 33.9694 43.9008 33.2584 44.3406 32.8185L50.7048 26.4544C51.1446 26.0145 51.8556 26.0145 52.2955 26.4544C52.7354 26.8943 52.7354 27.6053 52.2955 28.0452L45.9314 34.4093C45.712 34.6287 45.424 34.7389 45.136 34.7389Z" fill="white"/>
<path d="M38.7732 41.103C38.4852 41.103 38.1972 40.9928 37.9779 40.7734C37.538 40.3346 37.538 39.6225 37.9779 39.1826L39.5686 37.5908C40.0085 37.1509 40.7195 37.1509 41.1594 37.5908C41.5992 38.0295 41.5992 38.7416 41.1594 39.1815L39.5686 40.7734C39.3492 40.9928 39.0612 41.103 38.7732 41.103Z" fill="white"/>
<path d="M42.75 57.375C42.1279 57.375 41.625 56.871 41.625 56.25V52.875C41.625 52.254 42.1279 51.75 42.75 51.75C43.3721 51.75 43.875 52.254 43.875 52.875V56.25C43.875 56.871 43.3721 57.375 42.75 57.375Z" fill="white"/>
<path d="M57.069 51.4439C56.781 51.4439 56.493 51.3337 56.2736 51.1143L53.8875 48.7271C53.4476 48.2872 53.4476 47.5751 53.8875 47.1363C54.3274 46.6964 55.0384 46.6964 55.4783 47.1363L57.8644 49.5236C58.3043 49.9634 58.3043 50.6756 57.8644 51.1143C57.6439 51.3337 57.3559 51.4439 57.069 51.4439Z" fill="white"/>
<path d="M54.6819 25.1932C54.3939 25.1932 54.1059 25.0829 53.8865 24.8636C53.4467 24.4248 53.4467 23.7127 53.8865 23.2728L56.2727 20.8856C56.7125 20.4457 57.4235 20.4457 57.8634 20.8856C58.3033 21.3243 58.3033 22.0364 57.8634 22.4763L55.4773 24.8636C55.2579 25.0829 54.9699 25.1932 54.6819 25.1932Z" fill="white"/>
<path d="M42.75 20.25C42.1279 20.25 41.625 19.746 41.625 19.125V15.75C41.625 15.129 42.1279 14.625 42.75 14.625C43.3721 14.625 43.875 15.129 43.875 15.75V19.125C43.875 19.746 43.3721 20.25 42.75 20.25Z" fill="white"/>
<path d="M63 37.125H59.625C59.0029 37.125 58.5 36.621 58.5 36C58.5 35.379 59.0029 34.875 59.625 34.875H63C63.6221 34.875 64.125 35.379 64.125 36C64.125 36.621 63.6221 37.125 63 37.125Z" fill="white"/>
<path d="M34.6376 23.625H22.5C21.8779 23.625 21.375 23.121 21.375 22.5C21.375 21.879 21.8779 21.375 22.5 21.375H34.6376C35.2598 21.375 35.7626 21.879 35.7626 22.5C35.7626 23.121 35.2598 23.625 34.6376 23.625Z" fill="white"/>
<path d="M34.6376 50.625H22.5C21.8779 50.625 21.375 50.121 21.375 49.5C21.375 48.879 21.8779 48.375 22.5 48.375H34.6376C35.2598 48.375 35.7626 48.879 35.7626 49.5C35.7626 50.121 35.2598 50.625 34.6376 50.625Z" fill="white"/>
<path d="M42.6802 57.3537C39.3828 57.3537 36.0517 56.5943 32.9579 55.0002C32.4056 54.7156 32.1884 54.0372 32.4731 53.4848C32.7577 52.9324 33.4372 52.7153 33.9884 53C42.8129 57.5472 53.8053 54.5007 59.0141 46.0643C64.2374 37.6032 62.0516 26.3993 54.0382 20.5572C48.2343 16.3272 40.3638 15.7152 33.9884 18.9991C33.4372 19.2837 32.7577 19.0677 32.4731 18.5142C32.1884 17.9618 32.4044 17.2835 32.9579 16.9988C40.0826 13.3268 48.8756 14.0097 55.3634 18.7381C64.3207 25.2676 66.7653 37.79 60.9277 47.2456C56.9328 53.7188 49.8914 57.3537 42.6802 57.3537Z" fill="white"/>
</svg>
