<svg width="72" height="72" viewBox="0 0 72 72" fill="none" xmlns="http://www.w3.org/2000/svg">
<path d="M46.2354 35.5955C46.0991 35.2817 46.0054 34.9507 45.9567 34.6118C45.83 33.7312 45.5865 32.8701 45.2331 32.0521C45.0664 31.6662 44.6185 31.4882 44.2321 31.6551C43.8459 31.8219 43.6682 32.2701 43.8351 32.6562C44.135 33.3505 44.3416 34.0814 44.4492 34.8286C44.5173 35.3016 44.6482 35.7636 44.8382 36.2016L46.4912 40.0133C47.1893 41.623 46.9664 43.4135 45.8947 44.803C44.9817 45.9867 43.6303 46.6458 42.178 46.6513C42.599 45.7645 42.8354 44.7737 42.8354 43.7285V36.7206C42.8354 35.8712 42.1703 35.1883 41.321 35.1658L37.0125 35.0523C35.5432 35.0135 34.1063 34.4814 32.9662 33.5539L32.6826 33.3232C32.418 33.1078 32.0856 33.0095 31.7463 33.0455C31.407 33.0817 31.1028 33.2483 30.8897 33.5147C29.7719 34.9113 29.1563 36.6655 29.1563 38.4543V43.7285C29.1563 44.7737 29.3927 45.7644 29.8137 46.6513C28.3615 46.6459 27.01 45.9868 26.0971 44.803C25.0254 43.4135 24.8024 41.6231 25.5005 40.0133L27.1536 36.2017C27.3435 35.7636 27.4744 35.3016 27.5425 34.8286C27.8351 32.7957 28.8511 30.9352 30.4034 29.5903C31.9557 28.2453 33.9419 27.5046 35.9958 27.5046C38.3169 27.5046 40.4888 28.4208 42.1114 30.0844C42.4049 30.3857 42.8871 30.3915 43.1882 30.098C43.4892 29.8044 43.4953 29.3221 43.2017 29.0212C41.2901 27.061 38.7309 25.9816 35.9957 25.9816C33.5754 25.9816 31.2351 26.8544 29.406 28.4392C27.577 30.0239 26.3796 32.2161 26.0349 34.6117C25.9862 34.9507 25.8925 35.2817 25.7562 35.5955L24.1032 39.4072C23.1812 41.5333 23.4756 43.8981 24.891 45.7331C26.1017 47.3029 27.8955 48.1777 29.8226 48.1776C30.1285 48.1776 30.4382 48.1547 30.749 48.1099C31.2862 48.7521 31.939 49.2941 32.6749 49.7047V51.1744L28.7813 52.7364C26.0532 53.831 24.2904 56.4377 24.2904 59.3772V61.2382C24.2904 61.6589 24.6313 61.9998 25.052 61.9998C25.4726 61.9998 25.8135 61.6589 25.8135 61.2382V59.3772C25.8135 57.0634 27.2011 55.0115 29.3485 54.15L32.8532 52.7439C33.2909 54.0026 34.4884 54.9086 35.8942 54.9086C37.3 54.9086 38.4975 54.0025 38.9352 52.7439L42.4404 54.1502C42.5324 54.1871 42.6295 54.2298 42.7463 54.2847C42.8511 54.334 42.9614 54.3573 43.07 54.3573C43.3558 54.3573 43.6299 54.1956 43.7596 53.9197C43.9386 53.5391 43.7752 53.0855 43.3946 52.9065C43.2503 52.8386 43.1272 52.7846 43.0072 52.7365L39.1136 51.1744V49.8129C39.9327 49.3914 40.6566 48.8106 41.2426 48.1099C41.5536 48.1548 41.8629 48.1776 42.169 48.1776C44.096 48.1776 45.89 47.3028 47.1006 45.7331C48.5159 43.8982 48.8105 41.5334 47.8884 39.4072L46.2354 35.5955ZM37.5906 51.6895C37.5906 52.6247 36.8297 53.3856 35.8943 53.3856C34.959 53.3856 34.1981 52.6247 34.1981 51.6895V50.3265C34.7713 50.4829 35.3737 50.568 35.9959 50.568C36.545 50.568 37.0785 50.5012 37.5906 50.3783V51.6895ZM35.9959 49.0449C33.0644 49.0449 30.6794 46.6601 30.6794 43.7286V38.4544C30.6794 37.0954 31.1195 35.7612 31.9233 34.669L32.0051 34.7355C33.4046 35.8741 35.1687 36.5272 36.9724 36.5749L41.2808 36.6884C41.2986 36.6889 41.3125 36.7031 41.3125 36.7207V43.7286C41.3123 46.6601 38.9273 49.0449 35.9959 49.0449Z" fill="white"/>
<path d="M45.1205 55.062C44.7772 55.305 44.6958 55.7803 44.9389 56.1234C45.6169 57.0812 45.9752 58.2064 45.9752 59.3774V61.2384C45.9752 61.6591 46.316 62 46.7367 62C47.1574 62 47.4982 61.6591 47.4982 61.2384V59.3774C47.4982 57.8894 47.0431 56.4599 46.1819 55.2435C45.9389 54.9001 45.4636 54.8189 45.1205 55.062Z" fill="white"/>
<path d="M21.6012 21.4045C19.9048 20.2454 17.7829 20.0284 15.7792 20.8101C14.3176 21.3802 13.149 22.5413 12.5727 23.9957C12.1977 24.9424 12.043 25.9104 12.1131 26.8731C12.1438 27.2925 12.5073 27.6081 12.9279 27.5773C13.3474 27.5468 13.6627 27.182 13.6322 26.7625C13.5789 26.0305 13.6988 25.2884 13.9887 24.5568C14.4097 23.4944 15.2641 22.646 16.3328 22.2291C17.8603 21.6333 19.4675 21.7911 20.742 22.6621C21.9876 23.5131 22.7312 24.9205 22.7312 26.4267C22.7312 27.372 22.4443 28.2783 21.9017 29.0481C21.8954 29.057 21.8893 29.0662 21.8833 29.0753L19.3247 33.0586C19.2459 33.1814 19.204 33.3242 19.204 33.4702V33.8171H18.9369V30.0047C19.7104 29.9352 20.3188 29.2842 20.3188 28.4929V27.2433C20.3188 26.4059 19.6375 25.7246 18.8001 25.7246H17.5505C16.7131 25.7246 16.0318 26.4059 16.0318 27.2433V28.4929C16.0318 29.2841 16.6403 29.9352 17.4137 30.0047V33.8172H17.1466V33.4703C17.1466 33.3243 17.1046 33.1815 17.0258 33.0587L14.6974 29.4337C14.4702 29.0799 13.9991 28.9773 13.6451 29.2046C13.2913 29.4318 13.1887 29.903 13.4159 30.2569L15.6235 33.6938V34.2393C15.6235 34.4571 15.6879 34.6598 15.7975 34.8309V35.6194C15.7975 36.8445 16.7941 37.8412 18.0194 37.8412H18.3311C19.5562 37.8412 20.553 36.8446 20.553 35.6194V34.8309C20.6626 34.6598 20.727 34.4571 20.727 34.2393V33.6938L23.1562 29.9119C23.8745 28.887 24.2541 27.6822 24.2541 26.4268C24.2541 24.4171 23.2624 22.5397 21.6012 21.4045ZM18.7956 27.2433L18.8005 28.4885L18.2158 28.4906C18.2023 28.4898 18.1888 28.4885 18.1751 28.4885C18.1594 28.4885 18.144 28.4899 18.1285 28.4909L17.5548 28.4929L17.5504 27.2476L18.7956 27.2433ZM19.03 35.6193C19.03 36.0047 18.7164 36.3181 18.3311 36.3181H18.0194C17.6341 36.3181 17.3205 36.0047 17.3205 35.6193V35.3401H19.03V35.6193Z" fill="white"/>
<path d="M35.894 23.5213C39.6219 23.5213 42.6547 20.4885 42.6547 16.7606C42.6547 13.0328 39.6219 10 35.894 10C32.1661 10 29.1333 13.0328 29.1333 16.7606C29.1333 20.4885 32.1661 23.5213 35.894 23.5213ZM35.894 11.523C38.782 11.523 41.1316 13.8726 41.1316 16.7606C41.1316 19.6486 38.782 21.9982 35.894 21.9982C33.006 21.9982 30.6563 19.6486 30.6563 16.7606C30.6563 13.8726 33.006 11.523 35.894 11.523Z" fill="white"/>
<path d="M34.555 19.3017C34.7036 19.4503 34.8986 19.5247 35.0934 19.5247C35.2883 19.5247 35.4832 19.4503 35.632 19.3017L39.1896 15.7441C39.487 15.4466 39.487 14.9645 39.1896 14.6671C38.8921 14.3698 38.41 14.3698 38.1126 14.6671L35.0935 17.6862L34.5812 17.174C34.2839 16.8767 33.8017 16.8766 33.5043 17.1741C33.2069 17.4715 33.2069 17.9537 33.5044 18.251L34.555 19.3017Z" fill="white"/>
<path d="M59.8445 25.1467C59.7038 24.7133 59.3363 24.4035 58.8853 24.3379L55.7205 23.878L54.3052 21.0101C54.1036 20.6016 53.6953 20.3479 53.2398 20.3479C52.7844 20.3479 52.3761 20.6016 52.1745 21.0101L50.7591 23.878L47.5942 24.3379C47.1434 24.4035 46.7758 24.7133 46.6352 25.1466C46.4944 25.5799 46.6097 26.0464 46.9358 26.3643L49.226 28.5966L48.6853 31.7488C48.6084 32.1978 48.7896 32.643 49.158 32.9107C49.5265 33.1785 50.0059 33.2132 50.4092 33.0012L53.2399 31.5129L56.0707 33.0012C56.2461 33.0934 56.4359 33.1388 56.6246 33.1388C56.8699 33.1388 57.1136 33.0619 57.322 32.9106C57.6905 32.6427 57.8715 32.1976 57.7944 31.7487L57.2538 28.5967L59.5438 26.3644C59.8699 26.0465 59.9853 25.5799 59.8445 25.1467ZM56.0646 27.6288C55.7845 27.9017 55.6567 28.2948 55.7228 28.6805L56.1784 31.3372L53.7927 30.0829C53.6196 29.9919 53.4297 29.9463 53.2398 29.9463C53.0499 29.9463 52.86 29.9918 52.6868 30.0828L50.301 31.3372L50.7567 28.6803C50.8227 28.2947 50.695 27.9016 50.4151 27.6289L48.4849 25.7475L51.1525 25.3599C51.5396 25.3035 51.8739 25.0605 52.0468 24.71L53.2397 22.2928L54.4325 24.7096C54.6054 25.0604 54.9398 25.3035 55.3272 25.3598L57.9946 25.7474L56.0646 27.6288Z" fill="white"/>
<path d="M43.9688 19.7682C45.1309 20.2214 46.2569 20.7766 47.3294 21.4213C46.9941 21.5788 46.8147 21.961 46.9237 22.3269C47.0221 22.6574 47.325 22.8711 47.6532 22.8711C47.7252 22.8711 47.7984 22.8607 47.871 22.8392L49.3136 22.4095C49.6364 22.3135 49.8577 22.0166 49.8577 21.6797V20.1193C49.8577 19.6986 49.5168 19.3577 49.0961 19.3577C48.6755 19.3577 48.3346 19.6986 48.3346 20.1193V20.2509C47.1227 19.5043 45.8445 18.865 44.5223 18.3492C44.1305 18.1963 43.689 18.39 43.5361 18.7819C43.3834 19.1738 43.577 19.6152 43.9688 19.7682Z" fill="white"/>
<path d="M23.8775 21.6439C24.0135 21.6439 24.1511 21.6076 24.2754 21.5312C24.9864 21.0944 25.7267 20.6962 26.4832 20.3418L26.4436 20.4901C26.335 20.8963 26.5763 21.3137 26.9827 21.4225C27.0485 21.44 27.1147 21.4485 27.1798 21.4485C27.5161 21.4485 27.824 21.2238 27.915 20.8834L28.38 19.1433C28.4836 18.7561 28.2692 18.3548 27.8897 18.2258L26.4942 17.7508C26.0964 17.6149 25.6634 17.8281 25.528 18.2264C25.43 18.5142 25.5147 18.8193 25.7192 19.0179C24.9518 19.3825 24.2008 19.7897 23.4783 20.2336C23.1199 20.4538 23.0078 20.9227 23.228 21.281C23.3717 21.515 23.6216 21.6439 23.8775 21.6439Z" fill="white"/>
</svg>
