<svg width="72" height="72" viewBox="0 0 72 72" fill="none" xmlns="http://www.w3.org/2000/svg">
<path d="M35.9837 8.00016C35.48 8.01055 35.0793 8.42193 35.0851 8.92565V14.4263C35.0851 15.6486 36.9181 15.6486 36.9181 14.4263V8.92565C36.9254 8.4087 36.5006 7.99053 35.9837 8.00016ZM22.6696 11.5587C21.9736 11.5864 21.5617 12.3485 21.9196 12.946L24.6655 17.7074C25.2743 18.7675 26.8638 17.8546 26.255 16.7945L23.5019 12.0313C23.3357 11.7296 23.0139 11.5476 22.6696 11.5587ZM49.3049 11.5587C48.9679 11.5552 48.657 11.736 48.494 12.0313L45.7464 16.7945C45 17.8839 46.761 18.8989 47.3305 17.7074L50.0836 12.946C50.4469 12.3383 50.013 11.5653 49.3049 11.5587ZM27.7514 52.9222V57.5028C27.7533 58.0092 28.1652 58.4177 28.6715 58.4157H29.0205L30.5617 62.4129C30.6979 62.7667 31.0382 63.0001 31.4174 63H40.5822C40.9568 62.9997 41.2934 62.7713 41.4325 62.4236L41.7994 61.5071C42.2573 60.3703 40.5487 59.6876 40.0971 60.8268L39.9611 61.167H32.0457L30.986 58.4157H43.3317C43.8353 58.4139 44.2428 58.0065 44.2446 57.5028V49.779C49.408 46.7699 52.4948 41.3647 52.4983 35.5073C52.4983 26.4072 45.098 19.0069 35.998 19.0069C26.898 19.0069 19.5031 26.4072 19.5031 35.5073C19.5067 41.5946 22.8672 47.1882 28.2383 50.0528C29.3405 50.7085 30.2577 48.983 29.0975 48.4364C24.3203 45.8886 21.3411 40.9215 21.3378 35.5073C21.3378 27.3978 27.8886 20.8399 35.998 20.8399C44.1074 20.8399 50.6653 27.3978 50.6653 35.5073C50.6615 40.9215 47.6757 45.8886 42.8985 48.4364C42.603 48.5965 42.4191 48.9059 42.4188 49.242V52.0021L28.6715 52.0039C28.212 52.0041 27.7514 52.3095 27.7514 52.9222ZM12.9141 21.2928C11.9935 21.3423 11.7143 22.567 12.522 23.0112L17.2853 25.7589C18.3452 26.3723 19.2652 24.7827 18.2053 24.1693L13.4421 21.4216C13.2831 21.3264 13.0988 21.2813 12.9141 21.2928ZM58.9656 21.2928C58.8222 21.3032 58.6843 21.3475 58.5611 21.4216L53.7978 24.1693C52.7379 24.7782 53.6509 26.3678 54.7107 25.7589L59.474 23.0112C60.3394 22.5384 59.949 21.2196 58.9656 21.2928ZM34.165 24.5076C32.9428 24.5076 32.9428 26.3406 34.165 26.3406H37.081L37.575 28.7893C37.6377 29.1046 37.8597 29.3642 38.1621 29.4731C38.8883 29.7308 39.5634 30.1205 40.1526 30.617C40.3979 30.8248 40.734 30.8881 41.0387 30.7852L43.3925 29.9869L44.4755 31.861L42.6085 33.5061C42.3664 33.7184 42.2522 34.0414 42.3096 34.3581C42.4495 35.1052 42.4249 35.9638 42.3096 36.6511C42.2506 36.9667 42.3616 37.2895 42.6013 37.5032L44.4755 39.1482L43.3925 41.0223L41.0315 40.224C40.7267 40.1211 40.3908 40.1841 40.1454 40.3923C39.5586 40.8903 38.8883 41.2831 38.1639 41.5433C37.8615 41.652 37.6378 41.9101 37.575 42.2253L37.081 44.6687H34.915L34.4282 42.2198C34.3641 41.9029 34.139 41.6428 33.8339 41.536C33.1077 41.2786 32.4326 40.8886 31.8434 40.3922C31.5981 40.1889 31.266 40.1272 30.9645 40.2294L28.6035 41.0277L27.5205 39.1535L29.3947 37.5032C29.6368 37.2908 29.7509 36.9678 29.6936 36.6511C29.5235 35.8652 29.5762 35.0518 29.6936 34.3653C29.7535 34.0463 29.6389 33.7196 29.3947 33.5061L27.5205 31.861L28.6035 29.9869L30.9717 30.7852C31.2765 30.8881 31.6124 30.8248 31.8577 30.617C32.252 30.2823 32.6819 30.0002 33.1429 29.7702C34.2389 29.2245 33.4209 27.5813 32.3249 28.127C31.8999 28.339 31.4724 28.6111 31.0898 28.8932L28.4818 28.0125C28.0683 27.8708 27.6133 28.0402 27.3934 28.417L25.5587 31.5978C25.3422 31.9756 25.4218 32.4522 25.7484 32.7399L27.8141 34.5549C27.6939 35.3313 27.7422 35.8416 27.8104 36.4559L25.7483 38.2674C25.4182 38.556 25.3384 39.0391 25.5586 39.4184L27.3933 42.5921C27.6112 42.9724 28.0666 43.1442 28.4817 43.0037L31.0843 42.1195C31.5656 42.4954 32.1816 42.8252 32.7222 43.0628L33.2646 45.764C33.3502 46.1931 33.7275 46.5019 34.1649 46.5014H37.8309C38.2684 46.5019 38.6457 46.1932 38.7313 45.764L39.2683 43.07C39.8067 42.8314 40.4038 42.51 40.9043 42.1195L43.5213 43.0037C43.9343 43.1406 44.3872 42.9692 44.6043 42.5921L46.4372 39.4184C46.6589 39.0407 46.5823 38.558 46.2547 38.2674L44.1872 36.4506C44.287 35.6969 44.2533 35.1169 44.1834 34.5639L46.2544 32.7399C46.5786 32.4503 46.6551 31.974 46.437 31.5978L44.6094 28.417C44.3894 28.0394 43.9345 27.8708 43.5211 28.0125L40.9148 28.8896C40.435 28.5413 39.8688 28.1838 39.2789 27.9498L38.7312 25.2451C38.6456 24.8161 38.2683 24.5071 37.8308 24.5076H34.165ZM35.998 31.8413C33.9842 31.8413 32.3303 33.4935 32.3303 35.5073C32.3303 37.5211 33.9842 39.175 35.998 39.175C38.0118 39.175 39.6657 37.5211 39.6657 35.5073C39.6657 33.4935 38.0118 31.8413 35.998 31.8413ZM35.998 33.6743C37.0212 33.6743 37.831 34.4841 37.831 35.5073C37.831 36.5305 37.0212 37.342 35.998 37.342C34.9748 37.342 34.165 36.5305 34.165 35.5073C34.165 34.4841 34.9748 33.6743 35.998 33.6743ZM9.42353 34.5872C8.20127 34.5872 8.20127 36.4202 9.42353 36.4202H14.9242C16.1465 36.4202 16.1465 34.5872 14.9242 34.5872H9.42353ZM57.0789 34.5872C55.8567 34.5872 55.8567 36.4202 57.0789 36.4202H62.5796C63.8019 36.4202 63.8019 34.5872 62.5796 34.5872H57.0789ZM17.6916 45.1213C17.5482 45.1317 17.4085 45.176 17.2853 45.2502L12.522 48.0033C11.384 48.5937 12.3658 50.2821 13.4421 49.5856L18.2053 46.8397C19.0758 46.3657 18.6794 45.0393 17.6916 45.1213ZM54.1827 45.1213C53.2653 45.1767 52.9922 46.3976 53.7978 46.8398L58.5611 49.5856C59.6504 50.3317 60.6651 48.5729 59.474 48.0033L54.7107 45.2503C54.5518 45.155 54.3675 45.11 54.1827 45.1214V45.1213ZM29.5844 53.8351H42.4188V56.581H29.5844V53.8351Z" fill="white"/>
</svg>
