<svg width="179" height="82" viewBox="0 0 179 82" fill="none" xmlns="http://www.w3.org/2000/svg">
<path d="M1.1676 81.9393C9.81853 66.0528 22.5901 52.7936 38.1381 43.5574C53.6862 34.3212 71.4355 29.4497 89.5176 29.4558C107.6 29.462 125.346 34.3455 140.888 43.5924C156.429 52.8392 169.192 66.1073 177.832 82L179 81.3645L178.999 81.3625C178.719 80.8481 178.435 80.3365 178.147 79.8275C169.416 64.406 156.811 51.5186 141.567 42.4492C125.82 33.0802 107.839 28.1321 89.5181 28.1259C71.197 28.1196 53.213 33.0555 37.4594 42.4138C22.2097 51.4729 9.59596 64.3516 0.853851 79.7672C0.565231 80.2762 0.280807 80.7879 0.000671387 81.3024L0 81.3036L1.1676 81.9393Z" fill="#958677"/>
<path d="M90.1425 5.19053V28.1258H88.8248V5.19053C87.6881 4.89782 86.8482 3.86545 86.8482 2.6368C86.8482 1.18054 88.0281 0 89.4836 0C90.9391 0 92.119 1.18054 92.119 2.6368C92.119 3.86545 91.2792 4.89782 90.1425 5.19053Z" fill="#958677"/>
</svg>
