<svg width="182" height="48" viewBox="0 0 182 48" fill="none" xmlns="http://www.w3.org/2000/svg">
<g clip-path="url(#clip0_382_6460)">
<path d="M181.353 44.4673V45.2158H180.659" stroke="#151011" stroke-width="0.48" stroke-miterlimit="10" stroke-linecap="round"/>
<path d="M10.7426 22.2513L1.29346 12.1436H9.04795L18.503 22.2513H10.7426Z" fill="#FE0807"/>
<path d="M11.3594 9.67684V1.37744L20.8085 11.4852V19.7786L11.3594 9.67684Z" fill="#FE0807"/>
<path d="M8.08977 2.78467H2.60474V8.64694H8.08977V2.78467Z" fill="#FE0807"/>
<path d="M26.3892 22.2513L35.8383 12.1436H43.5987L34.1437 22.2513H26.3892Z" fill="#FE0807"/>
<path d="M24.0779 11.4851L33.527 1.3833V9.67671L24.0779 19.7845V11.4851Z" fill="#FE0807"/>
<path d="M42.2814 2.78467H36.7964V8.64694H42.2814V2.78467Z" fill="#FE0807"/>
<path d="M18.563 24.0002L22.4432 19.8564L26.3235 24.0002L22.4432 28.1499L18.563 24.0002Z" fill="#FE0807"/>
<path d="M18.563 4.1497L22.4432 0L26.3235 4.1497L22.4432 8.29341L18.563 4.1497Z" fill="#FE0807"/>
<path d="M0 24.0002L3.88024 19.8564L7.75449 24.0002L3.88024 28.1499L0 24.0002Z" fill="#FE0807"/>
<path d="M37.1318 24.0002L41.0121 19.8564L44.8863 24.0002L41.0121 28.1499L37.1318 24.0002Z" fill="#FE0807"/>
<path d="M18.563 43.8562L22.4432 39.7065L26.3235 43.8562L22.4432 48L18.563 43.8562Z" fill="#FE0807"/>
<path d="M1.29346 35.8503L10.7426 25.7485H18.503L9.04795 35.8503H1.29346Z" fill="#FE0807"/>
<path d="M11.3594 38.3231L20.8085 28.2153V36.5147L11.3594 46.6225V38.3231Z" fill="#FE0807"/>
<path d="M8.08977 39.3472H2.60474V45.2094H8.08977V39.3472Z" fill="#FE0807"/>
<path d="M35.8383 35.8503L26.3892 25.7485H34.1437L43.5987 35.8503H35.8383Z" fill="#FE0807"/>
<path d="M24.0779 36.5087V28.2153L33.527 38.3231V46.6165L24.0779 36.5087Z" fill="#FE0807"/>
<path d="M42.2814 39.3472H36.7964V45.2094H42.2814V39.3472Z" fill="#FE0807"/>
<path d="M68.449 43.2457H68.3173C67.7843 43.1739 67.3831 42.7008 67.3831 42.1319V28.0182C67.3831 27.5451 67.0119 27.1499 66.5688 27.1499C66.1257 27.1499 65.7544 27.5511 65.7544 28.0182V33.3655C65.7544 34.3774 64.9999 35.1978 64.0658 35.1978H61.3832C60.7903 35.1978 60.2035 35.3715 59.6945 35.6948V29.9942C59.6646 28.5331 58.6107 27.3116 57.2454 27.1499H56.9999C56.5508 27.1499 56.1855 27.5391 56.1855 28.0182C56.1855 28.4972 56.5508 28.8864 56.9999 28.8864H57.1077C57.6466 28.9523 58.0478 29.4254 58.0658 30.0002V44.114C58.0658 44.611 58.4131 44.9822 58.8802 44.9822C59.3472 44.9822 59.6945 44.593 59.6945 44.114V38.7367C59.6945 37.7427 60.449 36.9343 61.3832 36.9343H64.0658C64.6586 36.9343 65.2394 36.7607 65.7544 36.4313V42.1319C65.7544 43.6289 66.8023 44.8565 68.2155 44.9882H68.449C68.8981 44.9882 69.2634 44.599 69.2634 44.12C69.2634 43.6409 68.8921 43.2517 68.449 43.2517" fill="#151011"/>
<path d="M78.3413 43.2453H78.2755C77.9341 43.2094 77.6647 42.898 77.6647 42.5447V37.886C77.6347 37.383 77.4431 36.928 77.1138 36.5806C77.1138 36.5806 77 36.4549 76.8623 36.3411C76.5389 36.0417 75.994 36.0896 75.7126 36.4369C75.4252 36.7962 75.4671 37.3591 75.8024 37.6645L75.8383 37.6944C75.8383 37.6944 75.8862 37.7363 75.9102 37.7543C75.9341 37.7783 75.9581 37.7962 75.982 37.8202C76.024 37.886 76.024 37.91 76.024 37.91V40.5268C76.024 40.7244 76 40.9399 75.9581 41.1256C75.6527 42.5447 74.3293 43.5148 72.9162 43.1675C72.2575 43.0238 71.6946 42.6046 71.3294 41.9639C70.9701 41.3771 70.8563 40.6585 71.018 39.9459C71.1677 39.2573 71.5629 38.6465 72.0958 38.2753L75.5629 35.922C76.3294 35.3531 76.8084 34.395 76.8084 33.413C76.8084 31.7483 75.5509 30.395 74.012 30.395C73.2515 30.395 72.5629 30.7004 72.0419 31.2633C71.8802 31.413 71.7844 31.6226 71.7785 31.8561C71.7725 32.0956 71.8563 32.3411 72.024 32.5148C72.3114 32.8202 72.8383 32.8262 73.1557 32.5327L73.1856 32.4968C73.3952 32.2573 73.6707 32.1315 74.018 32.1315C74.6647 32.1315 75.1916 32.7064 75.1916 33.413C75.1916 33.8381 74.994 34.2274 74.6707 34.4549L71.2395 36.7962C69.3054 38.1196 68.7665 40.7363 69.988 42.892C70.7725 44.2214 72.0539 44.9818 73.503 44.9818C74.5689 44.9818 75.5988 44.5387 76.3533 43.7723C76.7305 44.4429 77.3952 44.91 78.1677 44.9818H78.3473C78.7904 44.9818 79.1617 44.5806 79.1617 44.1136C79.1617 43.6465 78.7904 43.2453 78.3473 43.2453" fill="#151011"/>
<path d="M88.4372 43.389V31.2333C88.3893 30.7543 88.048 30.401 87.6228 30.401C87.1557 30.401 86.8084 30.7783 86.8084 31.2693V43.2453H82.9581C82.5689 43.2453 82.3054 42.8681 82.3054 42.5148V32.8262C82.2755 31.5747 81.3773 30.5268 80.2156 30.395H79.9941C79.527 30.395 79.1797 30.7663 79.1797 31.2633C79.1797 31.7603 79.539 32.1315 79.9941 32.1315H80.0599C80.4072 32.1675 80.6707 32.4669 80.6707 32.8321V42.5088C80.6707 43.8501 81.7186 44.9759 82.9521 44.9759H87.6168C88.2635 44.9759 88.7905 45.5507 88.7905 46.2573C88.7905 46.7304 89.1617 47.1256 89.6048 47.1256C90.048 47.1256 90.4192 46.7423 90.4192 46.2573C90.4192 44.916 89.5989 43.7543 88.4372 43.3771" fill="#151011"/>
<path d="M93.3412 27.1499C92.8861 27.1499 92.5269 27.5331 92.5269 28.0182V29.1499C92.5269 29.623 92.8981 30.0182 93.3412 30.0182C93.7843 30.0182 94.1556 29.6289 94.1556 29.1499V28.0182C94.1556 27.5212 93.8083 27.1499 93.3412 27.1499Z" fill="#151011"/>
<path d="M92.066 30.4014H91.8444C91.4013 30.4014 91.03 30.7966 91.03 31.2696C91.03 31.7427 91.4013 32.1379 91.8444 32.1379H91.9103C92.2516 32.1738 92.521 32.4912 92.521 32.8684V44.1139C92.521 44.587 92.8923 44.9822 93.3354 44.9822C93.7785 44.9822 94.1498 44.593 94.1498 44.1139V32.8684C94.1498 31.593 93.2516 30.5331 92.06 30.4014" fill="#151011"/>
<path d="M100.635 30.4014C99.9161 30.4014 99.2335 30.605 98.6587 30.9882L96.6407 32.3295C96.3832 32.4792 96.006 32.5391 95.7545 32.4373C95.3413 32.2936 94.8802 32.5571 94.7365 33.0241L94.7245 33.066C94.6287 33.5151 94.8682 33.9642 95.3173 34.1259C96.1497 34.3295 96.7664 34.2577 97.461 33.8505L99.479 32.4852C99.8443 32.2636 100.239 32.1499 100.635 32.1499C101.88 32.1499 102.886 33.2157 102.886 34.5331V40.8445C102.886 42.1738 101.874 43.2517 100.635 43.2517C99.3952 43.2517 98.3832 42.1678 98.3832 40.8445V35.1678C98.3832 34.6768 98.0239 34.2996 97.5688 34.2996C97.1137 34.2996 96.7784 34.6888 96.7784 35.1678V40.8445C96.7784 43.1319 98.509 44.9942 100.635 44.9942C102.76 44.9942 104.515 43.1319 104.515 40.8445V34.5331C104.515 32.2577 102.772 30.4074 100.635 30.4074" fill="#151011"/>
<path d="M116.233 43.2457H116.168C115.826 43.2097 115.557 42.8984 115.557 42.5451V31.2696C115.557 30.7906 115.192 30.4014 114.742 30.4014C114.293 30.4014 113.928 30.7786 113.928 31.2696V35.5451C113.928 36.2397 113.377 36.8265 112.73 36.8265H110.593C110.18 36.8265 109.784 36.9223 109.419 37.102V32.8385C109.389 31.587 108.491 30.5391 107.329 30.4074H106.85C106.401 30.4074 106.036 30.7966 106.036 31.2756C106.036 31.7547 106.407 32.1439 106.85 32.1439H107.174C107.509 32.1738 107.784 32.4912 107.784 32.8445V44.1199C107.784 44.6109 108.144 44.9882 108.599 44.9882C109.054 44.9882 109.413 44.587 109.413 44.1199V39.8445C109.413 39.1379 109.94 38.563 110.587 38.563H112.725C113.132 38.563 113.539 38.4612 113.922 38.2696V42.5451C113.922 43.8026 114.82 44.8565 116.012 44.9822H116.233C116.677 44.9822 117.048 44.587 117.048 44.1139C117.048 43.6409 116.677 43.2457 116.233 43.2457Z" fill="#151011"/>
<path d="M126.904 43.2457H126.838C126.497 43.2097 126.228 42.8984 126.228 42.5451V37.8864C126.198 37.3834 126.006 36.9283 125.677 36.581C125.677 36.581 125.557 36.4553 125.425 36.3415C125.102 36.0421 124.557 36.09 124.276 36.4433C123.988 36.8026 124.03 37.3654 124.371 37.6708L124.407 37.7008C124.407 37.7008 124.455 37.7427 124.479 37.7606C124.503 37.7846 124.527 37.8026 124.557 37.8265C124.593 37.8924 124.599 37.9163 124.599 37.9163V40.5331C124.599 40.7307 124.575 40.9463 124.533 41.1319C124.228 42.5511 122.904 43.5211 121.491 43.1738C120.832 43.0301 120.27 42.6109 119.904 41.9702C119.545 41.3834 119.431 40.6648 119.593 39.9523C119.743 39.2636 120.138 38.6529 120.671 38.2816L124.138 35.9283C124.904 35.3595 125.383 34.4014 125.383 33.4193C125.383 31.7547 124.126 30.4014 122.587 30.4014C121.826 30.4014 121.138 30.7068 120.617 31.2696C120.455 31.4193 120.359 31.6289 120.353 31.8624C120.347 32.102 120.431 32.3475 120.599 32.5211C120.886 32.8265 121.407 32.8325 121.731 32.5391L121.761 32.5032C121.97 32.2636 122.252 32.1379 122.593 32.1379C123.24 32.1379 123.767 32.7127 123.767 33.4193C123.767 33.8445 123.569 34.2337 123.246 34.4612L119.814 36.8026C117.88 38.1259 117.341 40.7427 118.563 42.8984C119.347 44.2277 120.629 44.9882 122.078 44.9882C123.144 44.9882 124.174 44.5451 124.928 43.7726C125.306 44.4433 125.97 44.9103 126.743 44.9882H126.922C127.365 44.9882 127.737 44.587 127.737 44.1199C127.737 43.6529 127.365 43.2517 126.922 43.2517" fill="#151011"/>
<path d="M134.97 30.4014H134.455C133.156 30.4014 131.886 30.9463 130.976 31.8864C130.018 32.8505 129.491 34.1259 129.491 35.4852V42.5151C129.491 42.9523 129.15 43.2457 128.838 43.2457C128.377 43.2457 128 43.6349 128 44.1139C128 44.593 128.377 44.9822 128.838 44.9822C130.078 44.9822 131.12 43.8505 131.12 42.5151V35.4852C131.12 34.605 131.461 33.7726 132.09 33.1259C132.701 32.4972 133.563 32.1379 134.461 32.1379H134.958C135.341 32.1559 135.629 32.4672 135.629 32.8684V44.1139C135.629 44.587 136 44.9822 136.443 44.9822C136.886 44.9822 137.257 44.593 137.257 44.1139V32.8684C137.257 31.5331 136.21 30.4014 134.976 30.4014" fill="#151011"/>
<path d="M144.245 35.0301C143.419 35.0301 142.647 35.2996 141.994 35.8026V32.8684C141.994 31.5331 140.934 30.4014 139.683 30.4014C139.221 30.4014 138.868 30.7786 138.868 31.2696C138.868 31.7606 139.233 32.1379 139.683 32.1379C140.048 32.1379 140.365 32.4792 140.365 32.8684V40.1978C140.365 40.6948 140.712 41.066 141.18 41.066C141.647 41.066 141.994 40.6768 141.994 40.1978V39.1798C141.994 37.8505 143.006 36.7726 144.245 36.7726C145.485 36.7726 146.497 37.8565 146.497 39.1798V40.8325C146.497 42.1618 145.485 43.2397 144.245 43.2397C143.844 43.2397 143.461 43.1319 143.108 42.9163L141.233 41.6409L141.03 41.5151C140.251 41.1139 139.503 41.0361 138.868 41.2756C138.665 41.3475 138.497 41.4972 138.395 41.6948C138.293 41.8984 138.275 42.1379 138.335 42.3235C138.419 42.7127 138.748 42.9882 139.12 42.9882C139.204 42.9882 139.287 42.9762 139.383 42.9403C139.647 42.8265 140.072 42.8984 140.383 43.1259L142.257 44.4014C142.874 44.7786 143.563 44.9762 144.251 44.9762C146.389 44.9762 148.132 43.1139 148.132 40.8265V39.1738C148.132 36.8864 146.389 35.0241 144.251 35.0241" fill="#151011"/>
<path d="M159.12 43.2457H159.054C158.713 43.2097 158.437 42.8984 158.437 42.5451V31.2696C158.437 30.7906 158.072 30.4014 157.623 30.4014C157.174 30.4014 156.808 30.7786 156.808 31.2696V35.5451C156.808 36.2277 156.252 36.8265 155.611 36.8265H153.473C153.06 36.8265 152.659 36.9223 152.299 37.102V32.8385C152.27 31.587 151.371 30.5391 150.21 30.4074H149.731C149.276 30.4074 148.916 30.7846 148.916 31.2756C148.916 31.7666 149.288 32.1439 149.731 32.1439H150.054C150.395 32.1738 150.665 32.4912 150.665 32.8445V44.1199C150.665 44.599 151.03 44.9882 151.479 44.9882C151.928 44.9882 152.294 44.587 152.294 44.1199V39.8445C152.294 39.1379 152.82 38.563 153.467 38.563H155.605C156.012 38.563 156.419 38.4612 156.802 38.2696V42.5451C156.802 43.8026 157.701 44.8565 158.892 44.9822H159.114C159.557 44.9822 159.928 44.587 159.928 44.1139C159.928 43.6409 159.557 43.2457 159.114 43.2457" fill="#151011"/>
<path d="M168.527 30.4011C167.892 30.4011 167.054 30.7664 166.796 31.8083L164.174 43.1077C164.12 43.2454 164.06 43.2454 164.048 43.2454C163.964 43.2395 163.904 43.2215 163.904 43.0658V32.8263C163.874 31.5748 162.976 30.5269 161.814 30.3951H161.593C161.132 30.3951 160.778 30.7664 160.778 31.2634C160.778 31.7604 161.144 32.1317 161.593 32.1317H161.659C162 32.1676 162.257 32.461 162.269 32.8323V43.0838C162.269 44.1257 163.054 44.976 164.012 44.976C164.647 44.976 165.485 44.6107 165.742 43.5688L168.359 32.2574C168.407 32.1616 168.443 32.1317 168.491 32.1317C168.575 32.1377 168.635 32.1556 168.635 32.3113V44.1077C168.635 44.5868 169 44.976 169.449 44.976C169.898 44.976 170.263 44.5868 170.263 44.1077V32.2814C170.263 31.2395 169.485 30.3892 168.521 30.3892" fill="#151011"/>
<path d="M179.611 30.4011C178.976 30.4011 178.138 30.7664 177.88 31.8083L175.258 43.1077C175.204 43.2454 175.15 43.2454 175.132 43.2454C175.048 43.2395 174.988 43.2215 174.988 43.0658V32.8263C174.958 31.5748 174.06 30.5269 172.898 30.3951H172.677C172.216 30.3951 171.862 30.7664 171.862 31.2634C171.862 31.7604 172.228 32.1317 172.677 32.1317H172.743C173.084 32.1676 173.341 32.461 173.353 32.8323V43.0838C173.353 44.1257 174.138 44.976 175.096 44.976C175.731 44.976 176.569 44.6107 176.826 43.5688L179.443 32.2574C179.491 32.1616 179.527 32.1317 179.575 32.1317C179.659 32.1377 179.719 32.1556 179.719 32.3113V44.1077C179.719 44.5868 180.084 44.976 180.533 44.976C180.982 44.976 181.347 44.5868 181.347 44.1077V32.2814C181.347 31.2395 180.569 30.3892 179.605 30.3892" fill="#151011"/>
<path d="M176.287 29.7962H177.551C178.539 29.7962 179.479 29.383 180.234 28.6106C180.515 28.2573 180.509 27.7184 180.216 27.401C179.898 27.0657 179.353 27.0657 179.06 27.401C178.635 27.8262 178.114 28.0537 177.551 28.0537H176.287C175.725 28.0537 175.204 27.8262 174.778 27.401C174.491 27.0597 173.94 27.0597 173.623 27.401C173.329 27.7124 173.317 28.2573 173.623 28.6345C174.353 29.383 175.293 29.7962 176.281 29.7962" fill="#151011"/>
<path d="M64.6825 3.04199H64.0658C62.461 3.04199 60.9939 3.65876 59.8083 4.83241C58.6706 5.99409 58.0418 7.54499 58.0418 9.20367V18.024C58.0418 18.3234 57.934 18.6109 57.7544 18.8025C57.5328 19.018 57.2574 19.1378 56.9999 19.1378C56.5508 19.1378 56.1855 19.527 56.1855 20.0061C56.1855 20.4851 56.5329 20.8743 56.9999 20.8743C57.7065 20.8743 58.3951 20.5689 58.8861 20.042C59.3951 19.4971 59.6646 18.7965 59.6646 18.018V9.19768C59.6646 8.03002 60.1197 6.92822 60.94 6.09588C61.7724 5.23361 62.8502 4.77852 64.0538 4.77852H64.6706C64.946 4.77852 65.2155 4.89828 65.4131 5.10187C65.6646 5.37133 65.7185 5.67672 65.7185 5.89229V20.0061C65.7185 20.4851 66.0837 20.8743 66.5329 20.8743C66.982 20.8743 67.3472 20.4971 67.3472 20.0061V5.89229C67.3472 5.1378 67.0598 4.40127 66.5688 3.87433C66.0598 3.32942 65.4071 3.04199 64.6766 3.04199" fill="#151011"/>
<path d="M77.7186 16.7306V10.4192C77.7186 8.14376 75.976 6.29346 73.8383 6.29346C73.1198 6.29346 72.4371 6.49705 71.8623 6.88028L69.8443 8.2216C69.5868 8.3713 69.2096 8.43118 68.9581 8.32938C68.5449 8.18567 68.0838 8.44915 67.9401 8.91621L67.9281 8.95813C67.8323 9.40723 68.0719 9.85633 68.521 10.018C69.3533 10.2216 69.9701 10.1497 70.6647 9.74256L72.6826 8.37729C73.0479 8.15573 73.4491 8.04196 73.8383 8.04196C75.0838 8.04196 76.0898 9.10783 76.0898 10.4252V16.7366C76.0898 18.0659 75.0778 19.1438 73.8383 19.1438C72.5988 19.1438 71.5868 18.0599 71.5868 16.7366V11.0599C71.5868 10.5689 71.2275 10.1917 70.7725 10.1917C70.3174 10.1917 69.982 10.5809 69.982 11.0599V16.7366C69.982 19.024 71.7126 20.8863 73.8383 20.8863C75.9641 20.8863 77.7186 19.024 77.7186 16.7366" fill="#151011"/>
<path d="M85.1377 20.3054C85.2814 20.6587 85.5808 20.8803 85.9222 20.8803C86.2635 20.8803 86.5988 20.6168 86.6946 20.2575L89.9341 8.16172C89.9461 8.12579 89.988 8.03597 90.0719 8.03597C90.1377 8.03597 90.2096 8.0719 90.2096 8.15573V18.4372C90.2096 19.6947 91.1078 20.7485 92.2994 20.8743H92.515C92.9581 20.8743 93.3293 20.4791 93.3293 20.006C93.3293 19.533 92.9581 19.1378 92.515 19.1378H92.4491C92.1078 19.1018 91.8383 18.7905 91.8383 18.4372V8.15573C91.8383 7.12579 91.0479 6.29346 90.0539 6.29346C89.2635 6.32939 88.5988 6.85034 88.3653 7.63477L85.9162 16.8384L83.4431 7.62879C83.2216 6.81441 82.5509 6.29346 81.7425 6.29346C80.7844 6.29346 80 7.13178 80 8.15573V20.012C80 20.503 80.3593 20.8803 80.8144 20.8803C81.2695 20.8803 81.6287 20.4791 81.6287 20.012V8.15573C81.6287 8.12579 81.6287 8.03597 81.7425 8.03597C81.7904 8.03597 81.8503 8.06591 81.8683 8.13178L85.1138 20.2635L85.1317 20.3114L85.1377 20.3054Z" fill="#151011"/>
<path d="M98.7843 20.8741C100.922 20.8741 102.665 19.0118 102.665 16.7244V12.5627C102.665 10.2753 100.922 8.41302 98.7843 8.41302C98.3172 8.41302 97.8621 8.50883 97.455 8.68248C97.2574 8.75434 97.0957 8.90404 96.9999 9.10164C96.8981 9.31122 96.8861 9.56871 96.9699 9.83218C97.1017 10.1555 97.4011 10.3591 97.7184 10.3591C97.8322 10.3591 97.946 10.3352 98.0298 10.2933C98.2753 10.1974 98.5148 10.1495 98.7783 10.1495C100.024 10.1495 101.03 11.2334 101.03 12.5567V16.7184C101.03 18.0477 100.018 19.1256 98.7783 19.1256C97.5388 19.1256 96.5268 18.0418 96.5268 16.7184V9.27529C96.5268 7.96392 97.5388 6.89206 98.7783 6.89206H99.8322C101.389 6.89206 102.659 5.55074 102.659 3.89805C102.659 3.40703 102.299 3.02979 101.844 3.02979C101.389 3.02979 101.03 3.41302 101.03 3.89805C101.03 4.58667 100.503 5.14955 99.8562 5.14955H98.7723C96.6346 5.14955 94.8921 6.99984 94.8921 9.27529V16.7184C94.8921 19.0058 96.6346 20.8681 98.7723 20.8681" fill="#151011"/>
<path d="M112.982 19.1379H112.916C112.575 19.102 112.299 18.7906 112.299 18.4373V13.7786C112.269 13.2756 112.078 12.8205 111.755 12.4732C111.755 12.4732 111.641 12.3475 111.503 12.2337C111.18 11.9343 110.635 11.9822 110.353 12.3355C110.21 12.5092 110.144 12.7367 110.162 12.9702C110.18 13.2038 110.281 13.4133 110.443 13.563L110.479 13.593C110.479 13.593 110.527 13.6349 110.551 13.6529C110.575 13.6708 110.599 13.6948 110.623 13.7127C110.665 13.7786 110.665 13.8026 110.665 13.8026V16.4193C110.665 16.6169 110.641 16.8325 110.599 17.0181C110.293 18.4373 108.97 19.4074 107.557 19.0601C106.898 18.9163 106.335 18.4972 105.97 17.8565C105.611 17.2696 105.497 16.5511 105.659 15.8385C105.814 15.1499 106.204 14.5391 106.737 14.1678L110.204 11.8145C110.97 11.2457 111.449 10.2876 111.449 9.30556C111.449 7.64089 110.192 6.2876 108.653 6.2876C107.892 6.2876 107.204 6.59299 106.683 7.15586C106.521 7.30556 106.425 7.51514 106.419 7.74868C106.413 7.9882 106.497 8.22772 106.665 8.40736C106.946 8.71275 107.473 8.71874 107.796 8.42532L107.826 8.38939C108.036 8.14389 108.311 8.02412 108.659 8.02412C109.305 8.02412 109.832 8.59897 109.832 9.30556C109.832 9.73071 109.635 10.1199 109.311 10.3475L105.886 12.6888C103.952 14.0121 103.413 16.6289 104.635 18.7846C105.419 20.1139 106.701 20.8744 108.15 20.8744C109.216 20.8744 110.246 20.4313 111 19.6648C111.377 20.3355 112.042 20.8026 112.814 20.8744H112.994C113.437 20.8744 113.808 20.4732 113.808 20.0062C113.808 19.5391 113.437 19.1379 112.994 19.1379" fill="#151011"/>
<path d="M115.216 8.02988C115.557 8.06581 115.826 8.38318 115.826 8.76042V13.97C115.826 14.6946 116.198 15.0898 116.527 15.4371L116.629 15.5389C116.952 15.8383 117.497 15.7844 117.778 15.4371C117.922 15.2634 117.988 15.0359 117.97 14.8023C117.952 14.5688 117.85 14.3592 117.689 14.2095L117.605 14.1317C117.461 14.0059 117.461 13.994 117.461 13.964V9.11371L118.557 8.35922C118.922 8.13767 119.317 8.02389 119.713 8.02389C120.958 8.02389 121.964 9.10773 121.964 10.4311V12.8023C121.964 13.0898 121.844 13.3233 121.623 13.455C120.766 14.0478 118.605 15.5029 118.168 15.7904L118.066 15.8562C116.665 16.8143 115.832 18.4071 115.832 20.1077V24.3532C115.832 24.8263 116.204 25.2215 116.647 25.2215C117.09 25.2215 117.461 24.8383 117.461 24.3532V20.1077C117.461 19.0059 118.024 17.9401 118.934 17.3353L118.976 17.3053C119.09 17.2275 119.557 16.9161 120.048 16.5808C120.892 16.0179 121.988 15.2814 122.491 14.9341C123.198 14.473 123.599 13.6946 123.599 12.7963V10.4251C123.599 9.82629 123.473 9.2215 123.228 8.6227C122.575 7.19755 121.198 6.27539 119.719 6.27539C119.084 6.27539 118.437 6.45503 117.844 6.79635H117.808L117.048 7.31731C116.677 6.74246 116.072 6.35323 115.377 6.27539H115.156C114.713 6.27539 114.341 6.6706 114.341 7.14365C114.341 7.61671 114.713 8.01192 115.156 8.01192H115.222L115.216 8.02988Z" fill="#151011"/>
<path d="M125.761 22.1557C125.761 21.4491 126.3 20.8743 126.958 20.8743H133.096C133.743 20.8743 134.27 21.4491 134.27 22.1557C134.27 22.6288 134.641 23.024 135.084 23.024C135.527 23.024 135.898 22.6348 135.898 22.1557C135.898 20.7905 135.078 19.6228 133.91 19.2695V8.76052C133.91 8.10184 133.671 7.48507 133.234 7.01801C132.797 6.55094 132.216 6.29346 131.599 6.29346H131.108C129.761 6.29346 128.551 6.79645 127.599 7.75453C126.647 8.74256 126.144 9.99406 126.144 11.3773V17.1138C126.144 18.1497 126.802 18.9821 127.719 19.0839C128.198 19.1378 128.575 18.7785 128.617 18.2875C128.665 17.8204 128.341 17.4012 127.898 17.3473C127.844 17.3414 127.767 17.3294 127.767 17.1138V11.3773C127.767 10.497 128.108 9.66471 128.737 9.01801C129.353 8.37729 130.198 8.02998 131.108 8.02998H131.599C131.785 8.02998 131.946 8.10184 132.084 8.24555C132.204 8.3713 132.282 8.58088 132.282 8.76052V19.1378H126.958C125.401 19.1378 124.132 20.4911 124.132 22.1557C124.132 22.6288 124.503 23.024 124.946 23.024C125.389 23.024 125.761 22.6348 125.761 22.1557Z" fill="#151011"/>
</g>
<defs>
<clipPath id="clip0_382_6460">
<rect width="181.497" height="48" fill="white"/>
</clipPath>
</defs>
</svg>
