<svg width="50" height="35" viewBox="0 0 50 35" fill="none" xmlns="http://www.w3.org/2000/svg">
<g clip-path="url(#clip0_238_682)">
<path d="M49.8371 17.8799C49.4371 15.8953 48.5295 14.2184 46.9141 12.9569C46.1756 12.3723 45.4371 11.7723 44.6987 11.1876C44.591 11.0953 44.4987 11.003 44.3602 10.8799C45.2679 10.6953 46.0833 10.5261 46.9141 10.3569C47.3602 10.2646 47.6064 9.98764 47.6064 9.51072C47.6064 8.78764 47.6064 8.06456 47.6064 7.34149C47.6064 6.80303 47.3141 6.51072 46.7756 6.51072C45.5448 6.51072 44.3141 6.51072 43.0833 6.51072C42.5448 6.51072 42.2525 6.80303 42.2371 7.34149C42.2371 7.71072 42.2371 8.06456 42.2371 8.43379C41.9602 8.20303 41.7295 7.95687 41.5756 7.66456C40.9448 6.40303 40.3295 5.14149 39.7141 3.87995C38.6218 1.60303 36.791 0.387641 34.2371 0.372257C28.3141 0.341488 22.391 0.356872 16.4525 0.372257C13.8371 0.372257 11.991 1.60303 10.8679 3.97226C10.2371 5.31072 9.54484 6.6338 8.86792 7.95687C8.76022 8.15687 8.59099 8.31072 8.39099 8.57226V7.91072C8.39099 7.74149 8.39099 7.55687 8.39099 7.38764C8.37561 6.81841 8.09869 6.5261 7.52945 6.5261C6.31407 6.5261 5.09869 6.5261 3.8833 6.5261C3.31407 6.5261 3.03715 6.81841 3.02176 7.38764C3.02176 8.07995 3.02176 8.75687 3.02176 9.44918C3.02176 10.0184 3.22176 10.2492 3.79099 10.3723C4.60638 10.5415 5.40638 10.6953 6.2833 10.8799C6.12945 11.0184 6.03715 11.1261 5.92945 11.203C5.11407 11.8492 4.2833 12.4799 3.49869 13.1569C1.72945 14.6646 0.744839 16.5876 0.729454 18.8953C0.683301 23.1876 0.71407 27.4799 0.729454 31.7723C0.729454 33.203 1.71407 34.1876 3.14484 34.1876C5.11407 34.1876 7.0833 34.1876 9.05253 34.1876C10.5141 34.1876 11.4833 33.2184 11.4987 31.7415C11.4987 31.2799 11.4987 30.8184 11.4987 30.3723H39.191C39.191 30.8338 39.191 31.2646 39.191 31.6953C39.191 33.2184 40.1602 34.1723 41.6833 34.1723C43.6064 34.1723 45.5295 34.1723 47.4525 34.1723C47.6679 34.1723 47.8987 34.1723 48.1141 34.1107C49.0987 33.9107 49.6218 33.2184 49.9448 32.3415V18.1107C49.9141 18.0184 49.8679 17.9261 49.8525 17.8338L49.8371 17.8799ZM45.3295 14.0953C45.591 13.9876 45.791 13.9723 45.9756 14.1876C46.4064 14.6492 46.8833 15.0953 47.2679 15.5876C47.6987 16.1415 47.4833 16.8184 46.8371 17.0953C46.5602 17.2184 46.2218 17.2646 45.8987 17.2646C44.2371 17.2799 42.5756 17.2646 40.8987 17.2646C40.1448 17.2646 39.9756 17.1723 39.4987 16.4184C40.2679 16.1107 41.0064 15.8184 41.7602 15.5107C42.9448 15.0338 44.1448 14.5723 45.3141 14.0799L45.3295 14.0953ZM43.791 8.07995H46.0371C46.0371 8.07995 46.0679 8.18764 46.0679 8.2338C46.0782 8.7261 45.8371 9.02354 45.3448 9.1261C44.8679 9.21841 44.3756 9.31072 43.8987 9.40303C43.8679 9.40303 43.8371 9.40303 43.791 9.37226V8.07995ZM12.6679 3.89533C13.4371 2.60303 14.6987 1.91072 16.2371 1.89533C22.2833 1.89533 28.3448 1.87995 34.391 1.89533C36.1295 1.89533 37.4218 2.75687 38.2064 4.29533C38.8218 5.49533 39.3448 6.75687 39.9295 8.00303H10.6987C11.3602 6.60303 11.9141 5.17226 12.6679 3.87995V3.89533ZM9.46792 9.75687C9.56022 9.66457 9.69868 9.63379 9.83715 9.58764C9.92945 9.55687 10.0218 9.58764 10.1295 9.58764C20.2679 9.58764 30.4064 9.58764 40.5448 9.58764C40.9141 9.58764 41.1295 9.7261 41.391 9.98764C42.2987 10.9723 43.2371 11.9261 44.191 12.8953C43.9448 13.003 43.6064 13.1415 43.2833 13.2646C41.9756 13.7876 40.6679 14.2953 39.3756 14.8492C38.991 15.0184 38.6218 15.2646 38.3141 15.5415C37.8064 16.003 37.3448 16.5261 36.8371 16.9876C36.6679 17.1415 36.4064 17.2646 36.1756 17.2646C33.4371 17.2799 30.6987 17.2799 27.9602 17.2646C27.5295 17.2646 27.191 17.3876 26.8987 17.7107C26.4064 18.2338 25.8987 18.7261 25.3448 19.2799C24.791 18.7261 24.2679 18.203 23.7756 17.6646C23.4987 17.3723 23.191 17.2646 22.791 17.2646C20.0525 17.2646 17.3141 17.2646 14.5756 17.2646C14.2679 17.2646 14.0218 17.1876 13.8218 16.9415C12.6679 15.4799 11.1448 14.5723 9.37561 14.0184C8.37561 13.6953 7.42176 13.2492 6.52945 12.8799C7.52945 11.8184 8.51407 10.7723 9.51407 9.7261L9.46792 9.75687ZM4.57561 8.95687V8.07995H6.83715V9.40303C6.06792 9.24918 5.34484 9.11072 4.57561 8.95687ZM3.31407 15.6184C3.42176 15.4492 3.54484 15.2799 3.6833 15.1107C4.63715 13.9261 4.77561 13.8953 6.17561 14.4492C7.65253 15.0492 9.14484 15.6338 10.6371 16.2184C10.791 16.28 10.9448 16.3569 11.1295 16.4492C10.7295 17.0646 10.2679 17.3107 9.57561 17.2953C7.92945 17.2338 6.2833 17.2953 4.62176 17.2646C4.26792 17.2646 3.8833 17.1569 3.59099 16.9723C3.06792 16.6492 2.99099 16.1261 3.31407 15.6184ZM9.91407 31.8953C9.89868 32.3415 9.59099 32.6492 9.14484 32.6492C7.09868 32.6492 5.05253 32.6492 3.00638 32.6492C2.52945 32.6492 2.25253 32.3261 2.25253 31.8338C2.25253 31.1107 2.25253 30.403 2.25253 29.6184C2.39099 29.6953 2.49869 29.7261 2.60638 29.7876C3.23715 30.1723 3.92945 30.3415 4.66792 30.3415C6.23715 30.3415 7.80638 30.3415 9.37561 30.3415H9.94484C9.94484 30.8953 9.96022 31.403 9.94484 31.8953H9.91407ZM12.2371 28.7876C12.9756 27.8646 13.8371 27.2799 14.9756 27.2799C21.7295 27.2646 28.4987 27.2646 35.2525 27.2799C36.3756 27.2799 37.2525 27.8646 37.991 28.7876H12.2525H12.2371ZM48.3602 31.9876C48.3448 32.403 48.0371 32.6492 47.6064 32.6492C45.5602 32.6492 43.5141 32.6492 41.4679 32.6492C41.0064 32.6492 40.7141 32.3415 40.6987 31.8953C40.6833 31.403 40.6987 30.9107 40.6987 30.3569C42.1756 30.3569 43.6064 30.3415 45.0218 30.3569C46.1756 30.3723 47.3295 30.3723 48.3756 29.5569C48.3756 30.4338 48.4064 31.2184 48.3756 31.9876H48.3602ZM48.3756 26.4492C48.3756 27.8184 47.3756 28.803 46.0064 28.803C44.191 28.803 42.391 28.803 40.5756 28.803C40.3756 28.803 40.1448 28.6953 40.0064 28.5569C39.5295 28.1261 39.0987 27.6492 38.6371 27.203C37.6525 26.2338 36.4833 25.7415 35.0987 25.7415C28.4525 25.7415 21.8064 25.7415 15.1602 25.7415C13.7756 25.7415 12.6064 26.2338 11.6218 27.203C11.0833 27.7261 10.6371 28.4646 9.99099 28.7261C9.32945 29.003 8.4833 28.803 7.71407 28.803C6.6833 28.803 5.66792 28.803 4.63715 28.803C3.25253 28.803 2.26792 27.8184 2.25253 26.4492C2.25253 25.203 2.25253 23.9569 2.25253 22.6799H3.02176C3.02176 22.9261 3.02176 23.1876 3.02176 23.4646C3.05253 25.1415 4.37561 26.4646 6.05253 26.4953C6.79099 26.4953 7.52945 26.4953 8.26792 26.4953C8.82176 26.4953 9.17561 26.1876 9.16022 25.7107C9.16022 25.2492 8.80638 24.9569 8.23715 24.9569C7.60638 24.9569 6.99099 24.9569 6.36022 24.9569C5.11407 24.9569 4.54484 24.3723 4.54484 23.1261V22.6799C5.86792 22.5723 7.12945 22.5876 8.19099 23.5261C8.54484 23.8492 9.02176 23.7876 9.29869 23.4492C9.56022 23.1261 9.52945 22.68 9.17561 22.3723C8.2833 21.5723 7.23715 21.1415 6.03715 21.1261C4.79099 21.1107 3.54484 21.1261 2.29869 21.1261V17.9261C3.23715 18.8492 4.29869 18.8338 5.39099 18.8338C7.00638 18.8184 8.62176 18.803 10.2525 18.8338C10.8064 18.8338 11.2525 18.6953 11.591 18.2646C11.7756 18.0338 11.991 17.8492 12.2987 17.5107C12.5756 17.8338 12.8064 18.1261 13.0525 18.4184C13.3141 18.7261 13.6371 18.8184 14.0218 18.8184C16.7602 18.8184 19.4987 18.8184 22.2371 18.8184C22.5448 18.8184 22.7756 18.9107 22.991 19.1261C23.5295 19.6953 24.0987 20.2492 24.6525 20.803C25.1141 21.2492 25.4833 21.2492 25.9448 20.803C26.4679 20.2953 26.991 19.803 27.4679 19.2646C27.791 18.9107 28.1295 18.803 28.591 18.803C31.1448 18.8338 33.6833 18.803 36.2371 18.8338C36.8987 18.8338 37.4218 18.6799 37.8218 18.1569C37.9602 17.9723 38.1295 17.7876 38.3141 17.5723C38.4833 17.7261 38.5602 17.7723 38.6218 17.8492C39.2064 18.6646 39.991 18.8953 40.991 18.8492C42.591 18.7723 44.191 18.8338 45.791 18.8338C46.9141 18.8338 47.3295 18.6953 48.2833 18.003V21.1415C47.991 21.1415 47.6525 21.1415 47.2987 21.1415C46.1141 21.1723 44.9295 21.1415 43.7448 21.2492C42.8371 21.3415 42.0371 21.7876 41.3756 22.4184C41.0679 22.7107 41.0371 23.1569 41.2833 23.4646C41.5448 23.7723 42.0064 23.8799 42.3141 23.603C43.2525 22.7723 44.3448 22.5876 45.5448 22.6646C45.6833 22.6646 45.8371 22.6646 45.9756 22.6646C46.3295 24.0184 45.6218 24.9723 44.2371 24.9723C43.591 24.9723 42.9602 24.9723 42.3141 24.9723C41.7756 24.9723 41.4525 25.2799 41.4371 25.7261C41.4371 26.1876 41.7756 26.5107 42.3295 26.5107C43.0525 26.5107 43.7756 26.5107 44.4987 26.5107C46.2371 26.4799 47.5602 25.1723 47.591 23.4338C47.591 23.203 47.591 22.9569 47.591 22.6953H48.3295C48.3295 22.803 48.3602 22.9261 48.3602 23.0492C48.3602 24.1876 48.3602 25.3261 48.3602 26.4646L48.3756 26.4492Z" fill="#F10A01"/>
</g>
<defs>
<clipPath id="clip0_238_682">
<rect width="49.2308" height="33.8462" fill="white" transform="translate(0.699219 0.356934)"/>
</clipPath>
</defs>
</svg>
