<svg width="60" height="60" viewBox="0 0 60 60" fill="none" xmlns="http://www.w3.org/2000/svg">
<circle cx="30" cy="30" r="30" fill="#F10A01"/>
<path d="M32.8442 21.2927C32.7419 22.732 32.8195 24.1854 32.8195 25.6953H38.418C38.1676 27.6214 37.9277 29.484 37.6807 31.3996H32.7843V46.0009H26.8859V31.3961H22V25.7129H26.8753C26.8753 25.4554 26.8753 25.2578 26.8753 25.0638C26.9106 23.3952 26.8683 21.7231 27.0023 20.0615C27.2634 16.7631 29.7434 14.2796 33.0524 14.0573C34.8727 13.9338 36.7106 14.0467 38.5733 14.0573V19.2678C38.224 19.2678 37.8677 19.2607 37.5079 19.2678C36.6224 19.2889 35.737 19.2783 34.855 19.3559C33.5815 19.4688 32.9324 20.0262 32.8442 21.2927Z" fill="white"/>
</svg>
