<svg width="38" height="50" viewBox="0 0 38 50" fill="none" xmlns="http://www.w3.org/2000/svg">
<path d="M24.4021 13.7323C24.6072 13.5067 24.7892 13.3068 24.9763 13.1069C26.6733 11.2894 28.3626 9.46678 30.0724 7.66213C30.5595 7.152 30.6287 6.70597 30.1903 6.11381C29.0342 4.55012 27.9089 2.95823 26.7938 1.36378C26.4708 0.904925 26.1068 0.687034 25.5198 0.687034C21.1645 0.707541 16.8067 0.707541 12.4488 0.687034C11.8644 0.68447 11.5055 0.904925 11.1825 1.36891C10.0879 2.94798 8.98053 4.51936 7.82955 6.05742C7.34506 6.7034 7.42452 7.16482 7.96028 7.72365C9.6624 9.5001 11.3286 11.3099 13.0102 13.1069C13.1948 13.3068 13.3794 13.5067 13.5844 13.7323C3.14616 17.0392 -1.19629 27.8594 1.16719 36.2777C3.36149 44.0936 10.4084 49.8895 18.9933 49.9177C27.5782 49.9433 34.8481 44.1243 36.9911 35.5317C38.8727 27.9799 35.1685 17.2494 24.4021 13.7323ZM27.4987 8.14149C26.0376 9.71287 24.5534 11.2612 23.1204 12.8582C22.6564 13.3734 22.2181 13.4273 21.5798 13.0787C22.1566 11.3406 22.7103 9.64622 23.2947 7.96461C23.3485 7.8108 23.6151 7.64162 23.7843 7.63905C25.1122 7.61086 26.44 7.62367 27.8884 7.62367C27.7192 7.84926 27.6218 8.00819 27.4987 8.14149ZM20.0648 12.6993C20.0187 12.8377 19.7879 12.9812 19.629 13.0017C18.0756 13.1914 18.0679 13.1735 17.568 11.6534C17.1399 10.3486 16.6964 9.04894 16.2299 7.657H21.7515C21.1824 9.37193 20.639 11.0407 20.0648 12.6993ZM25.9863 2.90184C26.7451 3.96566 27.45 4.95002 28.2191 6.02409H24.2047C24.802 4.97565 25.366 3.99129 25.9863 2.90184ZM24.5687 2.25842C23.9586 3.32737 23.3921 4.3271 22.7692 5.42169C22.0053 4.3553 21.3004 3.36838 20.5057 2.25842H24.5687ZM18.9856 2.80699C19.7597 3.88363 20.4955 4.90131 21.2952 6.01128H16.699C17.4655 4.9372 18.1858 3.92721 18.9856 2.80699ZM17.4783 2.25585C16.7041 3.34275 15.9941 4.33992 15.2225 5.42169C14.6073 4.34248 14.0407 3.35813 13.4101 2.25585H17.4783ZM11.9951 2.9044C12.6103 3.97591 13.1743 4.96027 13.7844 6.02666H9.76494C10.5237 4.96283 11.2287 3.97848 11.9951 2.9044ZM10.5314 8.19276C10.4007 8.0492 10.2776 7.8954 10.0469 7.62367C11.5286 7.62367 12.8308 7.61086 14.133 7.63905C14.3278 7.64418 14.6329 7.8108 14.6893 7.9723C15.2814 9.65391 15.8326 11.3483 16.4042 13.0633C15.7967 13.4427 15.3481 13.394 14.861 12.8505C13.4435 11.274 11.9772 9.74363 10.5314 8.19276ZM18.9523 48.3796C9.62907 48.3361 2.05414 40.7227 2.07721 31.4174C2.10028 22.1173 9.74186 14.5142 19.0343 14.5475C28.3498 14.5808 35.9683 22.2352 35.9094 31.4995C35.8504 40.8406 28.2319 48.4232 18.9523 48.3796Z" fill="#F10A01"/>
<path d="M6.67059 3.66052C6.70135 4.25011 6.1374 4.7346 5.69392 4.47826C4.77109 3.94506 3.88927 3.32471 3.04077 2.67617C2.8921 2.56338 2.87671 2.03787 3.01001 1.86612C3.16895 1.66105 3.65343 1.45854 3.82775 1.55595C4.7352 2.0712 5.59395 2.6736 6.4527 3.26832C6.58087 3.35548 6.62188 3.56824 6.67059 3.66052Z" fill="#F10A01"/>
<path d="M35.0369 2.51751C34.1192 3.26859 33.1528 3.95816 32.1633 4.69899C31.8378 4.45546 31.5353 4.33754 31.4379 4.12478C31.3405 3.91458 31.3379 3.46854 31.4763 3.366C32.3505 2.71233 33.2605 2.09711 34.1961 1.53572C34.3474 1.44343 34.7755 1.5998 34.9216 1.77155C35.0677 1.9433 35.1446 2.43035 35.0369 2.51751Z" fill="#F10A01"/>
<path d="M6.66739 10.1202C6.55716 10.2458 6.39566 10.5098 6.16239 10.679C5.52153 11.143 4.85504 11.5736 4.19368 12.0094C3.75789 12.2991 3.31698 12.3555 2.98887 11.871C2.68125 11.4147 2.89146 11.0353 3.29391 10.7585C4.00911 10.2663 4.72174 9.76386 5.47026 9.32038C6.04704 8.97688 6.69815 9.34858 6.66739 10.1202Z" fill="#F10A01"/>
<path d="M35.021 11.7663C34.9826 11.9816 34.6186 12.1379 34.434 12.2918C34.1726 12.1867 34.0187 12.1508 33.8931 12.0687C33.1651 11.5919 32.4397 11.1177 31.727 10.6178C31.3246 10.3359 31.1477 9.94878 31.4681 9.49762C31.7578 9.09259 32.1628 9.07978 32.5525 9.33099C33.3035 9.81548 34.07 10.2872 34.7647 10.8485C34.9749 11.0177 35.0749 11.4766 35.021 11.7663Z" fill="#F10A01"/>
<path d="M5.85052 6.85391C5.85052 7.10512 5.4455 7.54347 5.1789 7.57679C4.39705 7.6742 3.58957 7.6742 2.81029 7.57679C2.54369 7.54091 2.13867 7.10256 2.13867 6.85134C2.13867 6.60013 2.52575 6.22587 2.81798 6.12333C3.18455 5.99772 3.62546 6.09257 4.03561 6.09257C4.41756 6.09257 4.83796 5.99516 5.17377 6.12333C5.466 6.23612 5.85308 6.60013 5.85052 6.85391Z" fill="#F10A01"/>
<path d="M35.8447 6.8582C35.8447 7.10942 35.4576 7.48111 35.1628 7.58365C34.7988 7.70926 34.3553 7.61185 33.9477 7.61185C33.5632 7.61185 33.1428 7.70926 32.8096 7.58109C32.5148 7.47086 32.1328 7.10173 32.1328 6.85051C32.1328 6.59673 32.5404 6.16351 32.8096 6.13019C33.5888 6.03278 34.3989 6.03278 35.1782 6.13019C35.4448 6.16351 35.8472 6.60442 35.8447 6.8582Z" fill="#F10A01"/>
<path d="M18.9473 16.8518C10.916 16.8928 4.3921 23.4321 4.38185 31.453C4.37159 39.492 10.9596 46.0825 19.0011 46.0748C27.0477 46.0672 33.628 39.4715 33.6049 31.4351C33.5793 23.3834 26.9734 16.8107 18.9473 16.8518ZM19.0421 44.5342C11.8517 44.5752 5.91734 38.6614 5.92247 31.4556C5.93016 24.2729 11.7953 18.4052 18.9806 18.3949C26.1556 18.3821 32.0361 24.2447 32.0618 31.4325C32.09 38.6025 26.2376 44.4907 19.0421 44.5342Z" fill="#F10A01"/>
</svg>
