<svg width="42" height="50" viewBox="0 0 42 50" fill="none" xmlns="http://www.w3.org/2000/svg">
<g clip-path="url(#clip0_238_657)">
<path d="M41.8635 43.8338C41.8635 30.9261 41.8635 18.003 41.8635 5.09532C41.8635 4.66455 41.8328 4.2184 41.7251 3.8184C41.1866 1.83378 39.6481 0.664551 37.5712 0.664551C26.7405 0.664551 15.9097 0.664551 5.07892 0.679935C4.43277 0.679935 3.72507 0.833782 3.14046 1.1107C1.50969 1.89532 0.817383 3.27994 0.817383 5.04917C0.817383 17.9722 0.817383 30.9107 0.817383 43.8338C0.817383 43.9876 0.817383 44.1569 0.817383 44.3107C0.90969 45.4492 1.69431 46.3107 2.802 46.5415C2.94046 46.5722 3.07892 46.603 3.26354 46.6338C3.26354 47.3569 3.26354 48.0799 3.26354 48.7876C3.26354 49.2799 3.402 49.6646 3.87892 49.8799H38.7866C39.2481 49.6338 39.402 49.2338 39.3712 48.7261C39.3405 48.0338 39.3712 47.3261 39.3712 46.6338C41.2943 46.3722 41.8481 45.0953 41.8481 43.8184L41.8635 43.8338ZM2.47892 4.67994C2.50969 3.37224 3.50969 2.4184 4.81738 2.3107C4.92507 2.3107 5.04815 2.3107 5.15584 2.3107C15.9558 2.3107 26.7558 2.3107 37.5558 2.3107C38.8481 2.3107 39.7866 2.97224 40.1097 4.09532C40.1866 4.35686 40.2174 4.63378 40.2174 4.89532C40.2174 6.66455 40.2174 8.4184 40.2174 10.1876C40.2174 10.2799 40.1866 10.3722 40.1712 10.4799H2.52507C2.52507 10.4799 2.46354 10.4184 2.46354 10.3876C2.46354 8.47994 2.41738 6.57224 2.46354 4.66455L2.47892 4.67994ZM37.7251 48.2338H4.97123V46.6492H37.7251V48.2338ZM38.9558 44.9876C27.202 44.9876 15.4635 44.9876 3.70969 44.9876C2.69431 44.9876 2.44815 44.7415 2.44815 43.7415V12.1876H40.202V43.7415C40.202 44.7415 39.9558 44.9876 38.9405 44.9876H38.9558Z" fill="#F10A01"/>
<path d="M21.3245 15.449C14.0783 15.4644 8.2168 21.3259 8.2168 28.5567C8.2168 35.7567 14.0014 41.6952 21.3706 41.6798C28.6629 41.6644 34.4937 35.7567 34.4783 28.5413C34.463 21.3259 28.5399 15.4182 21.3399 15.4336L21.3245 15.449ZM21.3245 40.049C15.0014 40.0336 9.87834 34.9105 9.86295 28.5721C9.86295 22.2336 15.0168 17.0798 21.3553 17.0798C27.6783 17.0798 32.8168 22.2182 32.8322 28.5413C32.8476 34.849 27.6322 40.0644 21.3245 40.049Z" fill="#F10A01"/>
<path d="M15.5861 5.01833C15.5861 4.23371 15.2784 3.94141 14.5091 3.94141C11.4014 3.94141 8.29375 3.94141 5.18606 3.94141C4.40144 3.94141 4.09375 4.23371 4.09375 5.00294C4.09375 5.92602 4.09375 6.86448 4.09375 7.78756C4.09375 8.57218 4.38606 8.8491 5.17067 8.8491C6.72452 8.8491 8.27836 8.8491 9.83221 8.8491C11.3861 8.8491 12.9399 8.8491 14.4937 8.8491C15.3091 8.8491 15.5861 8.57218 15.5861 7.74141C15.5861 6.83371 15.5861 5.91064 15.5861 5.00294V5.01833ZM13.9091 7.20294H5.77067V5.63371H13.9245V7.20294H13.9091Z" fill="#F10A01"/>
<path d="M19.6778 3.94165C18.3394 3.94165 17.2471 5.06473 17.2471 6.40319C17.2471 7.75704 18.324 8.84935 19.6778 8.84935C21.0317 8.84935 22.1394 7.77242 22.1548 6.41858C22.1701 5.08012 21.0163 3.92627 19.6778 3.92627V3.94165ZM19.6317 7.20319C19.1701 7.17242 18.8471 6.78781 18.8932 6.32627C18.9394 5.8955 19.324 5.55704 19.7548 5.60319C20.1855 5.63396 20.5394 6.03396 20.5086 6.44935C20.4778 6.91089 20.0932 7.24935 19.6317 7.21858V7.20319Z" fill="#F10A01"/>
<path d="M26.2489 3.94141C24.9104 3.94141 23.8027 5.06448 23.8027 6.40294C23.8027 7.75679 24.895 8.8491 26.2489 8.8491C27.6027 8.8491 28.7104 7.77218 28.7104 6.43371C28.7104 5.06448 27.6027 3.94141 26.2489 3.94141ZM26.2643 7.20294C25.8335 7.20294 25.4643 6.86448 25.4489 6.43371C25.4335 6.00294 25.8181 5.58756 26.2489 5.58756C26.6643 5.58756 27.0489 5.94141 27.0643 6.37218C27.0797 6.81833 26.7258 7.20294 26.2643 7.20294Z" fill="#F10A01"/>
<path d="M33.6174 6.48019C33.602 6.89558 33.3097 7.1725 32.8636 7.21865C32.8328 7.21865 32.802 7.21865 32.7712 7.21865H32.002C31.7097 7.21865 31.4174 7.21865 31.1405 7.21865C30.6943 7.18788 30.4482 6.92634 30.3712 6.49558C30.3097 6.11096 30.5713 5.69558 30.9866 5.66481C31.6482 5.60327 32.3251 5.60327 32.9866 5.66481C33.4174 5.69558 33.6328 6.04942 33.602 6.49558L33.6174 6.48019Z" fill="#F10A01"/>
<path d="M38.5407 6.48019C38.5099 6.89558 38.2484 7.15711 37.833 7.20327C37.5253 7.23404 37.2176 7.20327 36.9253 7.20327C36.6176 7.20327 36.3099 7.23404 36.0176 7.20327C35.6022 7.15711 35.3561 6.89558 35.3099 6.48019C35.2792 6.06481 35.4638 5.69558 35.8792 5.66481C36.5715 5.60327 37.2792 5.60327 37.9715 5.66481C38.3869 5.71096 38.5715 6.06481 38.5407 6.48019Z" fill="#F10A01"/>
<path d="M21.3399 17.8951C15.5399 17.8336 10.7399 22.6182 10.663 28.5259C10.5861 34.3413 15.3861 39.1874 21.2476 39.2336C27.1553 39.2797 31.9399 34.5105 31.9707 28.5259C32.0169 22.6951 27.2784 17.9567 21.3246 17.8951H21.3399ZM22.5707 37.4951C18.7092 37.9567 15.1707 36.1567 13.4323 32.8797C14.9707 32.3567 16.4938 32.0797 18.063 31.9105C19.4784 31.7567 20.7553 32.049 22.0015 32.6951C24.2169 33.8182 26.4784 33.6951 28.7553 32.8644C28.9092 32.8028 29.0784 32.7413 29.263 32.6643C28.4015 34.8643 25.6938 37.1259 22.5707 37.4951ZM29.7861 30.6643C28.6784 31.0182 27.6015 31.4797 26.463 31.7413C25.3246 32.0028 24.1092 31.9567 23.0938 31.372C20.8323 30.0643 18.463 30.0336 16.0169 30.5413C14.9399 30.7567 13.8784 31.049 12.7399 31.3105C12.0169 28.9105 12.1399 26.5413 13.3861 24.3413C15.3246 20.8951 18.3399 19.2336 22.2784 19.6336C26.0476 20.0182 28.5861 22.1567 29.8938 25.7105C30.4169 27.1567 30.4784 28.649 30.2169 30.1567C30.1707 30.4336 30.063 30.572 29.8015 30.6643H29.7861Z" fill="#F10A01"/>
</g>
<defs>
<clipPath id="clip0_238_657">
<rect width="41.0462" height="49.2308" fill="white" transform="translate(0.817383 0.664551)"/>
</clipPath>
</defs>
</svg>
