<svg width="100%" height="100%" viewBox="0 0 25 27" fill="none" xmlns="http://www.w3.org/2000/svg">
<path d="M24.537 23.2678C23.6981 24.1344 22.8909 25.0502 21.7987 25.5898C20.3742 26.3257 18.7281 26.4565 17.2086 25.9823C12.9983 24.7231 9.53187 22.2539 6.47703 19.0816C4.15028 16.6614 2.25089 13.9469 0.93715 10.8073C0.430647 9.58084 -0.0441994 8.32171 0.00328521 6.37577C0.0349416 5.1657 0.683899 3.64493 1.88684 2.36944C2.31421 1.92793 2.72574 1.48642 3.16893 1.0449C3.73874 0.47257 4.26108 0.47257 4.83089 1.06126C6.2396 2.50026 7.63249 3.93927 9.02537 5.39463C9.59519 5.99967 9.59519 6.5393 9.00954 7.14434C8.23396 7.9456 7.45838 8.74687 6.68279 9.54813C5.71727 10.5456 5.65396 11.6249 6.47703 12.7696C8.4239 15.4677 10.7506 17.8224 13.394 19.7847C14.4228 20.5533 15.5149 20.4715 16.4013 19.5558C17.1611 18.7709 17.905 17.986 18.6489 17.201C19.2662 16.5633 19.7886 16.5633 20.4059 17.1847C21.7829 18.6073 23.16 20.03 24.537 21.4527C25.1543 22.0904 25.1543 22.6137 24.537 23.2678Z" fill="#F10A01"/>
</svg>
