<svg width="24" height="24" viewBox="0 0 24 24" fill="none" xmlns="http://www.w3.org/2000/svg">
<g clip-path="url(#clip0_122_1987)">
<path d="M22.6435 13.7013C22.3835 13.2913 22.1135 12.8813 21.8435 12.4813C21.6235 12.1513 21.6335 11.8313 21.8435 11.5013C22.1035 11.1213 22.3535 10.7313 22.5935 10.3413C23.4735 8.97125 22.9635 7.40125 21.4535 6.81125C21.0235 6.64125 20.5935 6.47125 20.1635 6.31125C19.7735 6.17125 19.5835 5.91125 19.5735 5.50125C19.5735 5.06125 19.5435 4.63125 19.5135 4.19125C19.4035 2.46125 18.0435 1.51125 16.3835 1.99125C16.0135 2.10125 15.6335 2.18125 15.2635 2.30125C14.8035 2.44125 14.4435 2.33125 14.1535 1.93125C13.9035 1.58125 13.6135 1.24125 13.3335 0.911254C12.3235 -0.298746 10.6735 -0.308746 9.67351 0.911254C9.38351 1.26125 9.09351 1.60125 8.83351 1.96125C8.56351 2.33125 8.22351 2.44125 7.78351 2.31125C7.40351 2.20125 7.01351 2.11125 6.63351 1.99125C5.00351 1.52125 3.64351 2.43125 3.49351 4.11125C3.45351 4.58125 3.44351 5.06125 3.42351 5.53125C3.41351 5.93125 3.22351 6.18125 2.84351 6.31125C2.39351 6.47125 1.95351 6.64125 1.51351 6.82125C0.0835054 7.38125 -0.436495 8.98125 0.403505 10.3013C0.663505 10.7013 0.913505 11.1013 1.18351 11.4913C1.41351 11.8313 1.40351 12.1613 1.18351 12.5013C0.923505 12.8913 0.663505 13.2913 0.403505 13.6913C-0.436495 15.0113 0.0935053 16.6013 1.55351 17.1613C2.00351 17.3313 2.46351 17.5113 2.91351 17.6813C3.25351 17.8113 3.43351 18.0513 3.44351 18.4213C3.46351 18.8713 3.48351 19.3213 3.50351 19.7713C3.60351 21.5213 4.97351 22.4813 6.65351 21.9913C7.06351 21.8713 7.47351 21.7813 7.88351 21.6613C8.27351 21.5513 8.56351 21.6713 8.80351 21.9813C9.10351 22.3613 9.40351 22.7513 9.71351 23.1213C10.6835 24.2713 12.3235 24.2813 13.3035 23.1213C13.5735 22.8113 13.8235 22.4813 14.0835 22.1613C14.5635 21.5613 14.6735 21.5313 15.4335 21.7313C16.0235 21.8913 16.6135 22.0313 16.9835 22.1213C18.3535 22.1213 19.3135 21.3113 19.4735 20.1813C19.5535 19.6013 19.5635 19.0113 19.5935 18.4213C19.6135 18.0413 19.7935 17.8013 20.1535 17.6713C20.6235 17.5013 21.0935 17.3313 21.5535 17.1413C22.9635 16.5613 23.4635 14.9913 22.6435 13.7013ZM20.5135 13.3013C20.7635 13.6913 21.0135 14.0713 21.2635 14.4613C21.6335 15.0413 21.4935 15.4713 20.8435 15.7213C20.3835 15.9013 19.9035 16.0613 19.4535 16.2613C18.5735 16.6413 18.0935 17.3213 18.0335 18.2913C18.0035 18.8013 17.9835 19.3113 17.9435 19.8213C17.9135 20.2713 17.6235 20.5413 17.0935 20.5413C16.6335 20.4213 16.0635 20.2713 15.5035 20.1313C14.5335 19.8813 13.7335 20.1513 13.0835 20.9013C12.7835 21.2513 12.5035 21.6213 12.2135 21.9813C11.7335 22.5713 11.3135 22.5713 10.8335 21.9913C10.5535 21.6413 10.2735 21.2913 9.98351 20.9413C9.33351 20.1513 8.51351 19.8713 7.51351 20.1313C7.05351 20.2513 6.60351 20.3713 6.14351 20.4913C5.52351 20.6513 5.11351 20.3513 5.08351 19.7213C5.06351 19.2313 5.03351 18.7513 5.00351 18.2613C4.94351 17.3113 4.47351 16.6413 3.60351 16.2613C3.13351 16.0613 2.65351 15.8913 2.17351 15.7113C1.55351 15.4713 1.40351 15.0213 1.76351 14.4713C2.01351 14.0713 2.28351 13.6813 2.53351 13.2813C3.07351 12.4113 3.07351 11.5413 2.53351 10.6713C2.27351 10.2613 1.99351 9.86125 1.74351 9.45125C1.43351 8.95125 1.58351 8.50125 2.13351 8.28125C2.62351 8.09125 3.11351 7.92125 3.59351 7.71125C4.47351 7.33125 4.95351 6.65125 5.01351 5.68125C5.04351 5.19125 5.07351 4.71125 5.09351 4.22125C5.12351 3.61125 5.53351 3.30125 6.13351 3.46125C6.60351 3.58125 7.07351 3.71125 7.54351 3.84125C8.51351 4.09125 9.31351 3.82125 9.96351 3.07125C10.2735 2.71125 10.5635 2.33125 10.8635 1.97125C11.3235 1.41125 11.7435 1.41125 12.2135 1.98125C12.4935 2.33125 12.7735 2.68125 13.0635 3.03125C13.7135 3.82125 14.5335 4.10125 15.5335 3.84125C15.9935 3.72125 16.4535 3.60125 16.9035 3.48125C17.5235 3.31125 17.9335 3.61125 17.9635 4.25125C17.9835 4.74125 18.0135 5.22125 18.0435 5.71125C18.1035 6.66125 18.5735 7.33125 19.4435 7.71125C19.8735 7.90125 20.3235 8.05125 20.7635 8.23125C21.5335 8.53125 21.6635 8.93125 21.2235 9.61125C20.9835 9.98125 20.7435 10.3413 20.5135 10.7113C19.9735 11.5813 19.9735 12.4513 20.5135 13.3213V13.3013Z" fill="#151112"/>
<path d="M15.39 9.17023C12.99 11.5702 10.59 13.9702 8.18004 16.3702C7.92004 16.6302 7.63004 16.7502 7.27004 16.5902C6.96004 16.4602 6.81004 16.2202 6.79004 15.7702C6.85004 15.6602 6.92004 15.4402 7.06004 15.2902C9.46004 12.8702 11.87 10.4602 14.29 8.05023C14.63 7.71023 15.12 7.69023 15.43 7.99023C15.75 8.30023 15.75 8.80023 15.39 9.16023V9.17023Z" fill="#151112"/>
<path d="M9.93004 9.3698C9.91004 10.2098 9.20004 10.9098 8.36004 10.9198C7.50004 10.9198 6.79004 10.2198 6.79004 9.3498C6.79004 8.4698 7.47004 7.7998 8.36004 7.7998C9.23004 7.7998 9.94004 8.5198 9.93004 9.3698Z" fill="#151112"/>
<path d="M15.66 15.0699C15.66 15.9399 14.98 16.6499 14.11 16.6599C13.24 16.6599 12.54 15.9599 12.54 15.0899C12.54 14.2299 13.21 13.5399 14.07 13.5199C14.93 13.4999 15.65 14.1999 15.66 15.0699Z" fill="#151112"/>
</g>
<defs>
<clipPath id="clip0_122_1987">
<rect width="24" height="24" fill="white"/>
</clipPath>
</defs>
</svg>
