<svg width="28" height="32" viewBox="0 0 28 32" fill="none" xmlns="http://www.w3.org/2000/svg">
<g clip-path="url(#clip0_329_22337)">
<path d="M27.072 6.31988C27.072 5.68988 26.722 5.29988 26.162 5.06988C22.162 3.40988 18.162 1.73988 14.152 0.109883C13.802 -0.0301172 13.302 -0.0301172 12.962 0.109883C8.94199 1.73988 4.94199 3.40988 0.941988 5.05988C0.291988 5.32988 -0.00801173 5.79988 0.00198827 6.49988C0.0219883 7.64988 0.00198827 8.80988 0.00198827 9.95988C0.00198827 12.1299 -0.0680117 14.2999 0.381988 16.4399C1.93199 23.6999 6.10199 28.8199 12.882 31.8499C13.352 32.0599 13.762 32.0399 14.222 31.8499C18.112 30.1899 21.232 27.6199 23.562 24.0999C25.582 21.0699 26.792 17.7299 26.972 14.0899C27.102 11.5099 27.042 8.90988 27.062 6.32988L27.072 6.31988ZM23.972 17.1099C22.432 22.6999 19.062 26.7499 13.832 29.2599C13.662 29.3399 13.372 29.3299 13.202 29.2399C8.19199 26.8299 4.87199 22.9599 3.25199 17.6399C2.72199 15.8899 2.50199 14.0899 2.51199 12.2599C2.51199 10.6899 2.52199 9.11988 2.51199 7.54988C2.51199 7.22988 2.61199 7.08988 2.90199 6.96988C6.32199 5.55988 9.73199 4.13988 13.152 2.73988C13.382 2.64988 13.702 2.63988 13.932 2.73988C17.352 4.13988 20.772 5.56988 24.192 6.96988C24.482 7.08988 24.592 7.23988 24.582 7.54988C24.562 8.52988 24.582 9.51988 24.582 10.9399C24.632 12.7299 24.582 14.9499 23.992 17.1099H23.972Z" fill="#F2F0ED"/>
<path d="M19.3822 13.02C19.0322 13.42 18.6322 13.79 18.2622 14.16C16.5822 15.84 14.9122 17.51 13.2322 19.19C12.4922 19.93 11.8422 19.94 11.1122 19.21C10.0322 18.14 8.9622 17.06 7.8922 15.99C7.2922 15.39 7.2522 14.6 7.7922 14.08C8.3122 13.57 9.0722 13.62 9.6622 14.21C10.4922 15.04 11.3022 15.87 12.1522 16.74C13.9122 14.98 15.5922 13.29 17.2822 11.6C17.4022 11.48 17.5122 11.36 17.6422 11.25C18.1522 10.84 18.8622 10.87 19.3222 11.33C19.7722 11.78 19.8222 12.52 19.3822 13.01V13.02Z" fill="#F2F0ED"/>
</g>
<defs>
<clipPath id="clip0_329_22337">
<rect width="27.07" height="32" fill="white" transform="translate(0.00195312)"/>
</clipPath>
</defs>
</svg>
