<svg width="37" height="36" viewBox="0 0 37 36" fill="none" xmlns="http://www.w3.org/2000/svg">
<path d="M18.0245 1.08156C18.1741 0.620906 18.8259 0.620902 18.9755 1.08156L22.627 12.3197C22.8278 12.9377 23.4038 13.3561 24.0536 13.3561H35.87C36.3544 13.3561 36.5558 13.9759 36.1639 14.2606L26.6042 21.2062C26.0785 21.5881 25.8585 22.2652 26.0593 22.8832L29.7108 34.1213C29.8605 34.582 29.3332 34.965 28.9414 34.6803L19.3817 27.7348C18.8559 27.3528 18.1441 27.3528 17.6183 27.7348L8.05862 34.6803C7.66677 34.965 7.13953 34.582 7.2892 34.1213L10.9407 22.8832C11.1415 22.2652 10.9215 21.5881 10.3958 21.2062L0.836075 14.2606C0.444217 13.9759 0.645606 13.3561 1.12997 13.3561H12.9464C13.5962 13.3561 14.1722 12.9377 14.373 12.3197L18.0245 1.08156Z" fill="white" stroke="white"/>
</svg>
