<svg width="60" height="60" viewBox="0 0 60 60" fill="none" xmlns="http://www.w3.org/2000/svg">
<circle cx="30" cy="30" r="30" fill="#F10A01"/>
<path d="M45.8791 19.5734C45.3274 22.2552 44.7542 24.9329 44.1849 27.6107C43.162 32.4225 42.1392 37.2343 41.1125 42.0461C40.7061 43.9523 39.6303 44.3724 38.0676 43.224C35.8609 41.6004 33.6543 39.9769 31.4477 38.3533C31.324 38.263 31.1964 38.1805 31.0394 38.0745L27.3976 41.5827C27.0305 41.9381 26.634 42.2208 26.0234 42.1717C26.0803 41.2883 26.1353 40.4048 26.1942 39.5371C26.2924 38.1629 26.42 36.7886 26.4769 35.4144C26.4789 34.957 26.6889 34.5231 27.0462 34.2365C31.1944 30.5084 35.3348 26.7705 39.4712 23.0267C39.6774 22.8559 39.8737 22.6733 40.0602 22.4809C40.176 22.3219 40.2762 22.1511 40.3586 21.9725C40.1309 21.945 39.8815 21.8488 39.6774 21.9077C39.3908 22.0137 39.1198 22.157 38.8705 22.3356C33.5699 25.6711 28.2693 29.0085 22.9687 32.3479C22.6114 32.6012 22.152 32.6581 21.7437 32.503C19.5959 31.81 17.4384 31.1484 15.2867 30.4652C14.7213 30.2866 14.0283 30.1374 14.0008 29.4228C13.9734 28.7082 14.6232 28.4412 15.1788 28.2252C17.5346 27.2848 19.9218 26.3779 22.2953 25.461L43.2896 17.3668C44.0062 17.09 44.7483 16.7229 45.4492 17.3256C46.15 17.9283 46.042 18.7803 45.8791 19.5734Z" fill="white"/>
</svg>
