<svg width="60" height="60" viewBox="0 0 60 60" fill="none" xmlns="http://www.w3.org/2000/svg">
<circle cx="30" cy="30" r="30" fill="#F10A01"/>
<path d="M44.1298 26.8213V27.184C41.1101 27.1733 38.4532 26.2453 36.0204 24.4427C36.0204 24.6133 36.0204 24.72 36.0204 24.8267C36.0311 28.5173 36.0417 32.208 36.0524 35.9093C36.0631 37.9253 35.5616 39.792 34.4305 41.4667C32.5739 44.1867 30.0024 45.6907 26.7053 45.9467C26.5879 45.9573 26.4812 45.9787 26.3638 46H25.7343C25.0194 45.8933 24.3045 45.84 23.6003 45.68C19.6523 44.7733 16.5686 41.3493 16.0778 37.3387C15.4162 31.9947 19.0441 27.1733 24.3792 26.2987C25.4142 26.128 26.4492 26.1067 27.5056 26.288V31.5467C27.2281 31.4933 26.972 31.44 26.7053 31.3973C24.1338 31.024 21.6796 32.8267 21.3488 35.3333C20.9861 38.032 22.7893 40.4 25.4249 40.752C28.0924 41.1147 30.8027 39.0453 30.7706 35.9093C30.7386 32.112 30.7706 28.3147 30.7706 24.5173C30.7706 21.1467 30.7706 17.776 30.7706 14.4053V14H35.9457C36.0204 14.5333 36.0737 15.0773 36.1804 15.6C36.9167 19.1733 40.0858 21.8507 43.7243 21.968C44.0444 21.9787 44.1191 22.064 44.1191 22.3733C44.1191 23.8667 44.1298 25.3387 44.1298 26.8213Z" fill="white"/>
</svg>
