<svg width="50" height="50" viewBox="0 0 50 50" fill="none" xmlns="http://www.w3.org/2000/svg">
<g clip-path="url(#clip0_238_671)">
<path d="M47.0519 39.4947C44.0673 36.8178 41.1442 34.0947 38.1903 31.4024C36.9134 30.2332 35.6365 29.064 34.2519 27.7871C34.4519 27.6486 34.6519 27.5563 34.7903 27.4024C35.2365 26.9255 35.2673 26.4024 34.8673 25.9871C34.4826 25.5871 33.8826 25.6024 33.4211 26.064C33.2519 26.2332 33.1596 26.464 33.0365 26.664C32.4211 26.0947 31.9749 25.6947 31.4211 25.1871C31.5903 25.064 31.7596 24.9871 31.8826 24.864C33.498 23.264 35.1288 21.6794 36.698 20.0332C37.0673 19.6486 37.4057 19.5871 37.9134 19.6947C41.9749 20.5563 46.4057 18.4024 48.2519 14.6794C48.8826 13.4178 49.2826 12.1101 49.1903 10.6794C49.1288 9.6332 49.2673 8.57167 48.9288 7.5409C48.5596 6.44859 47.8365 6.24859 47.0211 7.06397C45.8519 8.2332 44.698 9.40244 43.5288 10.5717C43.3903 10.7101 43.1903 10.8332 43.0057 10.8486C41.4057 10.9563 41.4057 10.9563 40.3134 9.81782C40.2826 9.78705 40.2519 9.7409 40.2057 9.71013C39.3442 9.09474 39.0519 8.26397 39.1903 7.21782C39.2365 6.87936 39.3134 6.6332 39.5596 6.38705C40.7442 5.21782 41.9134 4.0332 43.0673 2.8332C43.698 2.18705 43.498 1.37167 42.6211 1.1409C41.8826 0.940896 41.1288 0.756281 40.3596 0.694742C34.0211 0.202434 28.898 6.09474 30.2673 12.264C30.3442 12.6178 30.298 12.8486 30.0365 13.1101C27.8826 15.2332 25.7442 17.3717 23.6057 19.5101C23.498 19.6178 23.3749 19.7255 23.3134 19.7717C19.3903 15.8947 15.498 12.0332 11.6211 8.17167C11.5134 8.06397 11.4673 7.86397 11.4673 7.71013C11.4519 7.09474 11.4673 6.46397 11.4673 5.8332C11.4673 5.40243 11.3134 5.04859 10.9288 4.8332C8.69802 3.52551 6.48264 2.18705 4.25187 0.863973C3.74417 0.55628 3.35956 0.602434 2.94417 1.01782C2.05187 1.86397 1.19033 2.7409 0.328789 3.61782C-0.0558264 4.00243 -0.10198 4.4332 0.159558 4.89474C1.49802 7.1409 2.83648 9.35628 4.19033 11.6024C4.39033 11.9409 4.69802 12.1101 5.1134 12.1101C5.69802 12.1101 6.26725 12.1255 6.85187 12.1101C7.2211 12.0947 7.46725 12.2024 7.72879 12.464C11.4365 16.1871 15.1442 19.8947 18.8673 23.6024C18.9749 23.7101 19.0826 23.8332 19.1903 23.9563C16.8826 26.264 14.5903 28.5563 12.298 30.8178C12.1903 30.9255 11.9442 30.9409 11.7903 30.9101C10.4826 30.6178 9.17494 30.5871 7.88264 30.8332C2.23648 31.8947 -1.20967 37.5563 0.421097 43.064C0.728789 44.1101 1.5134 44.3101 2.28264 43.5563C3.46725 42.3717 4.6211 41.1871 5.80571 40.0178C5.95956 39.864 6.23648 39.7717 6.46725 39.7255C7.55956 39.5255 8.46725 39.8486 9.11341 40.7871C9.14417 40.8332 9.17494 40.864 9.2211 40.8947C10.098 41.4947 10.3903 42.3255 10.2519 43.3717C10.2057 43.6947 10.1442 43.9255 9.89802 44.1563C8.69802 45.3255 7.49802 46.5101 6.31341 47.6947C5.63648 48.3871 5.83648 49.1717 6.75956 49.4486C7.40571 49.6332 8.05187 49.7563 8.71341 49.9101H10.4519C11.498 49.6332 12.6057 49.4794 13.5749 49.0332C16.8365 47.5563 18.698 44.9563 19.2211 41.4178C19.3749 40.3409 19.2826 39.2947 19.0673 38.2332C19.0365 38.0486 19.0365 37.7563 19.1596 37.6332C20.9596 35.8024 22.7903 33.9871 24.6519 32.1255C25.0826 32.6024 25.5134 33.064 25.9442 33.5255C25.7288 33.7409 25.5288 33.9409 25.3442 34.1563C24.9749 34.6024 25.0057 35.1255 25.3903 35.4947C25.7596 35.8332 26.2673 35.8486 26.698 35.4947C26.8826 35.3409 27.0519 35.1717 27.3596 34.8794C27.4365 35.0332 27.498 35.1871 27.5903 35.2947C31.4211 39.464 35.2673 43.6178 39.098 47.7871C40.098 48.8794 41.2673 49.6178 42.7442 49.8178C42.7903 49.8178 42.8211 49.864 42.8673 49.8794H44.3134C44.8057 49.7409 45.298 49.6332 45.7749 49.4332C47.9442 48.5563 49.1442 46.6332 49.2519 44.2947C49.3442 42.264 48.5442 40.7717 47.0826 39.464L47.0519 39.4947ZM8.77494 10.7717C8.35956 10.3563 7.91341 10.1563 7.32879 10.1717C6.75956 10.2024 6.06725 10.3409 5.63648 10.0947C5.19033 9.84859 4.99033 9.18705 4.69802 8.69474C3.92879 7.41782 3.17494 6.1409 2.39033 4.87936C2.2211 4.60243 2.20571 4.4332 2.46725 4.18705C2.92879 3.77167 3.34417 3.31013 3.80571 2.84859C3.92879 2.91013 4.03648 2.95628 4.14417 3.01782C5.8211 4.01782 7.48264 5.0332 9.17494 6.01782C9.43648 6.17167 9.60571 6.3409 9.54417 6.64859C9.54417 6.67936 9.54417 6.71013 9.54417 6.7409C9.59033 9.26397 9.2211 8.46397 11.0057 10.264C14.498 13.7871 18.0211 17.2794 21.5288 20.7871C21.6519 20.9101 21.7749 21.0332 21.9134 21.1871C21.4519 21.664 21.0211 22.0794 20.4826 22.6178C20.3749 22.4486 20.2826 22.2794 20.1442 22.1409C16.3596 18.3409 12.5596 14.5563 8.77494 10.7563V10.7717ZM17.3442 36.6486C16.9134 37.0794 16.8365 37.5101 16.9903 38.0794C17.898 41.4024 16.8519 44.4947 14.098 46.5255C12.6519 47.5871 11.0057 48.0178 9.2211 47.9563C9.11341 47.9563 9.00571 47.9255 8.86725 47.8947C9.60571 47.1409 10.298 46.4332 11.0057 45.7255C11.2365 45.4794 11.5288 45.2794 11.7134 45.0024C11.898 44.7255 12.0826 44.3871 12.1134 44.064C12.1749 43.264 12.1749 42.464 12.1134 41.664C12.098 41.3409 11.9442 40.9563 11.7288 40.7255C10.9134 39.8486 10.0673 39.0024 9.17494 38.1871C8.94417 37.9717 8.55956 37.8332 8.23648 37.8024C7.45187 37.7409 6.66725 37.8024 5.88264 37.7871C5.45187 37.7871 5.11341 37.9255 4.8211 38.2332C3.89802 39.1563 2.94417 40.0794 1.97494 41.0332C1.85187 40.0794 1.92879 39.1563 2.19033 38.2486C3.39033 34.064 7.52879 31.7409 11.7442 32.9101C12.4057 33.0947 12.8826 32.9717 13.3749 32.4794C19.5288 26.3101 25.698 20.1717 31.8673 14.0332C32.3596 13.5409 32.4826 13.0794 32.298 12.4024C31.1134 8.17167 33.5442 3.95628 37.8057 2.8332C38.6519 2.61782 39.5288 2.51013 40.5288 2.66397C39.5749 3.6332 38.7134 4.52551 37.8211 5.40243C37.4211 5.78705 37.2519 6.21782 37.2673 6.77167C37.298 7.46397 37.2211 8.15628 37.298 8.8332C37.3288 9.20243 37.498 9.61782 37.7288 9.89474C38.4519 10.7255 39.2519 11.4947 40.0211 12.2947C40.3442 12.6332 40.698 12.8024 41.1596 12.7871C41.9134 12.7717 42.6673 12.7717 43.4211 12.7871C43.8519 12.7871 44.1903 12.6486 44.498 12.3409C45.4211 11.4178 46.375 10.5101 47.3442 9.55628C47.4673 10.3717 47.4057 11.1717 47.2211 11.9409C46.1749 16.3563 41.8519 18.8947 37.4826 17.6486C36.9134 17.4794 36.4826 17.5717 36.0519 18.0024C29.8211 24.2332 23.5903 30.4486 17.3442 36.664V36.6486ZM27.2211 32.0947C26.8519 31.6947 26.4365 31.2486 26.0519 30.8332C27.4365 29.4486 28.7903 28.0947 30.2057 26.6947C30.6211 27.0794 31.0673 27.4947 31.4826 27.864C30.0673 29.2794 28.6673 30.6794 27.2365 32.1101L27.2211 32.0947ZM46.7134 46.3101C45.5134 47.9717 43.4057 48.4332 41.6057 47.4024C41.2826 47.2178 40.9749 46.9717 40.7134 46.6947C36.7288 42.3871 32.7442 38.0794 28.7596 33.7563C28.7134 33.7101 28.6826 33.664 28.6519 33.6178C30.1288 32.1563 31.5596 30.7255 33.0211 29.264C33.5442 29.7409 34.098 30.2486 34.6519 30.7563C38.4673 34.2486 42.2826 37.7409 46.0826 41.2178C47.5596 42.5717 47.8211 44.7563 46.7134 46.2947V46.3101Z" fill="#F10A01"/>
<path d="M31.653 19.4176C31.5453 19.5868 31.3915 19.9099 31.1607 20.1407C29.5915 21.7407 27.9915 23.3099 26.4069 24.8945C24.1453 27.1561 21.8684 29.4176 19.6069 31.6791C19.4992 31.7868 19.4069 31.8945 19.2992 31.9715C18.853 32.3253 18.3145 32.3253 17.9607 31.9561C17.6069 31.5868 17.6069 31.0484 17.9607 30.6176C18.0376 30.5253 18.1453 30.433 18.2222 30.3407C22.0684 26.5099 25.8992 22.6791 29.7453 18.8484C29.8838 18.7099 30.0376 18.5561 30.2222 18.4484C30.8376 18.0791 31.6376 18.5407 31.653 19.4176Z" fill="#F10A01"/>
<path d="M34.3749 16.541C34.3749 17.0795 33.9287 17.5102 33.3903 17.4795C32.8672 17.4641 32.4518 17.0333 32.4672 16.5256C32.4672 16.0179 32.9134 15.6025 33.4364 15.6025C33.9595 15.6025 34.3749 16.0333 34.3903 16.541H34.3749Z" fill="#F10A01"/>
<path d="M16.8686 33.9868C16.884 34.5099 16.4379 34.956 15.8994 34.956C15.3763 34.956 14.9609 34.5253 14.9609 34.0176C14.9609 33.5099 15.3763 33.0791 15.8994 33.0791C16.4225 33.0791 16.8532 33.4791 16.8686 33.9868Z" fill="#F10A01"/>
<path d="M43.8211 43.264C43.8057 44.1563 43.0673 44.6179 42.4519 44.2794C42.2673 44.1871 42.1134 44.0332 41.975 43.8948C39.2365 41.1717 36.498 38.464 33.775 35.7409C33.6827 35.6486 33.5904 35.5563 33.5134 35.464C33.1596 35.0332 33.1596 34.5256 33.5134 34.1563C33.8673 33.7871 34.4057 33.7563 34.8519 34.1102C34.9442 34.1871 35.0365 34.2794 35.1288 34.3717C37.8673 37.0948 40.5904 39.8025 43.3134 42.5256C43.5596 42.7717 43.7134 43.0948 43.8211 43.2486V43.264Z" fill="#F10A01"/>
</g>
<defs>
<clipPath id="clip0_238_671">
<rect width="49.2308" height="49.2308" fill="white" transform="translate(-0.00976562 0.664062)"/>
</clipPath>
</defs>
</svg>
